<svg width="314" height="313" viewBox="0 0 314 313" fill="none" xmlns="http://www.w3.org/2000/svg">
<path d="M311.346 194.111C320.782 160.262 304.179 117.18 275.451 103.027C248.806 89.8965 227.9 114.574 203.661 99.5546C188.56 90.2017 190.9 77.6074 176.735 55.5694C162.06 32.7396 130.105 0.441436 95.0886 0.00430534C51.5442 -0.527674 14.5434 48.3402 3.713 90.8945C-12.1798 153.309 27.6843 204.26 34.2898 212.701C81.6548 273.24 162.501 281.941 214.66 269.706C227.335 266.737 269.468 256.839 296.881 221.093C301.646 214.879 307.856 206.61 311.346 194.111Z" fill="#FFD5E1" fill-opacity="0.5"/>
<path d="M131.52 237.362C131.52 237.362 141.62 231.931 130.332 225.667C130.332 225.667 131.264 232.125 130.332 232.677C129.399 233.23 129.094 225.11 129.119 224.958C129.144 224.805 120.793 221.613 120.042 221.914C119.291 222.215 124.102 229.259 122.765 228.599C121.428 227.939 118.321 221.147 118.321 221.147C118.321 221.147 111.774 220.277 110.429 222.384C109.084 224.492 108.007 228.525 110.429 230.269C112.85 232.013 118.466 230.302 117.975 231.42C117.484 232.537 111.976 233.313 111.126 232.822C111.126 232.822 114.563 240.525 118.915 238.669C122.963 236.946 125.773 236.834 125.929 237.168C126.086 237.502 118.717 238.612 118.301 241.214C117.884 243.816 130.645 242.319 130.526 239.977C130.406 237.634 131.52 237.362 131.52 237.362Z" fill="#E7ABBB"/>
<path d="M131.582 253.948C132.407 252.876 134.982 249 134.02 243.973C133.508 241.413 132.21 239.076 130.307 237.288L129.647 237.989C131.402 239.632 132.601 241.781 133.075 244.138C133.963 248.769 131.574 252.361 130.819 253.35L131.582 253.948Z" fill="#E7ABBB"/>
<path d="M137.734 236.838C137.734 236.838 130.414 232.9 138.596 228.364C138.596 228.364 137.919 233.044 138.596 233.453C139.273 233.861 139.479 227.972 139.471 227.861C139.462 227.749 145.503 225.44 146.047 225.659C146.592 225.877 143.081 230.075 144.071 230.5C145.061 230.925 148.321 225.358 148.321 225.358C148.321 225.358 152.034 224.471 153.012 225.988C153.99 227.506 154.765 230.434 153.012 231.7C151.258 232.966 147.186 231.725 147.541 232.525C147.896 233.325 151.889 233.898 152.492 233.539C152.492 233.539 149.769 239.573 146.848 237.779C143.927 235.985 141.121 236.129 141.121 236.422C141.121 236.715 146.984 237.737 147.285 239.622C147.586 241.507 138.34 240.422 138.427 238.719C138.513 237.016 137.734 236.838 137.734 236.838Z" fill="#E7ABBB"/>
<path d="M137.688 248.851C137.098 248.076 135.213 245.263 135.922 241.626C136.296 239.768 137.243 238.074 138.629 236.781L139.108 237.288C137.837 238.482 136.971 240.044 136.632 241.754C136.436 242.921 136.482 244.115 136.766 245.263C137.05 246.411 137.566 247.489 138.282 248.431L137.688 248.851Z" fill="#E7ABBB"/>
<path d="M132.267 225.51C132.267 225.51 145.833 218.215 130.67 209.806C130.67 209.806 131.908 218.467 130.67 219.238C129.432 220.009 129.02 209.081 129.04 208.874C129.061 208.668 117.859 204.384 116.857 204.792C115.854 205.2 122.357 212.978 120.516 213.765C118.676 214.553 112.636 204.235 112.636 204.235C112.636 204.235 105.75 202.586 103.939 205.406C102.127 208.227 100.687 213.654 103.939 215.992C107.19 218.33 114.732 216.038 114.076 217.535C113.42 219.032 106.018 220.079 104.875 219.419C104.875 219.419 109.921 230.599 115.338 227.255C120.756 223.91 126.4 224.492 125.95 224.739C125.5 224.986 114.125 227.593 113.573 231.081C113.02 234.57 131.112 232.154 130.951 229.02C130.79 225.885 132.267 225.51 132.267 225.51Z" fill="#CE8196"/>
<path d="M132.353 247.783C133.447 246.344 136.917 241.131 135.621 234.389C134.932 230.947 133.184 227.807 130.621 225.407L129.733 226.351C132.105 228.567 133.721 231.471 134.354 234.653C135.547 240.867 132.337 245.692 131.322 247.024L132.353 247.783Z" fill="#CE8196"/>
<path d="M133.913 258.728C129.618 258.727 125.5 257.021 122.463 253.986C119.427 250.951 117.72 246.834 117.719 242.542H150.107C150.107 246.835 148.401 250.952 145.364 253.987C142.327 257.023 138.208 258.728 133.913 258.728Z" fill="#CE8196"/>
<path d="M119.935 260.246H147.887C148.156 260.246 148.374 260.028 148.374 259.759V259.21C148.374 258.942 148.156 258.724 147.887 258.724H119.935C119.666 258.724 119.448 258.942 119.448 259.21V259.759C119.448 260.028 119.666 260.246 119.935 260.246Z" fill="#CE8196"/>
<path d="M163.578 140.2H159.159C158.384 140.2 157.756 140.827 157.756 141.602V147.779C157.756 148.554 158.384 149.181 159.159 149.181H163.578C164.353 149.181 164.981 148.554 164.981 147.779V141.602C164.981 140.827 164.353 140.2 163.578 140.2Z" fill="#E7ABBB"/>
<path d="M161.367 103.101C158.447 103.101 155.579 103.874 153.056 105.341C150.532 106.809 148.442 108.918 146.999 111.454C145.556 113.991 144.81 116.865 144.839 119.783C144.867 122.701 145.669 125.559 147.161 128.067C147.219 128.224 147.289 128.376 147.372 128.521L154.749 141.305C154.881 141.576 155.033 141.838 155.203 142.088C155.211 142.106 155.222 142.123 155.236 142.138C155.912 143.142 156.824 143.965 157.894 144.534C158.963 145.103 160.155 145.401 161.367 145.401C162.578 145.401 163.77 145.103 164.84 144.534C165.909 143.965 166.821 143.142 167.498 142.138L167.531 142.088C167.7 141.838 167.852 141.576 167.984 141.305L175.362 128.521C175.446 128.377 175.515 128.225 175.568 128.067C177.068 125.561 177.876 122.701 177.909 119.78C177.941 116.86 177.197 113.983 175.753 111.444C174.309 108.905 172.216 106.794 169.688 105.329C167.161 103.863 164.289 103.094 161.367 103.101Z" fill="#CE8196"/>
<path d="M166.227 118.541C166.108 118.541 165.991 118.515 165.884 118.463C165.781 118.402 165.69 118.32 165.619 118.223C165.548 118.126 165.498 118.015 165.472 117.898C165.348 117.405 165.419 116.884 165.67 116.442C165.826 116.192 166.043 115.986 166.301 115.844C165.795 115.528 165.2 115.383 164.605 115.432C164.466 115.443 164.328 115.465 164.193 115.498C164.452 115.679 164.642 115.942 164.733 116.244C164.791 116.476 164.801 116.717 164.764 116.953C164.726 117.189 164.641 117.415 164.515 117.617C164.444 117.745 164.348 117.857 164.232 117.945C164.117 118.034 163.984 118.098 163.842 118.133C163.671 118.149 163.498 118.125 163.337 118.065C163.177 118.004 163.032 117.907 162.914 117.782C162.726 117.618 162.578 117.413 162.48 117.184C162.381 116.955 162.335 116.707 162.344 116.458C162.374 116.251 162.452 116.054 162.571 115.882C162.691 115.71 162.849 115.568 163.033 115.469C162.542 115.342 162.039 115.271 161.532 115.258C161.056 115.242 160.58 115.287 160.116 115.394C160.32 115.547 160.489 115.741 160.613 115.964C160.736 116.186 160.812 116.432 160.834 116.685C160.815 116.863 160.76 117.034 160.672 117.19C160.584 117.345 160.465 117.481 160.323 117.588C160.2 117.699 160.055 117.782 159.898 117.834C159.741 117.885 159.575 117.902 159.411 117.885C159.254 117.852 159.106 117.785 158.978 117.69C158.849 117.595 158.742 117.473 158.664 117.333C158.543 117.149 158.461 116.942 158.422 116.725C158.384 116.508 158.39 116.285 158.441 116.071C158.498 115.892 158.591 115.727 158.713 115.585C158.836 115.443 158.986 115.328 159.155 115.246C158.375 114.792 157.237 114.454 156.378 114.895L156.337 114.92C156.454 115.002 156.558 115.101 156.647 115.213C157.096 115.753 157.369 116.813 156.725 117.395C156.568 117.528 156.387 117.629 156.19 117.692C155.994 117.754 155.787 117.776 155.582 117.757C155.445 117.753 155.311 117.72 155.187 117.661C155.064 117.602 154.954 117.519 154.864 117.415C154.769 117.27 154.708 117.105 154.686 116.933C154.663 116.761 154.679 116.586 154.732 116.421C154.857 115.906 155.109 115.431 155.467 115.04C155.342 115.013 155.215 114.999 155.087 114.999C154.039 114.97 152.904 115.939 152.199 117.473L151.786 117.283C152.574 115.559 153.849 114.508 155.087 114.541C155.35 114.546 155.611 114.593 155.859 114.681C155.953 114.611 156.052 114.549 156.156 114.495C157.241 113.93 158.652 114.388 159.531 114.949L159.654 115.027C160.256 114.847 160.883 114.767 161.511 114.788C162.227 114.798 162.937 114.928 163.611 115.172C163.915 115.061 164.233 114.99 164.556 114.961C165.356 114.897 166.15 115.14 166.776 115.642C167.558 115.426 168.39 115.479 169.14 115.79C169.925 116.141 170.553 116.767 170.906 117.551L170.493 117.745C170.186 117.065 169.642 116.52 168.962 116.211C168.384 115.978 167.751 115.915 167.139 116.03C167.217 116.137 167.285 116.251 167.341 116.372C167.456 116.557 167.527 116.766 167.549 116.983C167.571 117.2 167.542 117.419 167.466 117.623C167.39 117.827 167.268 118.011 167.11 118.161C166.952 118.311 166.761 118.423 166.553 118.487C166.447 118.521 166.338 118.539 166.227 118.541ZM166.677 116.17C166.424 116.273 166.209 116.452 166.062 116.681C165.878 117.014 165.825 117.404 165.913 117.774C165.937 117.887 166.001 117.987 166.095 118.054C166.2 118.095 166.316 118.095 166.421 118.054C166.678 117.963 166.89 117.777 167.015 117.535C167.078 117.376 167.104 117.205 167.09 117.035C167.077 116.865 167.024 116.7 166.936 116.553C166.872 116.414 166.787 116.284 166.685 116.17H166.677ZM163.615 115.667C163.203 115.852 162.835 116.129 162.79 116.491C162.787 116.669 162.822 116.846 162.893 117.009C162.964 117.172 163.07 117.317 163.203 117.436C163.269 117.511 163.351 117.571 163.443 117.611C163.535 117.651 163.635 117.67 163.735 117.667C163.813 117.643 163.885 117.604 163.948 117.551C164.01 117.499 164.061 117.434 164.098 117.362C164.191 117.214 164.254 117.05 164.283 116.877C164.312 116.705 164.307 116.529 164.267 116.359C164.212 116.205 164.126 116.064 164.014 115.945C163.901 115.826 163.766 115.731 163.615 115.667ZM159.597 115.543C159.438 115.59 159.291 115.672 159.168 115.782C159.044 115.893 158.947 116.029 158.883 116.182C158.85 116.334 158.849 116.492 158.878 116.645C158.907 116.797 158.966 116.943 159.052 117.073C159.096 117.157 159.158 117.231 159.232 117.29C159.307 117.349 159.393 117.392 159.485 117.415C159.585 117.42 159.685 117.405 159.779 117.371C159.874 117.337 159.96 117.285 160.034 117.217C160.125 117.15 160.202 117.066 160.26 116.969C160.318 116.872 160.356 116.764 160.372 116.652C160.389 116.343 160.083 115.918 159.597 115.543ZM155.941 115.213C155.567 115.567 155.302 116.021 155.178 116.52C155.145 116.621 155.132 116.727 155.141 116.832C155.149 116.938 155.179 117.041 155.227 117.135C155.282 117.188 155.346 117.23 155.417 117.259C155.488 117.287 155.564 117.301 155.64 117.3C155.926 117.326 156.21 117.239 156.432 117.056C156.845 116.685 156.638 115.902 156.312 115.502C156.212 115.385 156.092 115.287 155.958 115.213H155.941Z" fill="#F2DDE3"/>
<path d="M133.216 40.4719H63.3112C59.3053 40.4719 56.0579 43.7177 56.0579 47.7217V85.8221C56.0579 89.8261 59.3053 93.0719 63.3112 93.0719H133.216C137.222 93.0719 140.469 89.8261 140.469 85.8221V47.7217C140.469 43.7177 137.222 40.4719 133.216 40.4719Z" fill="#CE8196"/>
<path d="M130.059 42.439H66.4675C62.4616 42.439 59.2142 45.6848 59.2142 49.6888V83.8551C59.2142 87.859 62.4616 91.1048 66.4675 91.1048H130.059C134.065 91.1048 137.313 87.859 137.313 83.8551V49.6888C137.313 45.6848 134.065 42.439 130.059 42.439Z" fill="#F2DDE3"/>
<path d="M72.1817 51.5445H69.9125V71.6154H72.1817V51.5445Z" fill="#CE8196"/>
<path d="M75.9239 59.5407H73.6547V71.6154H75.9239V59.5407Z" fill="#CE8196"/>
<path d="M79.6661 54.5508H77.3969V71.6154H79.6661V54.5508Z" fill="#CE8196"/>
<path d="M83.4125 62.3738H81.1432V71.6154H83.4125V62.3738Z" fill="#CE8196"/>
<path d="M87.1545 58.9716H84.8853V71.6154H87.1545V58.9716Z" fill="#CE8196"/>
<path d="M90.8967 66.9925H88.6275V71.6112H90.8967V66.9925Z" fill="#CE8196"/>
<path d="M94.643 56.4766H92.3738V71.6154H94.643V56.4766Z" fill="#CE8196"/>
<path d="M125.385 65.9492C124.738 67.9534 123.511 69.7209 121.86 71.0283C120.208 72.3356 118.205 73.124 116.105 73.2938C114.005 73.4637 111.902 73.0072 110.061 71.9823C108.221 70.9573 106.726 69.4099 105.765 67.5356C104.804 65.6614 104.421 63.5445 104.664 61.4526C104.907 59.3608 105.765 57.3879 107.13 55.7835C108.495 54.1791 110.305 53.0153 112.332 52.4391C114.358 51.8629 116.51 51.9003 118.515 52.5466L114.988 63.479L124.923 58.3942L124.972 58.3406C126.049 60.7379 126.196 63.4496 125.385 65.9492Z" fill="#CE8196"/>
<path d="M126.619 56.4396L126.569 56.4932L116.638 61.5779L120.162 50.6496C121.585 51.1061 122.896 51.8579 124.008 52.8556C125.121 53.8533 126.011 55.0746 126.619 56.4396Z" fill="#CE8196"/>
<path d="M107.685 77.2238H69.9125C69.7254 77.2238 69.546 77.1495 69.4137 77.0173C69.2813 76.8851 69.207 76.7057 69.207 76.5187C69.207 76.3316 69.2813 76.1523 69.4137 76.02C69.546 75.8878 69.7254 75.8135 69.9125 75.8135H107.685C107.872 75.8135 108.051 75.8878 108.184 76.02C108.316 76.1523 108.39 76.3316 108.39 76.5187C108.39 76.7057 108.316 76.8851 108.184 77.0173C108.051 77.1495 107.872 77.2238 107.685 77.2238Z" fill="#CE8196"/>
<path d="M125.901 80.1477H69.7516C69.6345 80.1477 69.5223 80.1012 69.4395 80.0185C69.3567 79.9357 69.3102 79.8235 69.3102 79.7064C69.3102 79.5894 69.3567 79.4772 69.4395 79.3944C69.5223 79.3117 69.6345 79.2652 69.7516 79.2652H125.901C126.018 79.2652 126.13 79.3117 126.213 79.3944C126.296 79.4772 126.342 79.5894 126.342 79.7064C126.342 79.8235 126.296 79.9357 126.213 80.0185C126.13 80.1012 126.018 80.1477 125.901 80.1477Z" fill="#CE8196"/>
<path d="M125.901 83.3354H69.7516C69.6345 83.3354 69.5223 83.2889 69.4395 83.2062C69.3567 83.1234 69.3102 83.0112 69.3102 82.8942C69.3102 82.7771 69.3567 82.6649 69.4395 82.5822C69.5223 82.4994 69.6345 82.4529 69.7516 82.4529H125.901C126.018 82.4529 126.13 82.4994 126.213 82.5822C126.296 82.6649 126.342 82.7771 126.342 82.8942C126.342 83.0112 126.296 83.1234 126.213 83.2062C126.13 83.2889 126.018 83.3354 125.901 83.3354Z" fill="#CE8196"/>
<path d="M174.355 214.924L184.537 207.303L205.051 213.782L205.344 212.858L184.356 206.227L174.466 213.629L124.304 160.176L111.064 180.861L97.6631 130.137L91.792 175.055L83.3959 160.736L75.6021 171.562L76.386 172.127L83.3134 162.51L92.3861 177.987L97.9849 135.148L110.693 183.24L124.448 161.747L174.355 214.924Z" fill="#E7ABBB"/>
<path d="M97.8241 135.449C99.3758 135.449 100.634 134.192 100.634 132.641C100.634 131.09 99.3758 129.832 97.8241 129.832C96.2723 129.832 95.0143 131.09 95.0143 132.641C95.0143 134.192 96.2723 135.449 97.8241 135.449Z" fill="#CE8196"/>
<path d="M124.374 163.767C125.926 163.767 127.184 162.51 127.184 160.959C127.184 159.408 125.926 158.151 124.374 158.151C122.822 158.151 121.564 159.408 121.564 160.959C121.564 162.51 122.822 163.767 124.374 163.767Z" fill="#CE8196"/>
<path d="M174.413 216.78C175.964 216.78 177.222 215.523 177.222 213.972C177.222 212.421 175.964 211.163 174.413 211.163C172.861 211.163 171.603 212.421 171.603 213.972C171.603 215.523 172.861 216.78 174.413 216.78Z" fill="#CE8196"/>
<path d="M184.938 209.571C186.489 209.571 187.747 208.314 187.747 206.763C187.747 205.212 186.489 203.955 184.938 203.955C183.386 203.955 182.128 205.212 182.128 206.763C182.128 208.314 183.386 209.571 184.938 209.571Z" fill="#CE8196"/>
<path d="M83.3546 164.431C84.9064 164.431 86.1643 163.174 86.1643 161.623C86.1643 160.072 84.9064 158.815 83.3546 158.815C81.8028 158.815 80.5449 160.072 80.5449 161.623C80.5449 163.174 81.8028 164.431 83.3546 164.431Z" fill="#CE8196"/>
<path d="M51.474 131.172L50.6777 133.073C50.6602 133.116 50.6512 133.161 50.6513 133.207C50.6514 133.252 50.6605 133.298 50.6781 133.34C50.6958 133.382 50.7216 133.42 50.7541 133.452C50.7866 133.485 50.8252 133.51 50.8675 133.527L53.6731 134.694C53.3653 136.165 53.4177 137.689 53.8258 139.136L50.851 140.373C50.809 140.39 50.7709 140.416 50.7388 140.448C50.7068 140.481 50.6814 140.519 50.6641 140.561C50.6469 140.603 50.6381 140.648 50.6383 140.694C50.6385 140.739 50.6477 140.784 50.6654 140.826L51.4493 142.732C51.4665 142.774 51.4919 142.812 51.5241 142.845C51.5562 142.877 51.5945 142.903 51.6367 142.921C51.6789 142.939 51.7241 142.948 51.7699 142.948C51.8156 142.948 51.8609 142.939 51.9031 142.921L54.9521 141.684C55.7285 142.906 56.7796 143.93 58.0218 144.674L56.7263 147.779C56.6918 147.864 56.6919 147.959 56.7266 148.044C56.7613 148.129 56.8278 148.196 56.9119 148.233L58.8181 149.025C58.8601 149.042 58.9051 149.051 58.9507 149.052C58.9962 149.052 59.0413 149.043 59.0835 149.026C59.1256 149.009 59.164 148.983 59.1963 148.951C59.2286 148.919 59.2543 148.881 59.2719 148.839L60.5633 145.734C61.969 146.088 63.4377 146.112 64.8542 145.804L66.092 148.851C66.1092 148.894 66.1346 148.932 66.1668 148.965C66.1989 148.997 66.2372 149.023 66.2794 149.041C66.3216 149.058 66.3668 149.067 66.4126 149.068C66.4583 149.068 66.5036 149.059 66.5458 149.041L68.452 148.258C68.5368 148.222 68.6043 148.154 68.6398 148.07C68.6753 147.985 68.676 147.889 68.6418 147.804L67.404 144.831C68.7179 144.1 69.8371 143.065 70.6676 141.812L73.4732 142.979C73.5152 142.997 73.5602 143.006 73.6058 143.006C73.6513 143.006 73.6964 142.997 73.7386 142.98C73.7807 142.963 73.8191 142.938 73.8514 142.906C73.8837 142.874 73.9094 142.835 73.927 142.793L74.7192 140.892C74.7537 140.807 74.7536 140.712 74.7189 140.628C74.6842 140.543 74.6176 140.475 74.5335 140.439L71.8352 139.313C72.2889 137.798 72.3485 136.193 72.0085 134.649L74.5459 133.605C74.6308 133.57 74.6982 133.502 74.7337 133.417C74.7692 133.333 74.7699 133.237 74.7357 133.152L73.9476 131.247C73.9309 131.204 73.9059 131.166 73.8741 131.134C73.8423 131.101 73.8044 131.075 73.7625 131.058C73.7207 131.04 73.6757 131.031 73.6303 131.031C73.5849 131.031 73.5399 131.039 73.4979 131.057L71.0224 132.071C70.2287 130.639 69.0719 129.44 67.6681 128.595L68.6583 126.215C68.6759 126.174 68.6851 126.128 68.6853 126.083C68.6855 126.037 68.6767 125.992 68.6595 125.95C68.6423 125.908 68.6169 125.87 68.5848 125.837C68.5527 125.805 68.5146 125.779 68.4726 125.762L66.6077 124.958C66.5657 124.94 66.5207 124.931 66.4751 124.931C66.4296 124.93 66.3845 124.939 66.3423 124.956C66.3002 124.974 66.2618 124.999 66.2295 125.031C66.1972 125.063 66.1715 125.101 66.1539 125.143L65.1637 127.523C63.5752 127.121 61.9091 127.144 60.3323 127.589L59.3173 125.114C59.3005 125.072 59.2755 125.034 59.2438 125.001C59.212 124.969 59.1741 124.943 59.1322 124.925C59.0903 124.908 59.0454 124.899 59 124.898C58.9545 124.898 58.9095 124.907 58.8676 124.925L56.9573 125.708C56.9153 125.726 56.8772 125.752 56.8451 125.784C56.813 125.816 56.7877 125.854 56.7704 125.897C56.7532 125.939 56.7444 125.984 56.7446 126.029C56.7448 126.075 56.754 126.12 56.7717 126.162L57.8155 128.698C56.4792 129.546 55.3804 130.72 54.6221 132.108L51.9238 130.983C51.8389 130.949 51.744 130.949 51.6598 130.985C51.5756 131.02 51.5088 131.088 51.474 131.172ZM59.7629 135.375C60.0161 134.765 60.4446 134.244 60.994 133.878C61.5434 133.512 62.1891 133.317 62.8495 133.318C63.5098 133.319 64.1551 133.515 64.7036 133.882C65.2522 134.25 65.6794 134.772 65.9312 135.382C66.183 135.992 66.2481 136.663 66.1182 137.31C65.9883 137.957 65.6693 138.551 65.2016 139.017C64.7338 139.483 64.1383 139.8 63.4904 139.927C62.8425 140.055 62.1713 139.987 61.5618 139.734C61.1571 139.566 60.7896 139.32 60.4801 139.01C60.1707 138.7 59.9254 138.332 59.7584 137.927C59.5913 137.522 59.5057 137.088 59.5065 136.65C59.5073 136.212 59.5944 135.779 59.7629 135.375Z" fill="#CE8196"/>
<path d="M21.6275 125.498L21.2603 129.3C21.2523 129.384 21.261 129.468 21.2857 129.549C21.3104 129.629 21.3508 129.704 21.4044 129.768C21.4581 129.833 21.524 129.887 21.5984 129.926C21.6728 129.965 21.7542 129.989 21.8379 129.997L27.4408 130.541C27.6937 133.312 28.6123 135.98 30.1185 138.319L25.5182 142.105C25.3875 142.213 25.3051 142.368 25.2888 142.536C25.2726 142.705 25.3239 142.873 25.4315 143.004L27.8617 145.952C27.9151 146.018 27.981 146.072 28.0554 146.111C28.1299 146.151 28.2114 146.176 28.2954 146.184C28.3794 146.192 28.4642 146.183 28.5448 146.158C28.6254 146.133 28.7004 146.093 28.7652 146.039L33.477 142.163C35.5182 143.902 37.9365 145.143 40.5405 145.787L39.9422 151.973C39.9337 152.057 39.9418 152.141 39.966 152.221C39.9903 152.302 40.0303 152.376 40.0836 152.441C40.1369 152.506 40.2026 152.56 40.2767 152.599C40.3509 152.638 40.4321 152.662 40.5157 152.67L44.3198 153.041C44.4891 153.056 44.6575 153.004 44.7887 152.896C44.9199 152.788 45.0034 152.633 45.0212 152.464L45.6194 146.278C48.2988 146.146 50.9106 145.392 53.2481 144.076L57.1306 148.785C57.2392 148.916 57.3952 148.999 57.5645 149.015C57.7338 149.031 57.9027 148.98 58.0342 148.872L60.9842 146.447C61.1151 146.339 61.1976 146.183 61.2139 146.014C61.2301 145.844 61.1787 145.676 61.0708 145.544L57.2832 140.95C59.211 138.942 60.6263 136.499 61.4091 133.828L67.0121 134.373C67.0961 134.381 67.181 134.373 67.2619 134.348C67.3427 134.324 67.418 134.284 67.4832 134.23C67.5484 134.176 67.6023 134.11 67.6418 134.036C67.6814 133.961 67.7057 133.879 67.7134 133.795L68.0807 129.997C68.0892 129.913 68.081 129.828 68.0565 129.747C68.032 129.667 67.9918 129.591 67.9381 129.526C67.8844 129.461 67.8183 129.407 67.7436 129.368C67.6689 129.328 67.5872 129.304 67.503 129.296L62.1146 128.772C62.0991 125.847 61.3395 122.973 59.9073 120.421L63.831 117.197C63.9619 117.088 64.0445 116.932 64.0607 116.763C64.077 116.594 64.0255 116.425 63.9176 116.293L61.4751 113.341C61.4217 113.276 61.3558 113.221 61.2814 113.182C61.2069 113.142 61.1254 113.117 61.0414 113.109C60.9574 113.101 60.8726 113.11 60.792 113.135C60.7114 113.16 60.6365 113.2 60.5716 113.254L56.7675 116.384C54.5788 114.281 51.8755 112.789 48.9284 112.058L49.3863 107.308C49.3955 107.224 49.3878 107.139 49.3638 107.058C49.3398 106.977 49.2999 106.902 49.2466 106.837C49.1932 106.772 49.1273 106.718 49.0529 106.678C48.9784 106.639 48.8968 106.614 48.8128 106.606L45.0088 106.239C44.8399 106.223 44.6714 106.274 44.5401 106.382C44.4087 106.489 44.3251 106.644 44.3074 106.813L43.8494 111.568C40.8182 111.72 37.8802 112.666 35.3295 114.31L32.2186 110.524C32.11 110.393 31.954 110.311 31.7847 110.295C31.6154 110.278 31.4465 110.33 31.315 110.438L28.365 112.862C28.2341 112.971 28.1515 113.127 28.1353 113.296C28.1191 113.465 28.1705 113.634 28.2784 113.766L31.5089 117.687C29.6044 119.914 28.2994 122.59 27.7173 125.461L22.3289 124.937C22.1617 124.92 21.9944 124.969 21.8631 125.074C21.7318 125.179 21.6472 125.331 21.6275 125.498ZM38.5931 128.43C38.7092 127.211 39.1846 126.054 39.9591 125.106C40.7335 124.157 41.7721 123.46 42.9435 123.101C44.1148 122.743 45.3661 122.741 46.539 123.094C47.7118 123.447 48.7535 124.14 49.532 125.085C50.3105 126.03 50.7909 127.185 50.9123 128.403C51.0337 129.622 50.7907 130.849 50.214 131.929C49.6374 133.009 48.753 133.894 47.6729 134.471C46.5927 135.049 45.3655 135.293 44.1465 135.173C42.5166 135.012 41.0169 134.212 39.976 132.948C38.935 131.684 38.4378 130.06 38.5931 128.43Z" fill="#CE8196"/>
<path d="M61.0997 198.994L59.7299 199.567C59.3463 198.862 58.7898 198.266 58.1126 197.835L58.6407 196.548C58.6585 196.505 58.6586 196.456 58.6408 196.413C58.623 196.37 58.5889 196.335 58.5458 196.317L57.5762 195.905C57.5551 195.896 57.5325 195.892 57.5096 195.892C57.4867 195.892 57.4641 195.896 57.443 195.905C57.4219 195.914 57.4028 195.927 57.3867 195.943C57.3706 195.959 57.3579 195.978 57.3493 196L56.8336 197.237C56.034 197.009 55.1883 196.998 54.3828 197.204L53.8795 195.996C53.8612 195.952 53.8267 195.918 53.7835 195.901C53.7402 195.883 53.6917 195.883 53.6484 195.901L52.683 196.313C52.6399 196.331 52.6057 196.366 52.588 196.409C52.5702 196.452 52.5702 196.501 52.5881 196.544L53.0914 197.752C52.3801 198.18 51.7938 198.787 51.3916 199.513L50.1538 199.002C50.1327 198.993 50.11 198.989 50.0872 198.989C50.0643 198.989 50.0417 198.993 50.0206 199.002C49.9995 199.011 49.9803 199.024 49.9643 199.04C49.9482 199.056 49.9355 199.076 49.9269 199.097L49.5143 200.062C49.4965 200.105 49.4964 200.153 49.5142 200.197C49.532 200.24 49.5661 200.274 49.6092 200.293L50.8965 200.82C50.7248 201.604 50.756 202.419 50.9872 203.188L49.6174 203.761C49.5963 203.769 49.577 203.782 49.5607 203.798C49.5445 203.814 49.5316 203.833 49.5227 203.854C49.5139 203.876 49.5094 203.898 49.5093 203.921C49.5093 203.944 49.5138 203.966 49.5225 203.988L49.9351 204.953C49.9534 204.996 49.9879 205.03 50.0311 205.048C50.0744 205.065 50.1229 205.065 50.1662 205.047L51.5896 204.458C52.0097 205.092 52.5756 205.617 53.2399 205.988L52.6211 207.497C52.6123 207.518 52.6078 207.541 52.6079 207.564C52.6079 207.586 52.6125 207.609 52.6213 207.63C52.6301 207.651 52.643 207.67 52.6593 207.686C52.6755 207.703 52.6948 207.715 52.716 207.724L53.6814 208.136C53.7247 208.154 53.7732 208.154 53.8165 208.136C53.8597 208.119 53.8942 208.084 53.9125 208.041L54.5478 206.495C55.2671 206.652 56.0129 206.639 56.7263 206.458L57.3823 208.033C57.3909 208.054 57.4036 208.074 57.4197 208.09C57.4358 208.106 57.4549 208.119 57.476 208.128C57.4971 208.137 57.5197 208.141 57.5426 208.141C57.5655 208.141 57.5881 208.137 57.6092 208.128L58.5788 207.716C58.6209 207.697 58.654 207.663 58.671 207.621C58.688 207.578 58.6875 207.531 58.6696 207.489L58.0136 205.913C58.6442 205.535 59.1782 205.016 59.5732 204.396L61.1204 205.031C61.1415 205.04 61.1641 205.044 61.187 205.044C61.2098 205.044 61.2325 205.04 61.2536 205.031C61.2747 205.022 61.2938 205.009 61.3099 204.993C61.326 204.977 61.3387 204.957 61.3473 204.936L61.7599 203.967C61.7764 203.924 61.7758 203.877 61.7581 203.834C61.7404 203.792 61.707 203.758 61.665 203.74L60.1549 203.117C60.3626 202.384 60.3895 201.612 60.2333 200.866L61.6567 200.272C61.6998 200.254 61.7339 200.219 61.7517 200.176C61.7695 200.133 61.7694 200.084 61.7516 200.041L61.339 199.076C61.3289 199.055 61.3146 199.036 61.297 199.02C61.2795 199.004 61.259 198.992 61.2367 198.985C61.2144 198.977 61.1908 198.974 61.1673 198.975C61.1438 198.977 61.1208 198.983 61.0997 198.994ZM56.2106 203.435C55.9018 203.563 55.5619 203.597 55.2339 203.532C54.9059 203.467 54.6045 203.307 54.3677 203.071C54.1309 202.835 53.9694 202.534 53.9035 202.206C53.8377 201.879 53.8705 201.539 53.9977 201.23C54.1249 200.921 54.341 200.656 54.6185 200.47C54.896 200.284 55.2225 200.184 55.5569 200.183C55.8912 200.182 56.2184 200.28 56.497 200.464C56.7756 200.649 56.9933 200.912 57.1224 201.22C57.2083 201.426 57.2529 201.646 57.2536 201.868C57.2543 202.091 57.211 202.311 57.1263 202.517C57.0416 202.723 56.9171 202.91 56.76 203.067C56.6028 203.225 56.4161 203.35 56.2106 203.435Z" fill="#CE8196"/>
<path d="M76.1138 195.921L73.3783 196.185C73.0818 194.728 72.4203 193.371 71.4557 192.239L73.106 190.251C73.1336 190.218 73.1543 190.18 73.1669 190.139C73.1796 190.098 73.1839 190.055 73.1797 190.013C73.1755 189.97 73.1628 189.929 73.1423 189.891C73.1219 189.853 73.0941 189.82 73.0607 189.793L71.5671 188.556C71.5342 188.529 71.4962 188.508 71.4553 188.495C71.4143 188.483 71.3712 188.478 71.3286 188.482C71.2859 188.487 71.2445 188.499 71.2068 188.52C71.1691 188.54 71.1359 188.568 71.1091 188.601L69.5083 190.527C68.2137 189.698 66.7244 189.222 65.1885 189.146L64.9574 186.733C64.9491 186.648 64.9071 186.569 64.8406 186.514C64.774 186.459 64.6885 186.433 64.6026 186.441L62.6717 186.63C62.5859 186.639 62.5069 186.681 62.4519 186.747C62.397 186.814 62.3707 186.899 62.3788 186.985L62.6139 189.393C61.1205 189.765 59.7505 190.521 58.6407 191.587L56.7098 189.999C56.643 189.945 56.5573 189.919 56.4715 189.928C56.3856 189.936 56.3067 189.978 56.2519 190.045L55.0141 191.542C54.9606 191.609 54.9353 191.694 54.9438 191.78C54.9523 191.865 54.9938 191.944 55.0595 192L57.0482 193.649C56.3195 194.944 55.9306 196.403 55.9177 197.888L53.1863 198.156C53.1005 198.165 53.0215 198.207 52.9666 198.273C52.9117 198.34 52.8854 198.425 52.8934 198.511L53.0791 200.437C53.0874 200.523 53.1295 200.602 53.196 200.657C53.2625 200.712 53.348 200.738 53.4339 200.73L56.2766 200.453C56.6766 201.808 57.3953 203.046 58.3726 204.066L56.454 206.396C56.4265 206.429 56.4058 206.467 56.3931 206.508C56.3805 206.549 56.3761 206.592 56.3804 206.634C56.3846 206.677 56.3973 206.718 56.4177 206.756C56.4382 206.794 56.466 206.827 56.4994 206.854L57.993 208.091C58.0598 208.145 58.1455 208.171 58.2313 208.163C58.3172 208.154 58.3962 208.112 58.451 208.046L60.419 205.654C61.6043 206.323 62.9294 206.707 64.2891 206.775L64.5944 209.918C64.6027 210.004 64.6448 210.083 64.7113 210.137C64.7778 210.192 64.8633 210.219 64.9492 210.211L66.8801 210.025C66.9659 210.017 67.045 209.975 67.0999 209.908C67.1548 209.842 67.1811 209.756 67.173 209.67L66.8677 206.524C68.1887 206.198 69.4151 205.568 70.449 204.685L72.842 206.652C72.9083 206.707 72.9937 206.733 73.0795 206.726C73.1653 206.718 73.2446 206.676 73.3 206.61L74.5377 205.113C74.5928 205.047 74.6193 204.962 74.6116 204.876C74.6039 204.79 74.5625 204.711 74.4965 204.656L72.1653 202.738C72.9287 201.551 73.3957 200.197 73.5269 198.792L76.3696 198.515C76.4554 198.507 76.5345 198.465 76.5894 198.398C76.6443 198.332 76.6706 198.246 76.6625 198.161L76.4769 196.231C76.4755 196.186 76.4648 196.142 76.4453 196.101C76.4259 196.061 76.3981 196.025 76.3639 195.996C76.3297 195.966 76.2898 195.945 76.2467 195.932C76.2036 195.919 76.1584 195.916 76.1138 195.921ZM65.0441 201.117C64.4267 201.177 63.8053 201.053 63.2586 200.76C62.7119 200.467 62.2645 200.018 61.973 199.471C61.6814 198.924 61.5588 198.302 61.6207 197.685C61.6826 197.068 61.9262 196.484 62.3206 196.005C62.7151 195.527 63.2427 195.176 63.8367 194.997C64.4307 194.818 65.0644 194.82 65.6576 195.001C66.2509 195.182 66.777 195.535 67.1694 196.016C67.5618 196.496 67.8028 197.082 67.8621 197.699C67.9019 198.108 67.8606 198.522 67.7405 198.915C67.6204 199.309 67.4239 199.674 67.1621 199.992C66.9004 200.31 66.5786 200.572 66.2152 200.765C65.8518 200.959 65.4538 201.078 65.0441 201.117Z" fill="#CE8196"/>
<path d="M302.121 241.251L150.388 239.276V296.614H302.121V241.251Z" fill="#CE8196"/>
<path d="M163.293 240.092L174.648 184.309L313.038 184.506L302.121 241.251L163.293 240.092Z" fill="#CE8196"/>
<path d="M302.121 296.614L313.038 285.702V184.506L302.121 241.251V296.614Z" fill="#CE8196"/>
<path d="M263.313 165.264C263.313 165.264 269.827 171.31 271.564 171.706C273.301 172.102 281.619 175.083 283.331 174.49C283.331 174.49 266.617 210.112 276.012 221.679C276.012 221.679 278.075 242.439 267.806 239.869C257.536 237.3 243.075 222.075 243.075 222.075L217.082 208.829L225.124 180.882L227.962 178.576C227.962 178.576 239.172 173.236 241.247 173.335C241.247 173.335 244.33 167.561 245.786 167.698C247.242 167.834 263.313 165.264 263.313 165.264Z" fill="#F99746"/>
<path d="M273.871 189.509C273.871 189.509 266.197 202.532 270.739 207.559L273.107 205.992L274.626 195.064L273.871 189.509Z" fill="#ED7D2B"/>
<path d="M272.596 199.089C272.596 199.089 277.889 163.31 290.048 177.743C290.048 177.743 282.341 220.096 277.889 221.085C273.438 222.075 240.724 220.673 238.042 213.662C235.36 206.652 229.027 196.429 229.027 196.429C229.027 196.429 231.337 195.971 231.799 196.181C232.261 196.392 233.148 197.22 233.862 197.352C234.576 197.484 235.414 197.55 235.711 197.88C235.868 198.033 235.98 198.225 236.037 198.437C236.218 198.384 236.41 198.377 236.594 198.418C236.779 198.458 236.95 198.544 237.093 198.668C237.654 199.08 241.875 207.011 242.568 207.567C243.261 208.124 263.89 210.553 270.657 206.94L272.596 199.089Z" fill="#FFB27D"/>
<path d="M250.023 218.763L229.027 197.262L229.481 196.354L250.555 217.856L250.023 218.763Z" fill="#EBF3FF"/>
<path d="M229.027 197.262L224.711 151.161L225.268 151.647L229.819 196.701L229.027 197.262Z" fill="#EBF3FF"/>
<path d="M224.711 151.161L171.12 155.986L175.172 199.583L229.027 197.262L224.711 151.161Z" fill="white"/>
<path d="M175.172 199.583L192.529 215.353L240.666 219.176L250.023 218.763L229.027 197.262L175.172 199.583Z" fill="#EBF3FF"/>
<path d="M163.062 261.128C163.062 261.128 153.985 268.341 153.511 268.588C153.036 268.836 152.376 273.417 152.376 273.417C152.376 273.417 158.507 278.778 160.092 279.446C161.676 280.114 168.15 280.337 169.437 279.793C170.724 279.248 170.675 276.679 170.675 276.679C170.675 276.679 172.403 272.279 173.691 271.19C174.978 270.102 163.062 261.128 163.062 261.128Z" fill="#FFB27D"/>
<path d="M156.63 273.83C156.63 273.83 155.046 268.295 152.624 268.394C150.202 268.493 136.797 273.677 131.112 273.83C125.426 273.982 124.337 271.656 117.216 274.77C110.094 277.883 163.223 293.74 163.916 293.257C164.61 292.775 172.486 278.098 171.43 277.174C170.373 276.25 167.803 279.347 164.902 279.215C162.002 279.083 157.517 276.16 156.63 273.83Z" fill="#F99746"/>
<path d="M191.737 288.676C191.737 288.676 189.171 297.488 188.965 297.872C188.758 298.255 190.442 301.53 190.442 301.53C190.442 301.53 196.866 302.198 198.198 301.909C199.531 301.62 203.826 298.804 204.412 297.864C204.998 296.923 203.789 295.282 203.789 295.282C203.789 295.282 202.898 291.641 203.232 290.333C203.566 289.026 191.737 288.676 191.737 288.676Z" fill="#FFB27D"/>
<path d="M193.379 299.86C193.379 299.86 189.823 296.998 188.296 298.169C186.77 299.34 177.218 301.286 173.6 303.983C169.981 306.68 168.215 305.67 165.034 310.944C161.853 316.219 206.768 309.753 206.99 309.118C207.213 308.483 205.608 295.381 204.515 295.266C203.422 295.15 203.162 298.33 201.214 299.571C199.267 300.812 195.021 300.965 193.379 299.86Z" fill="#F99746"/>
<path d="M266.89 239.601C266.89 239.601 220.622 199.088 204.201 202.668C187.78 206.248 172.552 259.248 162.464 260.431C162.464 260.431 173.872 273.875 175.667 273.153C177.462 272.432 208.571 228.615 210.023 223.72C210.006 223.72 231.589 261.301 266.89 239.601Z" fill="#213F7A"/>
<path d="M215.948 224.896C215.948 224.896 195.731 206.924 191.7 251.771C191.7 251.771 215.725 229.993 215.948 224.896Z" fill="#233862"/>
<path d="M226.46 240.62C226.46 240.62 219.764 221.217 210.006 223.712C200.249 226.207 192.071 240.059 190.751 259.697C189.431 279.335 188.181 290.478 189.167 291.269C190.153 292.061 203.195 293.839 206.574 291.269C209.953 288.7 212.115 244.22 217.062 242.835C217.062 242.835 225.157 242.187 226.46 240.62Z" fill="#213F7A"/>
<path d="M264.307 167.537C264.307 167.537 258.766 178.568 252.173 179.368C252.173 179.368 245.877 175.38 245.844 173.896C245.823 172.902 245.708 169.141 245.489 166.51V166.328C245.466 165.509 245.335 164.697 245.101 163.912C244.606 163.054 257.231 155.87 257.231 155.87L261.382 152.674L261.848 152.316L261.906 152.447L262.706 154.324C262.706 154.324 262.653 154.782 262.591 155.528C262.558 155.94 262.521 156.456 262.488 157.033C262.298 160.369 262.343 165.784 264.307 167.537Z" fill="#FFB27D"/>
<path d="M262.69 154.324C262.69 154.324 262.636 154.782 262.574 155.528C262.143 155.364 261.77 155.078 261.501 154.703C261.501 154.703 260.713 161.095 258.073 164.984C255.903 168.184 248.146 166.877 245.472 166.312C245.449 165.493 245.319 164.68 245.085 163.895C244.59 163.038 257.215 155.854 257.215 155.854L261.365 152.658L261.831 152.299L261.889 152.431L262.69 154.324Z" fill="#E2915A"/>
<path d="M238.293 141.239C238.101 142.327 238.018 143.433 238.046 144.538C238.161 149.486 239.036 164.122 245.283 164.943C252.8 165.928 258.337 164.943 259.789 158.811C261.241 152.678 263.152 144.971 262.954 142.93C262.756 140.888 256.765 134.558 253.79 134.03C250.815 133.502 241.656 133.568 240.27 135.02C239.341 135.985 238.648 139.218 238.293 141.239Z" fill="#FFB27D"/>
<path d="M262.747 145.383C262.747 145.383 260.185 146.501 260.359 151.095C260.359 151.095 259.591 152.056 259.368 151.441C259.146 150.827 260.053 142.064 254.512 140.616C254.512 140.616 253.625 137.123 254.314 136.133C254.314 136.133 246.929 133.168 243.896 138.01C243.896 138.01 238.689 134.121 239.874 131.412C241.058 128.702 248.95 123.931 253.295 124.789C257.64 125.646 263.779 128.974 264.571 132.599C265.363 136.224 267.047 141.73 265.718 145.515C265.032 147.541 264.174 149.505 263.152 151.384L262.747 145.383Z" fill="#2C3A64"/>
<path d="M262.013 146.596C262.013 146.596 263.102 144.027 264.583 144.666C266.065 145.305 267.208 147.585 266.762 148.621C266.316 149.656 264.439 157.173 260.878 153.157C260.878 153.169 261.369 147.585 262.013 146.596Z" fill="#FFB27D"/>
<path d="M270.739 171.335C270.739 171.335 267.026 181.645 267.307 182.63C267.307 182.63 253.951 180.061 253.559 180.849C253.559 180.849 267.307 183.323 267.703 183.818C268.099 184.313 270.739 171.335 270.739 171.335Z" fill="#ED7D2B"/>
<path d="M241.227 173.335L237.138 180.75H249.602L238.483 180.061L241.227 173.335Z" fill="#ED7D2B"/>
<path d="M240.843 134.995C240.843 134.995 238.132 139.989 238.198 141.866C238.198 141.866 237.142 134.719 239.812 133.053C242.481 131.387 240.843 134.995 240.843 134.995Z" fill="#2C3A64"/>
<path d="M274.222 187.921C274.222 187.921 271.746 197.101 272.633 198.536L274.222 187.921Z" fill="#231F20"/>
<path d="M216.36 225.073C216.36 225.073 225.809 231.428 226.46 240.62C226.46 240.62 222.797 229.172 216.36 225.073Z" fill="#231F20"/>
</svg>
