<svg width="739" height="626" viewBox="0 0 739 626" fill="none" xmlns="http://www.w3.org/2000/svg">
<g opacity="0.5" filter="url(#filter0_d)">
<path d="M152.943 168.415C205.028 60.4573 79.9172 -21.3711 14 -42C-34.5851 -57.2048 391.844 -49.9958 619.45 -45.1536C699.675 -43.4468 767.433 14.0026 779.159 93.3846C803.886 260.777 831.554 528.239 763 565.178C662.186 619.501 679.634 609.186 542.63 614C405.626 618.813 283.485 587.182 187.84 522.545C138.054 488.899 106.828 439.229 88.3309 399.334C69.6179 358.975 78.1343 312.964 99.2713 273.82C113.682 247.132 131.996 211.833 152.943 168.415Z" fill="url(#paint0_linear)"/>
</g>
<defs>
<filter id="filter0_d" x="0.177567" y="-60.1684" width="816.013" height="685.646" filterUnits="userSpaceOnUse" color-interpolation-filters="sRGB">
<feFlood flood-opacity="0" result="BackgroundImageFix"/>
<feColorMatrix in="SourceAlpha" type="matrix" values="0 0 0 0 0 0 0 0 0 0 0 0 0 0 0 0 0 0 127 0"/>
<feOffset dy="1"/>
<feGaussianBlur stdDeviation="5"/>
<feColorMatrix type="matrix" values="0 0 0 0 0 0 0 0 0 0 0 0 0 0 0 0 0 0 0.11 0"/>
<feBlend mode="normal" in2="BackgroundImageFix" result="effect1_dropShadow"/>
<feBlend mode="normal" in="SourceGraphic" in2="effect1_dropShadow" result="shape"/>
</filter>
<linearGradient id="paint0_linear" x1="388.5" y1="-42" x2="388.5" y2="614" gradientUnits="userSpaceOnUse">
<stop stop-color="#DA96A9"/>
<stop offset="1" stop-color="#FFD6D5"/>
</linearGradient>
</defs>
</svg>
