<svg width="649" height="477" viewBox="0 0 649 477" fill="none" xmlns="http://www.w3.org/2000/svg">
<g filter="url(#filter0_d)">
<path d="M167.346 223.615L163.489 225.217C162.402 223.232 160.83 221.553 158.92 220.338L160.416 216.713C160.463 216.591 160.46 216.455 160.41 216.334C160.359 216.213 160.264 216.116 160.144 216.063L157.42 214.942C157.297 214.895 157.161 214.897 157.04 214.948C156.919 214.998 156.822 215.093 156.769 215.213L155.319 218.73C153.064 218.095 150.681 218.064 148.41 218.638L146.991 215.229C146.937 215.11 146.84 215.016 146.719 214.966C146.598 214.917 146.462 214.915 146.34 214.962L143.636 216.099C143.518 216.153 143.425 216.249 143.376 216.369C143.326 216.489 143.324 216.623 143.37 216.744L144.788 220.154C142.778 221.36 141.121 223.075 139.984 225.125L136.465 223.681C136.344 223.636 136.21 223.638 136.09 223.687C135.97 223.737 135.874 223.83 135.82 223.947L134.693 226.676C134.648 226.798 134.651 226.933 134.701 227.052C134.751 227.172 134.846 227.268 134.964 227.321L138.591 228.816C138.112 231.021 138.2 233.311 138.847 235.472L134.985 237.08C134.866 237.133 134.772 237.231 134.722 237.352C134.673 237.473 134.671 237.608 134.718 237.73L135.85 240.453C135.904 240.572 136.002 240.666 136.123 240.716C136.244 240.765 136.379 240.767 136.501 240.72L140.517 239.045C141.701 240.841 143.302 242.323 145.183 243.367L143.431 247.616C143.384 247.738 143.387 247.874 143.437 247.995C143.488 248.116 143.583 248.213 143.703 248.266L146.428 249.387C146.549 249.434 146.685 249.433 146.806 249.383C146.927 249.334 147.024 249.24 147.078 249.121L148.871 244.759C150.9 245.202 153.004 245.167 155.017 244.657L156.871 249.101C156.925 249.218 157.022 249.311 157.142 249.361C157.261 249.41 157.396 249.412 157.517 249.367L160.242 248.23C160.36 248.176 160.453 248.08 160.502 247.96C160.551 247.84 160.554 247.706 160.508 247.585L158.628 243.136C160.404 242.069 161.907 240.604 163.018 238.856L167.382 240.653C167.504 240.698 167.638 240.695 167.758 240.645C167.878 240.594 167.974 240.5 168.027 240.382L169.154 237.653C169.199 237.531 169.196 237.397 169.146 237.277C169.096 237.157 169.001 237.061 168.883 237.008L164.631 235.257C165.213 233.187 165.287 231.008 164.847 228.903L168.862 227.229C168.98 227.175 169.073 227.079 169.122 226.959C169.172 226.839 169.174 226.705 169.129 226.584L167.997 223.86C167.939 223.745 167.84 223.656 167.719 223.61C167.599 223.565 167.466 223.566 167.346 223.615ZM153.563 236.132C152.692 236.497 151.732 236.595 150.805 236.414C149.878 236.234 149.026 235.782 148.356 235.117C147.685 234.452 147.228 233.604 147.04 232.678C146.853 231.753 146.944 230.794 147.302 229.92C147.661 229.047 148.27 228.3 149.053 227.773C149.837 227.245 150.759 226.963 151.703 226.959C152.648 226.956 153.572 227.233 154.358 227.755C155.145 228.277 155.76 229.021 156.124 229.891C156.366 230.469 156.492 231.089 156.494 231.716C156.497 232.342 156.375 232.963 156.138 233.543C155.9 234.122 155.55 234.649 155.108 235.094C154.666 235.538 154.141 235.891 153.563 236.132Z" fill="#CE8196"/>
<path d="M209.711 214.937L202.028 215.684C201.192 211.576 199.326 207.748 196.603 204.559L201.213 198.953C201.368 198.766 201.442 198.524 201.419 198.282C201.396 198.041 201.278 197.818 201.09 197.663L196.87 194.192C196.682 194.037 196.441 193.963 196.199 193.986C195.957 194.009 195.734 194.127 195.579 194.315L191.097 199.757C187.449 197.405 183.247 196.053 178.912 195.835L178.251 189.031C178.24 188.909 178.204 188.79 178.146 188.683C178.088 188.575 178.009 188.479 177.913 188.402C177.818 188.326 177.708 188.269 177.59 188.235C177.472 188.201 177.348 188.192 177.227 188.207L171.787 188.719C171.545 188.742 171.323 188.86 171.168 189.047C171.013 189.235 170.939 189.475 170.962 189.717L171.608 196.547C167.394 197.591 163.53 199.724 160.401 202.731L154.956 198.252C154.863 198.175 154.755 198.118 154.64 198.083C154.525 198.048 154.404 198.036 154.284 198.048C154.164 198.06 154.048 198.096 153.941 198.152C153.835 198.209 153.741 198.286 153.665 198.38L150.192 202.598C150.037 202.786 149.963 203.027 149.986 203.269C150.009 203.511 150.128 203.734 150.315 203.888L155.949 208.496C153.891 212.147 152.795 216.26 152.764 220.451L145.055 221.193C144.933 221.206 144.815 221.242 144.708 221.301C144.601 221.359 144.506 221.438 144.429 221.534C144.353 221.629 144.296 221.738 144.262 221.855C144.227 221.973 144.217 222.096 144.23 222.217L144.742 227.654C144.753 227.776 144.788 227.895 144.846 228.004C144.904 228.112 144.983 228.207 145.079 228.284C145.175 228.361 145.285 228.418 145.403 228.452C145.521 228.485 145.645 228.494 145.767 228.478L153.783 227.705C154.905 231.526 156.932 235.019 159.694 237.888L154.28 244.462C154.125 244.65 154.051 244.891 154.074 245.133C154.097 245.375 154.215 245.597 154.403 245.752L158.623 249.223C158.811 249.378 159.052 249.452 159.294 249.429C159.536 249.406 159.759 249.288 159.914 249.101L165.466 242.358C168.81 244.243 172.547 245.325 176.381 245.517L177.242 254.384C177.253 254.504 177.287 254.621 177.344 254.727C177.4 254.833 177.477 254.928 177.569 255.004C177.662 255.081 177.769 255.139 177.885 255.174C178 255.209 178.121 255.22 178.241 255.208L183.68 254.696C183.8 254.686 183.917 254.651 184.023 254.595C184.13 254.539 184.224 254.462 184.301 254.369C184.378 254.276 184.435 254.169 184.47 254.054C184.505 253.939 184.517 253.818 184.505 253.698L183.65 244.826C187.374 243.905 190.833 242.13 193.75 239.639L200.491 245.153C200.584 245.23 200.691 245.288 200.807 245.323C200.922 245.359 201.043 245.371 201.163 245.359C201.283 245.347 201.4 245.311 201.506 245.254C201.612 245.197 201.706 245.119 201.782 245.025L205.26 240.812C205.336 240.719 205.393 240.611 205.428 240.496C205.463 240.381 205.475 240.26 205.463 240.14C205.451 240.02 205.416 239.904 205.359 239.798C205.302 239.692 205.225 239.598 205.132 239.522L198.555 234.105C200.714 230.758 202.034 226.94 202.402 222.975L210.418 222.202C210.54 222.19 210.658 222.154 210.766 222.096C210.874 222.038 210.97 221.959 211.046 221.864C211.123 221.768 211.18 221.658 211.214 221.541C211.248 221.423 211.257 221.299 211.242 221.178L210.73 215.741C210.699 215.5 210.575 215.281 210.385 215.131C210.194 214.98 209.952 214.911 209.711 214.937ZM178.466 229.6C176.727 229.768 174.977 229.416 173.437 228.59C171.897 227.764 170.637 226.5 169.816 224.958C168.995 223.416 168.65 221.666 168.824 219.928C168.999 218.19 169.685 216.542 170.796 215.194C171.907 213.846 173.393 212.857 175.066 212.353C176.739 211.849 178.525 211.852 180.196 212.362C181.867 212.873 183.35 213.866 184.456 215.219C185.562 216.571 186.242 218.221 186.41 219.959C186.523 221.114 186.406 222.279 186.068 223.389C185.729 224.498 185.175 225.53 184.437 226.425C183.7 227.321 182.793 228.062 181.768 228.607C180.743 229.151 179.621 229.489 178.466 229.6Z" fill="#CE8196"/>
<path d="M410.957 368.523L389.424 352.406L346.055 366.112L345.436 364.156L389.808 350.138L410.717 365.784L516.785 252.761L544.772 296.499L573.107 189.246L585.523 284.227L603.276 253.949L619.754 276.839L618.094 278.037L603.45 257.702L584.268 290.422L572.426 199.844L545.56 301.532L516.477 256.084L410.957 368.523Z" fill="#CE8196"/>
<path d="M572.769 200.484C576.05 200.484 578.711 197.825 578.711 194.545C578.711 191.265 576.05 188.606 572.769 188.606C569.488 188.606 566.827 191.265 566.827 194.545C566.827 197.825 569.488 200.484 572.769 200.484Z" fill="#CE8196"/>
<path d="M516.631 260.364C519.912 260.364 522.573 257.705 522.573 254.425C522.573 251.145 519.912 248.486 516.631 248.486C513.349 248.486 510.689 251.145 510.689 254.425C510.689 257.705 513.349 260.364 516.631 260.364Z" fill="#CE8196"/>
<path d="M410.84 372.445C414.121 372.445 416.781 369.786 416.781 366.506C416.781 363.226 414.121 360.567 410.84 360.567C407.558 360.567 404.898 363.226 404.898 366.506C404.898 369.786 407.558 372.445 410.84 372.445Z" fill="#CE8196"/>
<path d="M388.584 357.208C391.866 357.208 394.526 354.549 394.526 351.27C394.526 347.99 391.866 345.331 388.584 345.331C385.303 345.331 382.642 347.99 382.642 351.27C382.642 354.549 385.303 357.208 388.584 357.208Z" fill="#CE8196"/>
<path d="M603.363 261.762C606.645 261.762 609.305 259.103 609.305 255.823C609.305 252.543 606.645 249.884 603.363 249.884C600.082 249.884 597.422 252.543 597.422 255.823C597.422 259.103 600.082 261.762 603.363 261.762Z" fill="#CE8196"/>
<path d="M105 280.141H94.633V371.861H105V280.141Z" fill="#CE8196"/>
<path d="M122.108 316.671H111.741V371.861H122.108V316.671Z" fill="#CE8196"/>
<path d="M139.221 293.872H128.854V371.861H139.221V293.872Z" fill="#CE8196"/>
<path d="M156.328 329.629H145.961V371.861H156.328V329.629Z" fill="#CE8196"/>
<path d="M173.436 314.08H163.069V371.861H173.436V314.08Z" fill="#CE8196"/>
<path d="M190.544 350.742H180.177V371.861H190.544V350.742Z" fill="#CE8196"/>
<path d="M207.652 302.683H197.285V371.861H207.652V302.683Z" fill="#CE8196"/>
<path d="M433.08 169.499H274.602C264.88 169.499 256.998 177.377 256.998 187.096V272.595C256.998 282.313 264.88 290.191 274.602 290.191H433.08C442.802 290.191 450.684 282.313 450.684 272.595V187.096C450.684 177.377 442.802 169.499 433.08 169.499Z" fill="#CE8196"/>
<path d="M425.837 174.015H281.845C272.122 174.015 264.24 181.893 264.24 191.611V268.084C264.24 277.803 272.122 285.681 281.845 285.681H425.837C435.56 285.681 443.442 277.803 443.442 268.084V191.611C443.442 181.893 435.56 174.015 425.837 174.015Z" fill="#F3C0CE"/>
<path d="M293.984 194.908H288.78V240.96H293.984V194.908Z" fill="#CE8196"/>
<path d="M302.574 213.252H297.37V240.96H302.574V213.252Z" fill="#CE8196"/>
<path d="M311.164 201.805H305.96V240.96H311.164V201.805Z" fill="#CE8196"/>
<path d="M319.754 219.754H314.55V240.96H319.754V219.754Z" fill="#CE8196"/>
<path d="M328.343 211.952H323.139V240.96H328.343V211.952Z" fill="#CE8196"/>
<path d="M336.933 230.357H331.729V240.96H336.933V230.357Z" fill="#CE8196"/>
<path d="M345.523 206.228H340.319V240.96H345.523V206.228Z" fill="#CE8196"/>
<path d="M416.064 227.961C414.58 232.56 411.766 236.616 407.976 239.616C404.186 242.616 399.592 244.426 394.773 244.816C389.954 245.206 385.128 244.159 380.905 241.807C376.682 239.455 373.251 235.905 371.047 231.604C368.843 227.303 367.964 222.446 368.521 217.646C369.079 212.846 371.048 208.319 374.18 204.638C377.311 200.957 381.465 198.286 386.115 196.965C390.765 195.643 395.702 195.729 400.303 197.212L392.21 222.299L415.004 210.626L415.122 210.503C417.59 216.005 417.925 222.226 416.064 227.961Z" fill="#CE8196"/>
<path d="M418.902 206.141L418.784 206.264L395.991 217.937L404.083 192.85C407.35 193.899 410.358 195.625 412.911 197.916C415.464 200.206 417.506 203.009 418.902 206.141Z" fill="#CE8196"/>
<path d="M375.415 253.836H288.78C288.351 253.836 287.939 253.666 287.636 253.362C287.332 253.059 287.162 252.648 287.162 252.218C287.162 251.789 287.332 251.378 287.636 251.074C287.939 250.771 288.351 250.601 288.78 250.601H375.415C375.845 250.601 376.256 250.771 376.56 251.074C376.863 251.378 377.034 251.789 377.034 252.218C377.034 252.648 376.863 253.059 376.56 253.362C376.256 253.666 375.845 253.836 375.415 253.836Z" fill="#CE8196"/>
<path d="M417.252 260.543H288.412C288.265 260.566 288.116 260.558 287.973 260.518C287.83 260.478 287.698 260.407 287.585 260.311C287.473 260.215 287.382 260.095 287.32 259.961C287.258 259.826 287.226 259.68 287.226 259.532C287.226 259.384 287.258 259.238 287.32 259.103C287.382 258.969 287.473 258.849 287.585 258.753C287.698 258.657 287.83 258.586 287.973 258.546C288.116 258.506 288.265 258.497 288.412 258.521H417.252C417.399 258.497 417.548 258.506 417.691 258.546C417.834 258.586 417.966 258.657 418.079 258.753C418.191 258.849 418.282 258.969 418.344 259.103C418.406 259.238 418.438 259.384 418.438 259.532C418.438 259.68 418.406 259.826 418.344 259.961C418.282 260.095 418.191 260.215 418.079 260.311C417.966 260.407 417.834 260.478 417.691 260.518C417.548 260.558 417.399 260.566 417.252 260.543Z" fill="#CE8196"/>
<path d="M417.252 267.854H288.412C288.265 267.877 288.116 267.869 287.973 267.829C287.83 267.789 287.698 267.718 287.585 267.622C287.473 267.526 287.382 267.406 287.32 267.272C287.258 267.137 287.226 266.991 287.226 266.843C287.226 266.695 287.258 266.548 287.32 266.414C287.382 266.279 287.473 266.16 287.585 266.064C287.698 265.968 287.83 265.897 287.973 265.857C288.116 265.817 288.265 265.808 288.412 265.832H417.252C417.399 265.808 417.548 265.817 417.691 265.857C417.834 265.897 417.966 265.968 418.079 266.064C418.191 266.16 418.282 266.279 418.344 266.414C418.406 266.548 418.438 266.695 418.438 266.843C418.438 266.991 418.406 267.137 418.344 267.272C418.282 267.406 418.191 267.526 418.079 267.622C417.966 267.718 417.834 267.789 417.691 267.829C417.548 267.869 417.399 267.877 417.252 267.854Z" fill="#CE8196"/>
<path d="M571.12 333.755C571.12 333.755 561.936 328.814 572.2 323.121C572.2 323.121 571.35 328.994 572.2 329.506C573.051 330.018 573.307 322.63 573.302 322.492C573.297 322.353 580.867 319.456 581.548 319.727C582.229 319.998 577.855 326.383 579.074 325.804C580.293 325.226 583.11 319.031 583.11 319.031C583.11 319.031 589.062 318.237 590.281 320.147C591.5 322.056 592.479 325.722 590.281 327.314C588.084 328.907 582.977 327.345 583.418 328.338C583.858 329.332 588.873 330.064 589.646 329.613C589.646 329.613 586.522 336.617 582.562 334.927C578.885 333.361 576.334 333.264 576.18 333.566C576.027 333.868 582.737 334.876 583.11 337.242C583.484 339.607 571.893 338.265 572.001 336.11C572.108 333.955 571.12 333.755 571.12 333.755Z" fill="#DA96A9"/>
<path d="M571.058 348.802C570.321 347.829 567.985 344.297 568.845 339.735C569.315 337.406 570.5 335.281 572.236 333.658L572.83 334.298C571.231 335.794 570.138 337.752 569.706 339.899C568.897 344.107 571.074 347.373 571.755 348.275L571.058 348.802Z" fill="#DA96A9"/>
<path d="M565.47 333.243C565.47 333.243 572.129 329.659 564.686 325.563C564.686 325.563 565.301 329.818 564.686 330.171C564.072 330.524 563.887 325.19 563.892 325.087C563.897 324.985 558.407 322.886 557.915 323.086C557.423 323.285 560.614 327.099 559.713 327.483C558.811 327.867 555.851 322.814 555.851 322.814C555.851 322.814 552.475 322.005 551.589 323.388C550.703 324.77 549.991 327.427 551.589 328.579C553.187 329.731 556.88 328.579 556.558 329.332C556.235 330.084 552.608 330.581 552.045 330.258C552.045 330.258 554.519 335.736 557.167 334.108C559.815 332.48 562.371 332.624 562.371 332.874C562.371 333.125 557.044 334.072 556.773 335.782C556.501 337.492 564.896 336.509 564.819 334.963C564.743 333.417 565.47 333.243 565.47 333.243Z" fill="#DA96A9"/>
<path d="M565.516 344.168C566.217 343.24 566.721 342.179 566.996 341.05C567.272 339.92 567.314 338.746 567.119 337.6C566.777 335.914 565.92 334.375 564.666 333.197L564.23 333.663C565.391 334.746 566.183 336.166 566.494 337.723C566.674 338.781 566.635 339.865 566.379 340.907C566.124 341.95 565.657 342.929 565.009 343.785L565.516 344.168Z" fill="#DA96A9"/>
<path d="M570.438 322.958C570.438 322.958 558.11 316.302 571.893 308.679C571.893 308.679 570.756 316.563 571.893 317.254C573.03 317.945 573.378 308.039 573.368 307.834C573.358 307.629 583.53 303.738 584.447 304.122C585.364 304.506 579.448 311.561 581.118 312.283C582.788 313.005 588.289 303.62 588.289 303.62C588.289 303.62 594.548 302.12 596.192 304.68C597.836 307.24 599.148 312.17 596.192 314.305C593.237 316.44 586.383 314.346 586.972 315.708C587.561 317.07 594.297 318.022 595.337 317.418C595.337 317.418 590.752 327.581 585.825 324.555C580.898 321.529 575.776 322.046 576.18 322.271C576.585 322.497 586.937 324.862 587.449 328.036C587.961 331.211 571.504 329.009 571.652 326.142C571.801 323.275 570.438 322.958 570.438 322.958Z" fill="#C16C84"/>
<path d="M570.362 343.201C569.368 341.89 566.213 337.149 567.391 331.021C568.02 327.895 569.61 325.044 571.939 322.865L572.743 323.72C570.593 325.73 569.124 328.361 568.543 331.246C567.457 336.878 570.377 341.281 571.299 342.51L570.362 343.201Z" fill="#C16C84"/>
<path d="M568.943 353.143C572.846 353.143 576.589 351.594 579.348 348.835C582.108 346.077 583.658 342.335 583.658 338.434H554.227C554.227 342.335 555.777 346.077 558.537 348.835C561.297 351.594 565.04 353.143 568.943 353.143Z" fill="#E7ABBB"/>
<path d="M581.487 353.143H556.404C556.07 353.143 555.799 353.414 555.799 353.747V353.922C555.799 354.255 556.07 354.526 556.404 354.526H581.487C581.821 354.526 582.091 354.255 582.091 353.922V353.747C582.091 353.414 581.821 353.143 581.487 353.143Z" fill="#C16C84"/>
<path d="M434.698 271.607C434.698 271.607 435.277 269.523 440.548 270.813C445.818 272.103 458.081 277.868 462.276 276.547C466.471 275.226 452.236 297.513 452.236 297.513L434.698 300.927L421.432 293.309L424.505 279.322L434.698 271.607Z" fill="#CE8196"/>
<path d="M372.424 278.385C372.424 278.385 373.044 271.776 375.431 271.612C377.818 271.448 396.585 275.974 398.562 277.535C400.539 279.097 398.152 289.659 396.836 290.847C395.519 292.035 385.398 299.837 385.398 299.837L368.132 294.579L367.881 288.353L369.52 281.897L372.424 278.385Z" fill="#CE8196"/>
<path d="M483.655 368.293L328.179 334.559L329.086 308.883L334.766 305.018L360.833 299.837L408.96 306.088L479.814 318.703H493.423V354.485L490.549 361.273L488.372 363.905L483.655 368.293Z" fill="#CE8196"/>
<path d="M326.469 284.693L354.302 282.558L356.884 286.782L357.539 293.908L345.139 299.12L338.275 297.313L327.083 298.025L326.259 289.797L326.469 284.693Z" fill="#CE8196"/>
<path d="M333.778 292.388C333.778 292.388 320.563 296.996 320.399 298.557C320.235 300.119 320.978 305.018 333.24 308.064L337.399 294.528L333.778 292.388Z" fill="#CE8196"/>
<path d="M328.179 334.559L324.804 334.047L324.568 286.408C324.567 286.182 324.61 285.957 324.696 285.748C324.782 285.538 324.908 285.348 325.067 285.187C325.226 285.026 325.416 284.898 325.625 284.811C325.834 284.723 326.058 284.678 326.284 284.677H327.211C327.666 284.677 328.102 284.857 328.425 285.178C328.747 285.498 328.93 285.933 328.932 286.387L329.086 308.868L328.179 334.559Z" fill="#CE8196"/>
<path d="M509.609 277.438C509.609 277.438 529.001 278.263 531.326 275.462C533.652 272.662 535.132 281.882 534.799 284.677C534.466 287.473 532.678 296.663 530.445 297.989C528.212 299.315 507.816 299.837 507.816 299.837L507.247 291.333L509.609 277.438Z" fill="#CE8196"/>
<path d="M498.468 266.037C498.468 266.037 504.399 265.525 505.767 266.595C507.135 267.665 517.077 276.798 516.523 280.418C515.97 284.038 510.71 290.022 510.71 290.022L504.999 289.633L500.942 285.297L498.893 274.546L498.468 266.037Z" fill="#CE8196"/>
<path d="M372.557 316.896C372.557 316.896 367.66 331.052 367.281 336.832C366.902 342.612 362.159 324.683 362.159 324.683L363.476 314.894L365.284 308.238L371.292 309.191L372.557 316.896Z" fill="#C16C84"/>
<path d="M436.834 270.516C436.834 270.516 439.641 275.068 435.441 282.476C431.241 289.884 432.726 279.21 432.726 279.21L433.407 274.904L436.834 270.516Z" fill="#C16C84"/>
<path d="M392.6 278.319C392.6 278.319 400.037 279.302 396.518 283.802L401.528 282.061L401.277 278.319L397.461 276.629L392.6 278.319Z" fill="#C16C84"/>
<path d="M506.541 269.871C506.541 269.871 518.634 277.469 515.248 294.907C511.862 312.344 512.856 296.571 512.856 296.571L508.466 294.011V283.976L506.541 269.871Z" fill="#C16C84"/>
<path d="M349.436 309.15C349.436 309.15 348.668 332.419 347.121 334.559C345.574 336.699 342.721 304.445 342.721 304.445L344.534 303.078L349.436 309.15Z" fill="#C16C84"/>
<path d="M320.409 299.345C320.409 299.345 327.15 302.417 329.911 301.905C329.911 301.89 323.544 301.736 320.409 299.345Z" fill="#231F20"/>
<path d="M326.827 284.693C326.827 284.693 328.261 285.558 328.364 286.997C328.466 288.435 328.569 292.388 328.569 292.388C328.569 292.388 328.845 285.599 326.827 284.693Z" fill="#231F20"/>
<path d="M331.258 307.527C331.258 307.527 326.202 310.332 326.038 311.392C325.874 312.452 325.27 319.307 325.818 320.188C325.818 320.188 325.874 311.812 326.479 311.392C327.083 310.972 330.331 308.156 331.258 307.527Z" fill="#231F20"/>
<path d="M326.827 321.888C326.827 321.888 329.496 323.751 329.772 323.751C330.049 323.751 391.673 335.05 392.661 334.062" fill="#231F20"/>
<path d="M373.361 282.921C373.361 282.921 391.673 290.601 392.277 290.565C392.277 290.565 377.92 287.089 373.361 282.921Z" fill="#231F20"/>
<path d="M433.955 279.343C433.955 279.343 448.2 283.27 449.629 282.829C449.629 282.829 437.71 281.892 433.955 279.343Z" fill="#231F20"/>
<path d="M395.268 334.124C395.268 334.124 483.04 351.561 486.585 348.971L395.268 334.124Z" fill="#231F20"/>
<path d="M456.595 335.88C456.595 335.88 462.009 328.855 463.407 325.456C463.831 324.585 463.905 323.586 463.615 322.662C463.324 321.739 462.691 320.961 461.845 320.49L457.799 320.029L454.106 329.787L456.595 335.88Z" fill="#C16C84"/>
<path d="M422.021 332.183C422.021 332.183 428.982 323.449 436.834 322.118C444.686 320.787 425.053 317.828 425.053 317.828L418.246 320.679L422.021 332.183Z" fill="#C16C84"/>
<path d="M398.931 253.058C398.931 253.058 402.383 247.59 405.589 247.232C408.796 246.874 407.177 256.637 407.177 256.637L403.633 257.471L399.535 254.4L398.931 253.058Z" fill="#FFB27D"/>
<path d="M405.564 247.232C405.564 247.232 402.526 252.014 404.288 257.328C406.05 262.642 407.08 254.292 407.08 254.292L405.564 247.232Z" fill="#ED7D2B"/>
<path d="M427.179 266.016L413.129 270.813C413.129 270.813 411.869 267.414 412.105 266.154C412.182 265.699 411.644 264.936 410.927 264.142C409.938 263.099 408.882 262.12 407.766 261.214L408.079 260.738L409.139 259.13L415.342 255.838C415.342 255.838 423.737 256.826 423.901 258.802C424.176 260.728 424.579 262.634 425.11 264.506L427.179 266.016Z" fill="#FFB27D"/>
<path d="M413.872 259.217C413.872 259.217 412.617 262.939 410.911 264.142C409.923 263.099 408.867 262.12 407.751 261.214C407.744 261.086 407.744 260.958 407.751 260.83L408.063 260.738L411.869 259.627L413.872 259.217Z" fill="#ED7D2B"/>
<path d="M407.018 243.807C406.972 243.838 406.929 243.874 406.89 243.914C406.455 244.35 406.26 245.24 406.045 245.814C404.429 250.169 403.919 254.857 404.56 259.458C404.601 259.729 404.642 260.006 404.688 260.277C404.711 260.507 404.787 260.73 404.908 260.927C405.082 261.139 405.316 261.294 405.579 261.373C407.36 261.983 409.311 261.869 411.009 261.055C412.691 260.234 414.206 259.108 415.475 257.732C417.378 255.891 418.933 253.721 420.064 251.328C420.352 250.929 420.471 250.433 420.395 249.947C420.32 249.461 420.055 249.024 419.66 248.732C418.456 247.633 417.119 246.691 415.68 245.926C413.472 244.687 411.07 243.623 408.55 243.505C408.02 243.439 407.483 243.545 407.018 243.807Z" fill="#FFB27D"/>
<path d="M413.57 256.616C413.57 256.616 415.982 256.022 416.499 255.198C417.017 254.374 416.32 253.058 416.32 253.058H415.378L413.57 256.616Z" fill="#ED7D2B"/>
<path d="M407.126 242.65C407.126 242.65 406.056 245.527 408.028 245.281C410 245.036 409.262 247.841 409.923 248.491C410.583 249.142 409.262 251.937 409.923 252.643C410.583 253.35 412.514 252.131 412.514 252.131L415.803 252.879C415.803 252.879 415.357 256.166 416.919 257.487C418.482 258.808 423.092 261.931 424.09 261.106C425.089 260.282 434.109 243.699 424.09 238.313C414.072 232.927 403.525 239.629 404.247 240.73C404.97 241.831 407.126 242.65 407.126 242.65Z" fill="#2C3A64"/>
<path d="M413.186 252.643C413.186 252.643 413.518 251.343 414.287 251.399C415.055 251.456 416.592 252.715 415.439 254.635C414.287 256.555 413.298 257.159 412.694 256.171C412.089 255.183 413.186 252.643 413.186 252.643Z" fill="#FFB27D"/>
<path d="M353.042 291.717C353.042 291.717 340.529 284.038 334.93 289.06C329.332 294.082 334.27 325.947 336.687 330.99C339.105 336.033 337.481 348.874 339.294 349.698C341.108 350.522 344.227 349.698 344.56 349.37C344.893 349.043 347.28 339.003 347.121 336.366C346.962 333.729 348.606 310.286 345.968 305.924C345.968 305.924 347.782 309.544 353.052 310.286C358.323 311.029 359.276 297.036 359.276 297.036L353.042 291.717Z" fill="#FFB27D"/>
<path d="M352.658 291.492C352.658 291.492 342.834 302.402 351.633 310.005C360.433 317.607 352.658 291.492 352.658 291.492Z" fill="#ED7D2B"/>
<path d="M353.257 290.401C353.257 290.401 347.797 270.624 348.238 270.102C348.611 269.661 363.87 269.282 368.557 269.175C368.945 269.166 369.325 269.287 369.636 269.519C369.947 269.751 370.171 270.081 370.273 270.455L376.931 295.03L376.67 296.995L368.337 296.279L360.203 293.309L353.257 290.401Z" fill="#F99746"/>
<path d="M368.495 355.457C368.495 355.457 369.238 356.481 369.074 357.183C368.91 357.884 366.574 360.506 366.574 360.506H358.364L355.265 358.749L355.649 357.981L355.731 357.541L356.663 356.937C357.252 356.558 362.19 356.169 362.19 356.169L364.398 355.457H368.495Z" fill="white"/>
<path d="M380 315.012L371.902 316.261H371.85C371.065 316.013 370.313 315.669 369.612 315.237C368.849 314.725 367.655 312.201 367.302 311.428C367.449 311.873 367.552 312.33 367.609 312.795C368.521 319.128 367.164 339.141 366.867 343.129C366.539 347.573 368.516 355.473 368.516 355.473C367.03 359.748 356.658 356.952 356.658 356.952C356.743 356.932 356.824 356.899 356.899 356.855C362.082 354.034 350.624 305.556 350.624 305.556C347.771 300.835 350.624 295.132 353.257 290.412C355.89 285.691 376.501 294.948 376.501 294.948L380 315.012Z" fill="#FFB27D"/>
<path d="M372.193 362.041C372.193 362.041 373.909 364.089 373.535 365.113C373.162 366.137 355.301 371.794 344.729 367.407C344.729 367.407 344.345 365.815 344.729 365.072C345.113 364.33 372.009 362.031 372.009 362.031L372.193 362.041Z" fill="white"/>
<path d="M368.864 356.051C368.974 356.191 369.051 356.355 369.088 356.529C369.125 356.704 369.121 356.884 369.077 357.057C369.033 357.23 368.95 357.39 368.834 357.526C368.718 357.661 368.572 357.768 368.408 357.838C367.143 358.586 360.008 359.953 355.731 357.541C355.731 357.541 342.613 364.453 345.026 365.441C347.438 366.429 369.177 369.061 372.173 362.041C372.193 362.041 371.994 357.034 368.864 356.051Z" fill="#231F20"/>
<path d="M371.85 316.246C371.065 315.997 370.313 315.653 369.612 315.222C368.849 314.71 367.655 312.186 367.302 311.413C367.449 311.857 367.552 312.315 367.609 312.78L367.281 311.377C367.512 311.689 370.401 315.554 372.091 315.846C372.916 316.005 372.516 316.138 371.85 316.246Z" fill="#ED7D2B"/>
<path d="M376.501 294.937C376.501 294.937 379.298 319.338 369.914 315.467C369.914 315.467 381.623 323.367 403.633 321.227C425.642 319.087 419.967 304.69 419.967 304.69L405.477 301.398L379.713 295.05L380.143 295.68C380.143 295.68 376.808 295.818 376.501 294.937Z" fill="#1C468A"/>
<path d="M412.089 266.175C412.089 266.175 415.741 267.363 413.872 269.155C412.002 270.946 411.623 269.441 411.623 269.441L411.761 268.105L412.089 266.175Z" fill="#ED7D2B"/>
<path d="M425.094 264.511C425.094 264.511 432.265 264.373 436.225 269.554C439.585 273.967 428.132 297.451 424.644 304.368C424.349 304.944 423.912 305.434 423.374 305.793C422.836 306.151 422.215 306.366 421.57 306.416L412.535 307.081C412.535 307.081 411.254 300.006 412.535 299.182L400.913 299.694L386.648 296.023L387.447 294.845C387.447 294.845 397.271 283.71 398.588 280.51C399.904 277.31 384.543 279.635 384.21 274.479C383.877 269.323 387.447 268.899 387.447 268.899L392.718 271.202L395.847 269.636C395.847 269.636 409.784 264.839 412.089 266.154C414.394 267.47 413.114 269.226 413.114 269.226C413.114 269.226 416.515 269.006 417.831 267.142C419.148 265.279 425.094 264.511 425.094 264.511Z" fill="#B0D4FF"/>
<path d="M395.642 269.759C395.642 269.759 401.973 257.819 403.658 257.471C405.344 257.123 400.483 253.329 400.483 253.329L398.946 253.043C398.946 253.043 389.127 265.893 387.677 266.139L387.749 268.018L392.933 270.117L395.642 269.759Z" fill="#FFB27D"/>
<path d="M387.667 266.175L387.56 266.287C387.047 266.799 384.999 268.965 385.198 269.467C385.398 269.969 388.051 272.646 389.04 272.81C390.028 272.974 392.718 271.223 392.718 271.223L395.642 269.759C395.642 269.759 388.656 270.076 387.667 266.175Z" fill="#91B8EF"/>
<path d="M384.189 293.821C384.189 293.821 377.326 292.946 377.049 293.519C376.773 294.093 377.106 294.482 377.326 294.507C377.546 294.533 383.155 294.83 384.63 295.019C386.105 295.209 384.189 293.821 384.189 293.821Z" fill="#FFB27D"/>
<path d="M408.96 299.013C408.96 299.013 392.994 297.313 391.673 296.545C390.351 295.777 384.189 293.821 384.189 293.821C384.189 293.821 385.352 297.61 387.119 298.639C388.886 299.668 404.242 306.288 406.015 306.493C407.787 306.697 409.774 308.028 409.774 308.028H410.829L410.496 299.796L408.96 299.013Z" fill="#FFB27D"/>
<path d="M408.96 298.654C408.96 298.654 411.521 307.358 409.375 308.382C409.375 308.382 412.504 310.547 413.324 309.477C414.143 308.407 416.346 299.601 415.024 298.67C413.703 297.738 408.96 298.654 408.96 298.654Z" fill="#91B8EF"/>
<path d="M383.139 294.19C383.139 294.19 378.284 294.19 378.145 294.763C378.007 295.337 379.6 295.419 380.261 295.557C380.921 295.695 385.173 295.746 385.383 295.557C385.593 295.367 383.139 294.19 383.139 294.19Z" fill="#FFB27D"/>
<path d="M380.788 295.05C380.788 295.05 379.528 295.501 380.404 295.885C381.28 296.269 386.797 298.572 387.319 298.245C387.841 297.917 387.129 296.463 386.745 296.325C386.361 296.187 381.551 294.845 380.788 295.05Z" fill="#FFB27D"/>
<path d="M452.923 289.413L443.918 301.588L454.551 304.383L463.786 294.128L464.335 289.413L456.764 288.753L452.923 289.413Z" fill="#FFB27D"/>
<path d="M458.542 292.285C458.542 292.285 459.289 296.622 457.819 298.618L459.971 298.506C460.053 298.506 462.608 294.011 462.608 294.011L462.993 291.896L458.931 291.348L458.542 292.285Z" fill="#ED7D2B"/>
<path d="M444.579 322.323C444.579 322.323 426.58 320.787 424.382 325.727C422.185 330.668 413.846 357.654 413.846 357.654L399.689 351.162C399.689 351.162 406.399 310.092 412.202 309.078C418.005 308.064 433.956 306.109 433.956 306.109L448.528 306.549L454.126 309.472L450.623 316.092L444.579 322.323Z" fill="#F99746"/>
<path d="M448.528 308.986C448.528 308.986 444.005 311.382 443.918 312.314C443.831 313.245 443.016 323.004 443.016 323.004L449.675 320.812L452.236 312.831L450.346 308.116L448.528 308.986Z" fill="#ED7D2B"/>
<path d="M453.389 308.023C453.389 308.023 446.474 311.095 445.813 313.906C445.152 316.717 433.715 351.423 433.961 354.864C434.206 358.304 447.954 359.983 447.954 359.983C447.954 359.983 459.668 329.147 458.987 326.905C458.306 324.662 473.006 318.713 473.006 318.713L476.52 309.088L474.23 304.992L464.391 304.373L453.389 308.023Z" fill="#F99746"/>
<path d="M495.344 264.291C495.344 264.291 518.767 268.934 512.677 294.896C512.677 294.896 506.976 284.365 497.592 292.265L498.104 303.999L451.678 309.759C451.678 309.759 460.242 293.417 461.886 292.864C461.886 292.864 452.154 291.543 452.257 289.572C452.359 287.601 462.854 269.969 465.815 268.735C468.775 267.501 481.294 264.69 481.294 264.69L495.344 264.291Z" fill="#F9DDBF"/>
<path d="M495.338 264.286C489.745 268.786 479.921 268.566 479.921 267.798C479.852 267.199 479.724 266.609 479.537 266.037C479.24 264.987 478.876 263.902 478.876 263.902L480.233 261.521L480.848 260.446L488.019 251.343L489.228 252.055L491.277 257.139C491.277 257.139 495.005 260.615 494.621 261.234C494.237 261.854 495.338 264.286 495.338 264.286Z" fill="#FFB27D"/>
<path d="M479.537 266.037C479.24 264.987 478.876 263.902 478.876 263.902L480.233 261.521C482.282 259.263 486.016 255.664 486.298 258.715C486.692 262.96 479.537 266.037 479.537 266.037Z" fill="#ED7D2B"/>
<path d="M482.246 263.472C481.2 264.101 480.03 264.498 478.817 264.635C477.603 264.771 476.374 264.645 475.214 264.265C473.744 263.784 472.412 263.083 472.515 262.151C472.73 260.103 471.085 247.723 476.791 242.02C477.552 241.227 478.516 240.656 479.577 240.37C480.639 240.084 481.758 240.093 482.815 240.397C487.727 241.585 490.421 246.894 488.757 251.66L485.904 259.852C485.904 259.852 485.463 261.526 482.246 263.472Z" fill="#FFB27D"/>
<path d="M476.136 242.747C476.136 242.747 473.145 240.576 474.215 239.04C475.286 237.504 484.459 231.658 496.547 240.187C508.635 248.717 495.287 263.103 495.287 263.103C495.287 263.103 489.248 259.985 489.745 257.185C490.242 254.384 487.988 250.596 485.904 251.256C483.819 251.916 482.938 254.272 482.006 253.304C481.073 252.336 480.915 243.31 482.994 242.332C482.994 242.291 477.596 243.474 476.136 242.747Z" fill="#2C3A64"/>
<path d="M511.176 305.673L474.594 308.059C474.594 308.059 474.118 307.665 473.421 307.061C471.249 305.192 466.926 301.317 468.176 301.148C469.82 300.933 472.018 302.356 473.775 302.248C475.531 302.141 495.395 299.832 496.931 299.397C497.285 299.294 497.515 298.859 497.654 298.245C497.652 298.236 497.652 298.228 497.654 298.219V298.153C497.661 298.104 497.671 298.056 497.684 298.009C497.725 297.763 497.756 297.497 497.782 297.216C497.851 295.569 497.781 293.92 497.572 292.285C498.666 291.339 499.911 290.581 501.255 290.043C506.233 288.108 510.607 290.652 513.112 292.736C513.307 296.678 511.176 305.673 511.176 305.673Z" fill="#FFB27D"/>
<path d="M501.275 290.022C499.257 291.451 497.971 296.821 497.69 298.009C497.731 297.763 497.761 297.497 497.787 297.216C497.855 295.569 497.783 293.92 497.572 292.285C498.671 291.33 499.923 290.565 501.275 290.022Z" fill="#ED7D2B"/>
<path d="M468.97 301.869L467.546 303.646V305.597L472.52 304.675L471.249 302.76L468.97 301.869Z" fill="#FFB27D"/>
<path d="M433.956 358.529L429.581 370.238L439.405 374.411C439.405 374.411 444.527 362.205 444.087 361.161C443.646 360.116 433.956 358.529 433.956 358.529Z" fill="#FFB27D"/>
<path d="M441.669 378.332C441.669 378.332 442.345 380.892 441.577 381.696C440.809 382.5 422.226 380.001 414.517 371.544C414.517 371.544 414.84 369.941 415.511 369.434C416.182 368.927 441.505 378.256 441.505 378.256L441.669 378.332Z" fill="white"/>
<path d="M440.624 371.431C440.538 371.822 440.326 372.173 440.021 372.432C439.715 372.691 439.334 372.843 438.934 372.865C437.474 373.008 433.3 371.922 430.447 367.924C430.447 367.924 413.862 367.965 415.629 369.885C417.396 371.805 435.953 383.406 441.669 378.332C441.669 378.332 443.037 373.653 440.624 371.431Z" fill="#231F20"/>
<path d="M486.585 257.067C486.585 257.067 488.772 258.27 489.725 253.242H488.188L486.585 257.067Z" fill="#ED7D2B"/>
<path d="M486.139 252.044C486.481 251.431 486.936 250.889 487.481 250.447C487.653 250.29 487.863 250.182 488.091 250.135C488.372 250.128 488.647 250.219 488.869 250.391C489.217 250.618 489.528 250.898 489.791 251.22C489.984 251.423 490.11 251.68 490.15 251.957C490.151 252.177 490.102 252.394 490.006 252.592C489.587 253.643 489.038 254.637 488.372 255.551C487.984 256.142 487.456 256.629 486.836 256.97C486.641 257.089 486.417 257.152 486.188 257.152C485.959 257.152 485.735 257.089 485.54 256.97C485.391 256.807 485.28 256.613 485.215 256.403C485.15 256.192 485.134 255.969 485.166 255.751C485.181 254.454 485.515 253.181 486.139 252.044Z" fill="#FFB27D"/>
<path d="M401.978 354.485L399.13 364.212L409.667 366.598C409.667 366.598 412.74 359.282 412.187 357.966C411.633 356.65 401.978 354.485 401.978 354.485Z" fill="#FFB27D"/>
<path d="M412.581 370.576C412.581 370.576 413.564 373.069 412.888 373.929C412.212 374.789 393.476 374.544 384.819 367.054C384.819 367.054 384.953 365.426 385.557 364.842C386.161 364.258 412.412 370.52 412.412 370.52L412.581 370.576Z" fill="white"/>
<path d="M410.732 363.849C410.624 364.247 410.407 364.607 410.106 364.89C409.805 365.172 409.431 365.364 409.026 365.446C407.592 365.758 403.197 365.246 399.889 361.611C399.889 361.611 383.744 363.577 385.726 365.272C387.708 366.967 407.51 376.295 412.581 370.576C412.581 370.576 413.39 365.769 410.732 363.849Z" fill="#231F20"/>
<path d="M467.956 301.398C467.956 301.398 462.834 302.755 462.608 303.083C462.383 303.411 457.999 306.667 458.367 307.363C458.514 307.645 458.753 307.869 459.045 307.997C459.337 308.124 459.663 308.148 459.971 308.064C460.385 307.9 463.428 305.428 466.23 305.469C469.032 305.51 469.19 301.972 469.19 301.972L467.956 301.398Z" fill="#FFB27D"/>
<path d="M466.681 304.936C466.681 304.936 463.802 308.474 464.498 308.924C465.195 309.375 466.107 310.819 466.926 310.368C466.877 310.416 466.837 310.473 466.81 310.537C466.783 310.6 466.77 310.668 466.77 310.737C466.77 310.806 466.783 310.874 466.81 310.937C466.837 311 466.877 311.058 466.926 311.105C467.3 311.52 469.523 312.175 469.523 312.175L476.52 307.527L475.613 305.264L471.004 304.383L466.681 304.936Z" fill="#FFB27D"/>
<path d="M468.888 311.438C468.888 311.438 470.522 308.556 470.875 308.5C471.229 308.443 468.888 311.438 468.888 311.438Z" fill="#231F20"/>
<path d="M433.218 352.99C433.218 352.99 450.505 356.497 450.633 357.05C450.761 357.603 448.927 362.205 448.159 362.313C447.391 362.42 432.193 359.241 432.193 358.529C432.193 357.818 433.218 352.99 433.218 352.99Z" fill="#ED7D2B"/>
<path d="M400.867 348.955C400.867 348.955 398.818 348.955 398.644 349.616C398.47 350.276 397.737 352.329 397.906 352.99C398.075 353.65 413.626 360.475 414.205 359.983C414.784 359.492 415.685 355.294 415.685 355.294L400.867 348.955Z" fill="#ED7D2B"/>
<path d="M488.372 363.905L489.305 298.629H497.859L498.468 361.821L488.372 363.905Z" stroke="#231F20" stroke-width="0.5" stroke-miterlimit="10"/>
<path d="M464.335 328.303C464.335 328.303 487.451 332.439 491.861 329.137C496.271 325.835 494.463 318.268 494.463 318.268L483.927 320.899L464.335 328.303Z" fill="#C16C84"/>
<path d="M488.793 298.629L531.106 293.253L531.326 362.917L483.143 368.293L487.86 363.905L488.793 298.629Z" fill="#CE8196"/>
<path d="M459.878 325.456C459.878 325.456 458.987 316.24 472.402 308.279C485.817 300.318 491.866 304.772 491.866 304.772L490.555 327.401C490.555 327.401 463.326 332.393 459.878 325.456Z" fill="#CE8196"/>
<path d="M392.6 271.295L395.617 269.759C395.617 269.759 393.03 271.366 392.6 271.295Z" fill="#231F20"/>
<path d="M417.468 297.364C417.468 297.364 420.705 279.594 421.365 279.348C422.026 279.102 417.468 297.364 417.468 297.364Z" fill="#231F20"/>
<path d="M380.225 295.383C381.193 295.201 382.187 295.201 383.155 295.383H380.225Z" fill="#231F20"/>
<path d="M378.381 294.579C378.381 294.579 381.219 293.98 381.577 294.221L378.381 294.579Z" fill="#231F20"/>
<path d="M455.32 308.633L464.944 307.875L465.282 309.109L456.144 310.097L455.32 308.633Z" fill="white"/>
<path d="M457.159 309.59L445.946 282.082C445.834 281.808 445.641 281.574 445.393 281.413C445.146 281.251 444.854 281.168 444.558 281.176L411.08 282.077C410.844 282.084 410.613 282.148 410.407 282.264C410.201 282.38 410.026 282.544 409.897 282.742C409.769 282.941 409.69 283.168 409.669 283.403C409.648 283.638 409.684 283.875 409.774 284.094L419.665 307.875L457.159 309.59Z" fill="white"/>
<path d="M456.144 310.097L419.665 307.875L420.981 306.272L456.723 308.525L456.144 310.097Z" fill="white"/>
<path d="M466.926 310.368C466.926 310.368 468.371 307.296 468.821 307.24C469.272 307.184 466.926 310.368 466.926 310.368Z" fill="#231F20"/>
<path d="M464.79 307.614C464.79 307.614 466.793 304.45 467.085 304.383L464.79 307.614Z" fill="#231F20"/>
<path d="M461.866 292.843C461.866 292.843 466.476 283.377 466.926 283.541C467.377 283.705 461.866 292.843 461.866 292.843Z" fill="#231F20"/>
<path d="M497.572 292.285C497.572 292.285 497.06 284.299 496.501 283.582C495.943 282.865 497.572 292.541 497.572 292.541" fill="#231F20"/>
<path d="M393.419 322.215C393.419 322.215 392.308 331.431 392.907 332.214L393.419 322.215Z" fill="#231F20"/>
<path d="M515.274 276.885C515.274 276.885 518.828 287.391 517.077 289.336C517.077 289.336 519.899 286.464 515.274 276.885Z" fill="#231F20"/>
<path d="M521.041 280.336C521.041 280.336 522.988 278.411 524.627 277.976L521.041 280.336Z" fill="#231F20"/>
<path d="M489.305 298.629C489.305 298.629 526.158 293.028 527.679 293.688L489.305 298.629Z" fill="#231F20"/>
<path d="M459.878 325.456C459.878 325.456 476.52 316.21 478.246 314.705C479.972 313.199 465.303 325.236 459.878 325.456Z" fill="#231F20"/>
<path d="M488.721 303.733L488.378 327.704L489.305 303.733H488.721Z" fill="#231F20"/>
<path d="M491.338 299.284C491.338 299.284 496.056 300.272 495.728 302.356C495.4 304.44 494.299 334.723 494.299 334.723C494.299 334.723 495.257 302.371 494.811 301.869C494.365 301.368 491.338 299.284 491.338 299.284Z" fill="#231F20"/>
<path d="M398.588 280.51C398.588 280.51 400.017 277.822 400.677 277.878L398.588 280.51Z" fill="#231F20"/>
<path d="M478.246 314.73C478.246 314.73 470.051 324.97 462.993 324.591L478.246 314.73Z" fill="#C16C84"/>
<path d="M276.872 341.127C276.872 341.127 277.527 340.682 278.019 340.892C278.511 341.102 278.111 341.491 278.111 341.491L277.348 341.962L276.872 341.127Z" fill="#141112"/>
<path d="M263.119 220.609C263.774 221.562 265.618 223.61 261.818 227.828C258.017 232.047 249.622 222.145 249.622 222.145L249.924 220.42C249.924 220.42 253.54 219.283 254.14 213.135C254.739 206.986 254.616 205.854 254.616 205.854L260.419 204.953L263.334 213.775L263.406 213.99L264.538 217.143C264.538 217.143 262.468 219.637 263.119 220.609Z" fill="#FFB27D"/>
<path d="M263.119 220.609C261.218 220.548 258.468 211.967 258.427 211.809L262.648 212.833L263.349 213.805L263.421 214.02L264.553 217.174C264.553 217.174 262.468 219.637 263.119 220.609Z" fill="#E2915A"/>
<path d="M258.96 212.981C258.96 212.981 263.303 220.768 267.821 217.497C272.339 214.225 270.674 201.922 268.476 200.376C266.279 198.83 259.769 196.869 258.601 198.298C257.433 199.726 257.531 211.614 258.96 212.981Z" fill="#FFB27D"/>
<path d="M263.119 220.609L260.901 227.183L262.217 228.878L263.488 226.917C263.488 226.917 263.733 220.789 263.119 220.609Z" fill="#E2915A"/>
<path d="M268.615 200.484C268.615 200.484 273.604 197.806 266.602 193.828C266.76 193.959 266.888 194.122 266.976 194.307C267.065 194.491 267.112 194.693 267.114 194.898C267.068 195.523 263.319 193.163 262.207 193.163C262.577 193.433 262.881 193.783 263.098 194.187C263.411 194.811 254.314 194.545 252.526 197.217C250.739 199.89 249.76 205.598 251.277 207.339C252.793 209.08 254.8 211.527 254.001 213.58C254.001 213.58 256.096 209.966 255.159 208.721C254.222 207.477 258.591 205.02 259.528 206.162C260.466 207.303 261.137 207.836 262.089 205.414C263.042 202.992 264.988 202.998 263.959 202.194C262.929 201.39 262.581 199.235 268.615 200.484Z" fill="#233862"/>
<path d="M256.158 206.873C256.158 206.873 254.293 210.544 258.96 210.155L257.377 207.365L256.158 206.873Z" fill="#E2915A"/>
<path d="M258.693 206.412C258.693 206.412 257.356 205.03 256.865 205.563C256.373 206.095 254.365 209.443 258.96 210.17L258.693 206.412Z" fill="#FFB27D"/>
<path d="M277.835 337.503C277.835 337.503 277.507 342.622 277.835 343.18C278.162 343.738 280.303 344.814 280.303 344.814L283.535 345.259C283.535 345.259 282.772 336.612 282.859 336.136C282.946 335.66 278.726 336.136 278.726 336.136L277.835 337.503Z" fill="#FFB27D"/>
<path d="M263.984 338.163L264.64 343.626H259.313L259.999 337.738L263.984 338.163Z" fill="#FFB27D"/>
<path d="M246.293 274.976C246.293 274.976 252.537 301.183 252.004 305.822C251.471 310.46 255.748 339.167 258.068 339.699C260.389 340.231 264.215 339.346 264.43 338.511C264.645 337.677 264.43 315.688 263.006 313.906C261.582 312.124 266.853 284.094 264.517 277.29C262.181 270.486 246.293 274.976 246.293 274.976Z" fill="#213F7A"/>
<path d="M262.171 286.091C262.171 286.091 270.853 309.39 271.903 310.814C272.953 312.237 276.185 337.323 277.256 337.8C278.326 338.276 282.132 338.634 283.561 336.494C284.99 334.354 283.085 302.97 282.024 301.68C280.964 300.39 281.963 279.665 276.79 269.882C271.616 260.098 261.613 276.716 261.613 276.716L262.171 286.091Z" fill="#213F7A"/>
<path d="M291.608 250.667C291.188 250.77 284.601 253.57 279.315 253.944C277.097 254.103 275.11 253.826 273.926 252.73C273.926 252.73 274.823 268.914 276.964 269.354C279.105 269.794 266.433 286.387 246.277 274.986C246.277 274.986 245.837 260.098 243.937 252.812C243.506 251.179 243.009 249.93 242.4 249.316C242.4 249.316 241.15 251.159 241.442 252.05C241.734 252.94 234.369 255.316 237.519 259.954C237.519 259.954 223.013 262.171 238.476 228.253C238.476 228.253 242.144 220.65 249.894 220.43C249.894 220.43 254.544 224.265 257.761 224.265C260.978 224.265 261.787 227.849 261.787 227.849C261.787 227.849 264.025 221.92 263.088 220.63C263.088 220.63 268.963 224.239 271.37 224.685C273.778 225.13 279.002 243.72 280.518 245.164C280.941 245.478 281.43 245.692 281.948 245.788C285.067 246.602 291.577 246.618 291.577 246.618C291.577 246.618 292.202 250.514 291.608 250.667Z" fill="white"/>
<path d="M245.827 241.467C245.827 241.467 245.535 251.901 243.952 252.802C243.522 251.169 243.025 249.92 242.415 249.305L245.827 241.467Z" fill="#EBF3FF"/>
<path d="M262.217 261.28C260.332 261.188 258.222 257.814 257.771 255.649C257.479 254.271 257.899 253.744 258.284 253.544L258.535 254.056C258.217 254.215 258.13 254.758 258.299 255.551C258.75 257.702 260.773 260.671 262.228 260.722L262.217 261.28Z" fill="#B0D4FF"/>
<path d="M240.766 252.09C240.766 252.09 231.367 256.248 237.554 259.934C237.554 259.934 251.113 261.301 252.895 260.651C252.895 260.651 259.585 263.159 260.066 259.862C260.066 259.862 259.887 258.388 258.996 258.388C258.996 258.388 261.49 257.144 259.508 255.894C259.508 255.894 259.912 254.492 259.195 254.113C259.195 254.113 261.895 253.365 260.691 252.09C260.691 252.09 256.593 251.927 255.717 252.418C254.842 252.91 252.644 254.246 251.927 255.004C251.21 255.761 244.423 253.949 240.766 252.09Z" fill="#FFB27D"/>
<path d="M258.852 254.179H258.289C258.324 253.931 258.415 253.693 258.555 253.485C258.695 253.276 258.881 253.102 259.098 252.976C259.697 252.664 260.512 252.782 261.521 253.324L261.259 253.836C260.43 253.391 259.774 253.268 259.354 253.488C259.226 253.56 259.114 253.66 259.028 253.779C258.941 253.898 258.881 254.035 258.852 254.179Z" fill="#B0D4FF"/>
<path d="M261.142 251.701C261.142 251.701 260.578 261.393 262.002 262.729C263.426 264.066 268.149 263.502 268.149 263.502C268.149 263.502 272.195 254.051 271.273 252.751C270.351 251.451 261.142 251.701 261.142 251.701Z" fill="#B0D4FF"/>
<path d="M297.759 246.136H298.784C298.784 246.136 301.171 243.008 301.724 242.788C301.925 242.699 302.142 242.652 302.362 242.652C302.581 242.652 302.799 242.699 302.999 242.788C303.107 242.901 300.121 247.498 299.926 247.565L297.667 248.225L296.95 247.938L297.759 246.136Z" fill="#ED7D2B"/>
<path d="M291.152 247.355C291.152 247.355 292.519 244.892 293.739 244.416C294.958 243.94 297.836 242.542 298.584 242.481C299.332 242.419 298.231 244.472 296.863 244.652C295.495 244.831 291.152 247.355 291.152 247.355Z" fill="#FFB27D"/>
<path d="M305.412 239.947L306.534 239.23L306.81 239.839L305.535 240.397L305.412 239.947Z" fill="#231F20"/>
<path d="M306.416 239.639L307.471 239.015" stroke="#231F20" stroke-width="0.5" stroke-miterlimit="10"/>
<path d="M297.585 245.609C297.585 245.609 305.432 241.718 306.026 240.438L305.463 239.639L295.659 245.184L297.585 245.609Z" fill="white"/>
<path d="M291.608 250.877C291.708 250.781 291.776 250.655 291.802 250.519C291.802 250.334 291.336 250.519 291.336 250.519L291.106 250.928L291.608 250.877Z" fill="#E2E2E2"/>
<path d="M298.558 243.039C298.558 243.039 298.625 242.174 299.071 242.184C299.516 242.194 300.095 243.351 300.172 243.648C300.249 243.945 300.684 245.788 300.556 246.147C300.428 246.505 299.455 248.435 299.429 248.763C299.404 249.09 298.712 249.848 298.359 249.689C298.178 249.91 297.929 250.065 297.65 250.128C297.372 250.191 297.08 250.159 296.822 250.037C296.822 250.037 294.737 250.488 294.44 250.176C294.143 249.863 290.758 250.985 290.758 250.985L291.024 247.247C291.024 247.247 295.931 244.749 296.376 244.81C296.871 244.908 297.309 245.194 297.595 245.609C297.713 245.906 298.22 247.631 298.22 247.631C298.22 247.631 299.347 245.251 298.558 243.039Z" fill="#FFB27D"/>
<path d="M258.186 343.872C258.186 343.872 257.71 339.776 258.483 339.709C259.243 339.714 260.001 339.774 260.752 339.888C260.995 339.92 261.219 340.038 261.382 340.22C261.546 340.402 261.638 340.637 261.644 340.882C261.698 341.878 261.698 342.876 261.644 343.872C261.516 344.112 258.186 343.872 258.186 343.872Z" fill="#231F20"/>
<path d="M281.036 342.458C281.036 342.458 280.857 340.764 281.348 340.631C281.84 340.498 284.826 341.076 284.826 341.076C284.826 341.076 284.693 344.911 284.514 345.136C284.334 345.361 282.777 345.356 282.106 345.402C281.435 345.448 281.036 342.458 281.036 342.458Z" fill="#231F20"/>
<path d="M291.608 250.667C291.188 250.77 284.601 253.57 279.315 253.944C274.628 251.261 281.963 245.752 281.963 245.752C285.082 246.566 291.592 246.582 291.592 246.582C291.592 246.582 292.202 250.514 291.608 250.667Z" fill="#FFB27D"/>
<path d="M259.226 254.113C258.658 254.151 258.088 254.151 257.52 254.113C257.52 254.113 258.78 254.333 259.226 254.113Z" fill="#231F20"/>
<path d="M259.538 255.894C258.894 255.904 258.249 255.878 257.607 255.818C257.428 255.746 258.826 256.237 259.538 255.894Z" fill="#231F20"/>
<path d="M259.006 258.388C258.545 258.51 258.098 258.681 257.674 258.9C257.694 259.007 259.006 258.388 259.006 258.388Z" fill="#231F20"/>
<path d="M273.947 252.352C273.947 252.352 272.6 244.093 272.856 243.494C273.112 242.895 273.829 252.029 273.947 252.352Z" fill="#231F20"/>
<path d="M242.436 249.316C242.436 249.316 245.944 242.599 245.827 241.467C245.709 240.336 242.436 249.316 242.436 249.316Z" fill="#231F20"/>
<path d="M264.589 292.516C264.589 292.516 265.915 287.811 265.828 287.319C265.741 286.828 264.43 292.101 264.589 292.516Z" fill="#231F20"/>
<path d="M291.208 246.556C291.208 246.556 289.646 249.142 291.608 250.877C291.327 251.052 291.031 251.2 290.722 251.317C290.627 251.354 290.522 251.353 290.427 251.316C290.332 251.279 290.255 251.209 290.209 251.118C289.83 250.375 288.837 248.097 289.979 246.51L291.208 246.556Z" fill="white"/>
<path d="M252.49 350.65C252.49 350.65 250.816 352.386 251.348 353.21C251.881 354.034 259.375 353.097 261.08 352.145C262.786 351.193 266.848 351.044 267.027 350.64C267.206 350.235 267.683 348.633 267.027 348.08C266.371 347.527 252.49 350.65 252.49 350.65Z" fill="white"/>
<path d="M276.139 347.696C276.139 347.696 275.996 349.273 276.323 349.508C277.221 350.008 278.18 350.389 279.176 350.64C279.622 350.64 280.754 353.522 283.192 353.579C285.63 353.635 287.684 353.195 287.858 352.954C288.033 352.713 287.981 351.531 287.981 351.531L278.495 347.696H276.139Z" fill="white"/>
<path d="M261.669 341.839C261.669 341.839 263.421 342.556 264.077 342.377C264.732 342.197 266.335 342.791 266.392 343.267C266.448 343.744 267.047 348.08 267.047 348.08C267.047 348.08 258.78 353.788 252.357 351.664C252.357 351.664 251.41 350.829 254.678 348.868C257.945 346.908 258.155 342.392 258.155 342.392L261.669 341.839Z" fill="#231F20"/>
<path d="M285.139 343.354C285.139 343.354 288.396 351.351 287.981 351.546C287.566 351.741 284.529 353.338 282.982 352.145C281.435 350.952 279.596 349.073 278.762 348.991C277.927 348.909 276.026 348.218 276.144 347.455C276.262 346.693 275.909 341.89 276.621 341.255C277.332 340.621 280.206 342.97 280.785 342.791C281.364 342.612 284.652 342.09 284.652 342.09L285.139 343.354Z" fill="#231F20"/>
<path d="M178.215 260C178.215 260 184.065 271.423 184.095 274.602C184.126 277.781 188.623 283.423 188.623 283.423L185.483 285.036C185.483 285.036 180.827 283.234 178.891 279.85C176.955 276.465 174.881 264.537 174.881 264.537L178.215 260Z" fill="#ED7D2B"/>
<path d="M169.031 256.662C169.031 256.662 176.929 258.255 177.918 259.519C178.907 260.784 181.073 267.828 179.757 273.26C178.44 278.692 184.1 285.353 184.1 285.353L172.832 297.943L168.386 299.504L166.25 304.363L162.542 304.69C162.542 304.69 152.349 296.98 152.425 278.662C152.502 260.343 141.536 262.847 141.536 262.847C141.536 262.847 147.017 256.816 151.432 255.485C155.847 254.154 166.578 256.053 166.578 256.053L169.031 256.662Z" fill="#F99746"/>
<path d="M167.659 259.519C167.659 259.519 168.109 261.782 168.314 261.408C168.519 261.035 168.729 253.263 165.517 252.649C162.306 252.034 163.269 256.801 163.269 256.801L167.659 259.519Z" fill="#ED7D2B"/>
<path d="M168.314 261.408L166.378 262.847L163.264 260.666L162.306 258.403L152.63 253.529C152.63 253.529 153.025 251.512 152.528 250.939C152.333 250.708 152.461 250.032 152.687 249.3C152.825 248.86 152.999 248.394 153.153 247.995C153.399 247.385 153.609 246.925 153.609 246.925L157.066 245.937L163.484 247.232L165.789 248.445L165.984 249.075L166.752 251.553C166.23 252.097 165.794 252.719 165.461 253.396L165.425 253.473C165.233 253.865 165.124 254.291 165.103 254.727C165.062 256.289 164.693 256.826 165.477 257.195C166.26 257.563 167.326 257.814 167.781 258.219C168.043 258.459 168.181 259.483 168.248 260.303C168.299 260.917 168.314 261.408 168.314 261.408Z" fill="#FFB27D"/>
<path d="M168.376 260.835C168.389 261.007 168.371 261.181 168.324 261.347C168.354 261.178 168.371 261.007 168.376 260.835Z" fill="#E2915A"/>
<path d="M166.752 251.568C166.209 252.133 165.762 252.781 165.425 253.488C163.633 254.041 157.665 249.904 157.45 250.135C157.235 250.365 153.301 249.623 153.301 249.623L152.687 249.28C152.825 248.839 152.999 248.374 153.153 247.974H159.699L165.984 249.07L166.752 251.568Z" fill="#E2915A"/>
<path d="M158.162 249.643C158.162 249.643 164.821 254.635 170.512 250.084C176.202 245.532 163.156 233.352 161.676 233.24C160.196 233.127 150.371 237.796 150.371 240.755C150.371 243.715 158.162 249.643 158.162 249.643Z" fill="#FFB27D"/>
<path d="M154.736 244.375C154.736 244.375 156.436 245.199 157.174 245.117C157.489 245.018 157.776 244.843 158.007 244.606C158.239 244.37 158.408 244.08 158.5 243.762C158.593 243.444 158.605 243.109 158.536 242.785C158.467 242.462 158.319 242.16 158.106 241.907C156.928 240.238 163.028 236.834 162.716 235.216C162.403 233.598 164.252 232.421 162.501 231.596C160.749 230.772 146.965 225.729 144.148 237.812C144.148 237.812 133.115 243.884 152.108 251.563C152.247 251.588 152.391 251.582 152.527 251.545C152.664 251.509 152.792 251.443 152.9 251.352C153.009 251.262 153.097 251.148 153.157 251.02C153.218 250.892 153.249 250.752 153.25 250.611C153.332 249.5 153.25 246.658 153.25 246.658L154.736 244.375Z" fill="#233862"/>
<path d="M152.625 252.352C152.625 252.352 164.406 258.234 164.98 258.833C165.553 259.432 166.603 262.309 166.388 262.714C166.173 263.118 161.727 261.06 161.727 261.06C161.727 261.06 151.57 257.292 151.483 255.777C151.396 254.261 152.625 252.352 152.625 252.352Z" fill="#ED7D2B"/>
<path d="M154.587 244.38C154.587 244.38 151.765 244.411 151.795 246.848C151.826 249.285 158.172 250.165 159.115 248.307C160.057 246.449 154.587 244.38 154.587 244.38Z" fill="#FFB27D"/>
<path d="M141.536 262.847C141.536 262.847 136.378 269.119 137.361 271.638C138.345 274.156 140.22 298.516 142.852 299.397C145.485 300.277 156.077 298.849 156.077 298.849C156.077 298.849 162.608 291.681 161.563 291.22C160.518 290.76 153.855 289.992 153.855 289.992L153.496 271.202C153.496 271.202 150.643 260.753 141.536 262.847Z" fill="#ED7D2B"/>
<path d="M161.676 289.797C161.676 289.797 154.648 298.624 154.981 299.683C155.314 300.743 157.22 300.083 158.321 299.34C159.422 298.598 163.295 290.949 163.376 290.453C163.458 289.956 161.676 289.797 161.676 289.797Z" fill="#ED7D2B"/>
<path d="M162.813 291.169C162.813 291.169 170.675 291.717 173.364 290.509C176.054 289.301 179.731 284.913 180.443 284.693C181.155 284.473 186.206 283.106 187.25 283.49C188.295 283.874 184.997 287.765 184.997 287.765L173.472 296.212C173.472 296.212 160.841 299.581 158.823 298.808C156.805 298.035 162.813 291.169 162.813 291.169Z" fill="#FFB27D"/>
<path d="M183.819 286.142C183.819 286.142 167.71 294.589 168.662 296.893C169.615 299.197 183.819 286.142 183.819 286.142Z" fill="#E2915A"/>
<path d="M187.338 284.314C187.338 284.314 183.819 285.297 183.819 285.379C183.819 285.461 187.338 284.314 187.338 284.314Z" fill="#231F20"/>
<path d="M187.619 283.623L169.59 295.516V296.253L188.198 284.242L187.619 283.623Z" fill="white"/>
<path d="M169.59 296.253L173.872 298.066L193.75 284.734L188.198 284.242L169.59 296.253Z" fill="white"/>
<path d="M187.619 283.628L192.992 259.34C193.032 259.16 193.135 258.999 193.282 258.888C193.43 258.776 193.612 258.72 193.797 258.731L215.309 259.919C215.421 259.925 215.53 259.955 215.629 260.008C215.728 260.06 215.815 260.134 215.883 260.223C215.951 260.312 215.999 260.414 216.024 260.523C216.048 260.633 216.049 260.746 216.026 260.855L211.888 280.868L195.195 287.166L190.375 288.026L186.959 286.382L187.619 283.628Z" fill="white"/>
<path d="M200.045 278.083L176.714 293.663C176.714 293.663 197.858 285.21 200.045 278.083Z" fill="#EBF3FF"/>
<path d="M228.586 291.855C228.586 291.855 232.504 293.366 232.781 293.903C233.057 294.441 233.698 299.811 232.781 300.047C231.864 300.282 228.714 300.047 228.714 300.047C228.714 300.047 224.616 294.902 224.616 294.738C224.616 294.574 228.586 291.855 228.586 291.855Z" fill="#FFB27D"/>
<path d="M217.599 338.025C217.599 338.025 217.087 344.486 216.718 345.582C216.349 346.677 216.206 347.722 217.599 348.382C218.659 348.926 219.846 349.173 221.035 349.095C222.224 349.018 223.37 348.619 224.35 347.942C227.203 346.078 227.474 346.626 227.474 346.626C226.982 345.335 226.638 343.991 226.45 342.622C226.286 340.866 226.393 336.863 226.393 336.863L219.223 335.485L217.599 338.025Z" fill="#FFB27D"/>
<path d="M230.793 302.96C230.384 309.79 228.355 334.805 228.714 336.694C229.072 338.583 217.594 338.02 217.594 338.02C217.594 338.02 215.95 312.452 217.594 310.035C217.594 310.035 201.336 312.493 192.624 310.266C191.531 310.006 190.479 309.596 189.499 309.047C183.511 305.494 194.58 299.504 197.986 297.81C198.581 297.518 198.939 297.354 198.939 297.354L200.988 298.066C200.988 298.066 216.866 297.61 220.088 296.253C223.31 294.896 231.224 296.13 230.793 302.96Z" fill="#213F7A"/>
<path d="M216.682 296.99C216.682 296.99 223.197 301.086 227.039 296.642C230.88 292.198 216.682 296.99 216.682 296.99Z" fill="#233862"/>
<path d="M201.003 298.066C201.003 298.066 194.232 309.063 192.639 310.261C191.546 310.001 190.494 309.591 189.514 309.042C183.527 305.489 194.596 299.499 198.002 297.804L201.003 298.066Z" fill="#233862"/>
<path d="M187.455 311.904C187.455 311.904 202.012 298.188 203.877 292.925C203.877 292.925 222.537 300.165 226.214 297.364C229.892 294.564 228.683 290.785 227.751 290.708C226.819 290.632 221.384 291.778 214.193 283.403C207.001 275.027 202.724 276.665 200.875 277.546C199.026 278.426 180.254 294.077 174.409 293.821C168.565 293.565 163.653 304.573 163.653 304.573C163.653 304.573 162.383 319.932 187.455 311.904Z" fill="#213F7A"/>
<path d="M231.644 293.355C231.644 293.355 231.526 294.948 231.521 295.316C231.516 295.685 230.635 298.05 230.809 298.265C230.983 298.48 231.997 299.473 232.407 299.023C232.817 298.572 234.394 294.994 233.349 294.287C232.821 293.908 232.248 293.595 231.644 293.355Z" fill="white"/>
<path d="M231.085 302.525C231.085 302.525 245.427 308.121 250.431 300.989C255.436 293.857 231.766 291.343 232.632 293.309C233.185 294.559 232.632 300.38 230.22 299.653L231.085 302.525Z" fill="white"/>
<path d="M216.467 345.858C216.467 345.858 215.345 345.802 215.294 346.37C215.243 346.938 213.921 353.445 214.193 354.05C214.464 354.654 239.931 355.181 245.053 352.273C250.175 349.365 225.185 344.926 225.185 344.926L216.467 345.858Z" fill="white"/>
<path d="M226.573 343.549C226.573 343.549 224.191 345.704 227.935 346.877C227.935 346.877 228.924 345.853 228.345 345.213C227.787 344.624 227.196 344.068 226.573 343.549Z" fill="white"/>
<path d="M140.891 294.456C140.891 294.456 143.124 320.157 145.101 320.49C147.078 320.823 166.67 321.002 166.998 319.502C167.326 318.002 166.342 306.416 164.365 304.69C162.388 302.965 151.345 297.451 149.46 297.282C147.575 297.113 140.891 294.456 140.891 294.456Z" fill="#739AF0"/>
<path d="M169.139 319.143H184.561V321.98C184.561 322.372 184.405 322.748 184.128 323.026C183.85 323.303 183.474 323.459 183.081 323.459H170.619C170.227 323.459 169.85 323.303 169.572 323.026C169.295 322.748 169.139 322.372 169.139 321.98V319.128V319.143Z" fill="#2B478B"/>
<path d="M166.009 313.548C166.009 313.548 172.432 310.368 175.449 310.419C178.466 310.471 189.555 309.324 192.736 309.651C195.917 309.979 210.356 310.041 210.571 310.419C210.786 310.798 211.084 311.955 210.244 312.396C209.403 312.836 180.515 324.739 166.009 319.143C166.009 319.143 164.836 314.955 166.009 313.548Z" fill="#739AF0"/>
<path d="M174.881 323.475H177.867V343.718C177.867 343.965 177.769 344.202 177.594 344.377C177.419 344.552 177.182 344.65 176.935 344.65H175.813C175.566 344.65 175.329 344.552 175.154 344.377C174.979 344.202 174.881 343.965 174.881 343.718V323.475Z" fill="#2B478B"/>
<path d="M177.16 343.114L191.732 350.686L192.019 352.37C192.019 352.37 193.832 353.358 194.16 352.043C194.488 350.727 194.16 348.423 194.16 348.423L177.406 339.658L177.16 343.114Z" fill="#2B478B"/>
<path d="M177.442 338.102L206.31 341.358L206.638 344.942C206.638 344.942 204.389 345.817 204.112 344.942C203.951 344.503 203.895 344.033 203.948 343.569L180.238 343.129L176.013 341.726L177.442 338.102Z" fill="#2B478B"/>
<path d="M175.132 339.136L152.856 351.162V355.196C152.856 355.196 155.079 356.097 155.325 355.196C155.479 354.378 155.534 353.545 155.488 352.713L175.659 343.262L175.132 339.136Z" fill="#2B478B"/>
<path d="M174.881 338.102L146.822 344.757V348.623C146.822 348.623 149.086 348.95 149.168 348.377C149.218 347.829 149.231 347.278 149.209 346.728L165.958 344.645L176.376 339.284L174.881 338.102Z" fill="#2B478B"/>
<path d="M193.868 357.751C195.051 357.751 196.009 356.793 196.009 355.611C196.009 354.429 195.051 353.471 193.868 353.471C192.686 353.471 191.727 354.429 191.727 355.611C191.727 356.793 192.686 357.751 193.868 357.751Z" fill="#231F20"/>
<path d="M206.212 350.128C207.395 350.128 208.353 349.17 208.353 347.988C208.353 346.806 207.395 345.848 206.212 345.848C205.03 345.848 204.071 346.806 204.071 347.988C204.071 349.17 205.03 350.128 206.212 350.128Z" fill="#231F20"/>
<path d="M155.017 360.777C156.2 360.777 157.158 359.819 157.158 358.637C157.158 357.455 156.2 356.497 155.017 356.497C153.835 356.497 152.876 357.455 152.876 358.637C152.876 359.819 153.835 360.777 155.017 360.777Z" fill="#231F20"/>
<path d="M147.99 353.389C149.172 353.389 150.131 352.431 150.131 351.249C150.131 350.067 149.172 349.109 147.99 349.109C146.807 349.109 145.849 350.067 145.849 351.249C145.849 352.431 146.807 353.389 147.99 353.389Z" fill="#231F20"/>
<path d="M187.619 283.628C187.619 283.628 190.892 283.874 191.118 283.792L187.619 283.628Z" fill="#231F20"/>
<path d="M203.877 292.925C203.877 292.925 202.274 292.388 202.274 292.06C202.274 291.732 203.641 292.833 203.877 292.925Z" fill="#231F20"/>
<path d="M217.594 310.035C217.594 310.035 218.777 308.351 219.315 308.351C219.853 308.351 218.224 309.421 217.594 310.035Z" fill="#231F20"/>
<path d="M187.087 283.423C187.087 283.423 183.353 284.227 183.353 284.309C183.353 284.391 187.087 283.423 187.087 283.423Z" fill="#231F20"/>
<path d="M166.685 313.23C166.685 313.23 167.454 319.169 167.003 319.502L166.685 313.23Z" fill="#231F20"/>
<path d="M155.186 298.941L158.121 294.471C158.121 294.471 155.483 298.854 155.186 298.941Z" fill="#231F20"/>
<path d="M333.363 360.326C333.363 360.326 324.184 355.391 334.444 349.698C334.444 349.698 333.599 355.57 334.444 356.082C335.289 356.594 335.555 349.206 335.545 349.068C335.535 348.93 343.115 346.027 343.792 346.303C344.468 346.58 340.104 352.959 341.318 352.381C342.531 351.802 345.359 345.602 345.359 345.602C345.359 345.602 351.306 344.814 352.53 346.718C353.754 348.623 354.732 352.299 352.53 353.886C350.327 355.473 345.226 353.916 345.671 354.91C346.117 355.903 351.126 356.63 351.9 356.184C351.9 356.184 348.775 363.183 344.816 361.499C341.138 359.932 338.587 359.835 338.429 360.132C338.27 360.429 344.985 361.448 345.364 363.813C345.743 366.178 334.142 364.837 334.254 362.681C334.367 360.526 333.363 360.326 333.363 360.326Z" fill="#E7ABBB"/>
<path d="M333.307 375.404C332.564 374.431 330.233 370.899 331.094 366.337C331.561 364.008 332.744 361.883 334.48 360.26L335.079 360.895C333.473 362.399 332.378 364.368 331.949 366.526C331.702 367.987 331.756 369.484 332.108 370.923C332.461 372.363 333.104 373.715 333.998 374.897L333.307 375.404Z" fill="#E7ABBB"/>
<path d="M327.718 359.865C327.718 359.865 334.377 356.282 326.935 352.186C326.935 352.186 327.549 356.435 326.935 356.794C326.32 357.152 326.131 351.812 326.136 351.715C326.141 351.618 320.655 349.513 320.163 349.713C319.672 349.913 322.858 353.722 321.956 354.111C321.055 354.5 318.094 349.437 318.094 349.437C318.094 349.437 314.719 348.633 313.832 350.01C312.946 351.387 312.24 354.055 313.832 355.201C315.425 356.348 319.124 355.201 318.801 355.959C318.478 356.717 314.852 357.208 314.293 356.881C314.293 356.881 316.767 362.364 319.416 360.731C322.064 359.098 324.625 359.251 324.62 359.502C324.614 359.753 319.293 360.695 319.021 362.41C318.75 364.125 327.15 363.137 327.068 361.591C326.986 360.045 327.718 359.865 327.718 359.865Z" fill="#E7ABBB"/>
<path d="M327.759 370.771C328.462 369.843 328.966 368.782 329.242 367.652C329.518 366.522 329.559 365.348 329.363 364.202C329.025 362.514 328.167 360.974 326.909 359.799L326.479 360.26C327.637 361.345 328.429 362.764 328.743 364.32C328.923 365.379 328.884 366.463 328.628 367.507C328.373 368.55 327.906 369.53 327.257 370.387L327.759 370.771Z" fill="#E7ABBB"/>
<path d="M332.687 349.56C332.687 349.56 320.358 342.904 334.136 335.281C334.136 335.281 332.999 343.165 334.136 343.856C335.273 344.547 335.627 334.641 335.617 334.436C335.606 334.231 345.779 330.34 346.691 330.724C347.602 331.108 341.691 338.163 343.366 338.88C345.041 339.597 350.537 330.222 350.537 330.222C350.537 330.222 356.796 328.722 358.441 331.282C360.085 333.842 361.396 338.772 358.441 340.907C355.485 343.042 348.632 340.943 349.221 342.305C349.81 343.667 356.546 344.619 357.585 344.02C357.585 344.02 352.975 354.183 348.074 351.157C343.172 348.131 338.024 348.648 338.429 348.874C338.833 349.099 349.185 351.464 349.697 354.633C350.209 357.802 333.757 355.611 333.906 352.744C334.054 349.877 332.687 349.56 332.687 349.56Z" fill="#C16C84"/>
<path d="M332.61 369.798C331.586 368.492 328.461 363.751 329.634 357.623C330.264 354.497 331.852 351.645 334.177 349.462L334.982 350.322C332.831 352.33 331.362 354.96 330.781 357.843C329.701 363.475 332.615 367.878 333.537 369.107L332.61 369.798Z" fill="#C16C84"/>
<path d="M331.186 379.745C333.119 379.746 335.033 379.366 336.819 378.627C338.605 377.888 340.228 376.805 341.595 375.439C342.962 374.073 344.046 372.451 344.786 370.666C345.526 368.882 345.907 366.968 345.907 365.036H316.47C316.47 366.968 316.851 368.881 317.591 370.665C318.33 372.45 319.414 374.071 320.78 375.437C322.147 376.803 323.769 377.887 325.555 378.626C327.34 379.365 329.254 379.745 331.186 379.745Z" fill="#CE8196"/>
<path d="M343.73 379.745H318.647C318.313 379.745 318.043 380.016 318.043 380.35V380.524C318.043 380.857 318.313 381.128 318.647 381.128H343.73C344.064 381.128 344.335 380.857 344.335 380.524V380.35C344.335 380.016 344.064 379.745 343.73 379.745Z" fill="#C16C84"/>
<path d="M380.271 145.293H373.617C372.656 145.293 371.876 146.073 371.876 147.034V156.152C371.876 157.114 372.656 157.893 373.617 157.893H380.271C381.233 157.893 382.012 157.114 382.012 156.152V147.034C382.012 146.073 381.233 145.293 380.271 145.293Z" fill="#DA96A9"/>
<path d="M376.947 93.231C372.852 93.2313 368.831 94.3154 365.292 96.3732C361.753 98.431 358.822 101.389 356.798 104.946C354.773 108.504 353.728 112.533 353.767 116.626C353.806 120.718 354.929 124.727 357.022 128.245C357.1 128.466 357.198 128.68 357.314 128.885L367.66 146.804C367.847 147.184 368.059 147.552 368.296 147.904C368.313 147.927 368.328 147.951 368.342 147.976C369.291 149.384 370.572 150.537 372.071 151.334C373.571 152.131 375.243 152.548 376.942 152.548C378.64 152.548 380.312 152.131 381.812 151.334C383.311 150.537 384.592 149.384 385.542 147.976L385.588 147.904C385.824 147.552 386.036 147.184 386.223 146.804L396.569 128.885C396.688 128.681 396.785 128.467 396.861 128.245C398.957 124.728 400.082 120.72 400.124 116.627C400.165 112.534 399.121 108.504 397.097 104.946C395.074 101.387 392.143 98.4289 388.603 96.3712C385.063 94.3134 381.042 93.2299 376.947 93.231Z" fill="#CE8196"/>
<path d="M383.759 114.913C383.592 114.915 383.428 114.878 383.278 114.805C383.132 114.72 383.006 114.606 382.907 114.469C382.808 114.333 382.739 114.177 382.704 114.012C382.524 113.319 382.623 112.584 382.981 111.964C383.197 111.615 383.501 111.329 383.862 111.135C383.156 110.686 382.324 110.476 381.49 110.536C381.293 110.555 381.098 110.587 380.906 110.633C381.266 110.881 381.534 111.241 381.669 111.657C381.748 111.982 381.76 112.32 381.707 112.651C381.653 112.981 381.534 113.298 381.357 113.582C381.258 113.761 381.123 113.917 380.961 114.041C380.799 114.166 380.613 114.255 380.414 114.304C380.173 114.323 379.93 114.287 379.705 114.199C379.479 114.11 379.277 113.971 379.113 113.792C378.85 113.561 378.641 113.275 378.503 112.953C378.364 112.632 378.3 112.283 378.314 111.933C378.357 111.644 378.467 111.368 378.634 111.127C378.801 110.886 379.021 110.688 379.277 110.546C378.589 110.367 377.883 110.269 377.172 110.254C376.506 110.23 375.84 110.294 375.19 110.443C375.478 110.657 375.718 110.929 375.895 111.241C376.071 111.553 376.18 111.899 376.214 112.256C376.188 112.504 376.111 112.744 375.989 112.962C375.866 113.179 375.701 113.369 375.502 113.52C375.329 113.674 375.126 113.791 374.906 113.862C374.685 113.933 374.452 113.958 374.222 113.935C374.006 113.885 373.804 113.791 373.627 113.657C373.451 113.524 373.304 113.355 373.197 113.162C373.027 112.904 372.911 112.613 372.857 112.309C372.803 112.004 372.813 111.691 372.885 111.391C372.971 111.142 373.106 110.914 373.282 110.718C373.458 110.523 373.671 110.365 373.909 110.254C372.818 109.619 371.22 109.143 370.017 109.742L369.955 109.773C370.118 109.889 370.265 110.027 370.391 110.182C371.015 110.94 371.415 112.43 370.498 113.254C370.28 113.442 370.026 113.584 369.751 113.672C369.476 113.76 369.187 113.792 368.9 113.766C368.705 113.763 368.513 113.719 368.337 113.637C368.16 113.555 368.003 113.437 367.876 113.29C367.744 113.086 367.659 112.855 367.626 112.615C367.593 112.374 367.614 112.129 367.686 111.897C367.86 111.175 368.212 110.508 368.71 109.957C368.542 109.922 368.37 109.901 368.198 109.896C366.728 109.86 365.125 111.217 364.152 113.362L363.568 113.095C364.674 110.679 366.452 109.204 368.214 109.256C368.582 109.261 368.946 109.325 369.294 109.445C369.427 109.347 369.568 109.26 369.714 109.184C371.251 108.401 373.213 109.036 374.447 109.824L374.621 109.937C375.464 109.681 376.343 109.567 377.223 109.599C378.227 109.603 379.222 109.776 380.169 110.111C380.596 109.955 381.042 109.855 381.495 109.814C382.617 109.725 383.731 110.068 384.609 110.771C385.706 110.47 386.872 110.542 387.923 110.976C389.025 111.469 389.907 112.349 390.403 113.449L389.819 113.72C389.391 112.766 388.63 112.002 387.678 111.57C386.866 111.243 385.977 111.154 385.117 111.314C385.226 111.464 385.322 111.623 385.403 111.79C385.568 112.083 385.663 112.41 385.68 112.746C385.697 113.082 385.636 113.417 385.501 113.725C385.247 114.211 384.813 114.578 384.292 114.749C384.127 114.839 383.946 114.894 383.759 114.913ZM384.374 111.59C384.019 111.734 383.717 111.982 383.508 112.302C383.252 112.771 383.177 113.317 383.298 113.838C383.33 113.997 383.422 114.138 383.554 114.232C383.701 114.291 383.864 114.291 384.01 114.232C384.383 114.113 384.696 113.857 384.886 113.515C384.977 113.293 385.015 113.053 384.996 112.814C384.977 112.575 384.903 112.343 384.778 112.138C384.669 111.938 384.533 111.753 384.374 111.59ZM380.076 110.884C379.477 111.14 378.985 111.529 378.934 112.036C378.932 112.286 378.983 112.533 379.086 112.761C379.188 112.99 379.339 113.193 379.528 113.357C379.623 113.462 379.739 113.546 379.869 113.602C379.999 113.659 380.14 113.687 380.281 113.684C380.391 113.651 380.493 113.595 380.581 113.521C380.669 113.447 380.741 113.357 380.793 113.254C380.924 113.047 381.013 112.816 381.054 112.574C381.095 112.333 381.089 112.085 381.034 111.846C380.953 111.63 380.828 111.432 380.667 111.267C380.505 111.101 380.311 110.971 380.097 110.884H380.076ZM374.442 110.71C374.215 110.773 374.006 110.887 373.829 111.042C373.651 111.197 373.511 111.389 373.418 111.606C373.373 111.819 373.371 112.04 373.412 112.254C373.454 112.469 373.537 112.673 373.658 112.855C373.721 112.972 373.807 113.075 373.911 113.158C374.015 113.241 374.135 113.301 374.263 113.336C374.403 113.343 374.544 113.322 374.676 113.273C374.808 113.225 374.928 113.15 375.031 113.054C375.16 112.961 375.27 112.843 375.352 112.706C375.435 112.57 375.489 112.419 375.513 112.261C375.569 111.831 375.154 111.237 374.463 110.71H374.442ZM369.32 110.244C368.804 110.742 368.438 111.375 368.265 112.072C368.173 112.356 368.196 112.665 368.331 112.932C368.479 113.078 368.677 113.16 368.885 113.162C369.287 113.199 369.689 113.076 370.001 112.819C370.575 112.307 370.288 111.201 369.827 110.643C369.69 110.48 369.523 110.344 369.335 110.244H369.32Z" fill="#FFD5E1"/>
<path d="M301.739 136.293L298.835 137.506C298.014 136.006 296.826 134.738 295.383 133.82L296.515 131.081C296.536 131.034 296.548 130.983 296.55 130.932C296.551 130.88 296.542 130.829 296.523 130.781C296.504 130.733 296.475 130.689 296.438 130.653C296.402 130.616 296.358 130.588 296.31 130.569L294.261 129.719C294.169 129.682 294.067 129.683 293.975 129.721C293.884 129.759 293.812 129.832 293.774 129.924L292.678 132.581C290.972 132.103 289.171 132.08 287.454 132.515L286.378 129.955C286.341 129.863 286.268 129.79 286.177 129.752C286.086 129.713 285.983 129.713 285.892 129.75L283.843 130.61C283.794 130.628 283.75 130.656 283.713 130.693C283.676 130.729 283.647 130.773 283.627 130.821C283.608 130.869 283.599 130.921 283.601 130.972C283.603 131.024 283.615 131.075 283.638 131.122L284.713 133.682C283.194 134.594 281.941 135.89 281.082 137.44L278.424 136.344C278.377 136.322 278.326 136.31 278.274 136.309C278.223 136.308 278.171 136.317 278.123 136.336C278.075 136.355 278.032 136.384 277.995 136.421C277.959 136.457 277.93 136.501 277.911 136.549L277.061 138.597C277.024 138.688 277.025 138.791 277.063 138.882C277.101 138.973 277.174 139.046 277.266 139.083L280.006 140.215C279.642 141.885 279.707 143.619 280.196 145.257L277.281 146.476C277.19 146.513 277.117 146.586 277.078 146.677C277.04 146.768 277.039 146.871 277.076 146.962L277.937 149.01C277.956 149.058 277.984 149.102 278.021 149.139C278.057 149.175 278.101 149.204 278.149 149.223C278.197 149.242 278.248 149.251 278.3 149.25C278.351 149.249 278.402 149.237 278.449 149.215L281.481 147.95C282.378 149.307 283.588 150.428 285.011 151.217L283.684 154.427C283.662 154.474 283.65 154.525 283.649 154.576C283.647 154.628 283.657 154.679 283.676 154.727C283.695 154.775 283.724 154.819 283.76 154.855C283.797 154.891 283.841 154.92 283.889 154.939L285.938 155.789C285.984 155.811 286.035 155.824 286.087 155.826C286.139 155.827 286.191 155.818 286.239 155.799C286.287 155.78 286.331 155.751 286.367 155.714C286.403 155.677 286.432 155.632 286.45 155.584L287.807 152.287C289.337 152.622 290.924 152.596 292.443 152.21L293.846 155.569C293.865 155.614 293.892 155.655 293.927 155.69C293.961 155.724 294.002 155.752 294.048 155.77C294.093 155.789 294.141 155.798 294.19 155.798C294.239 155.798 294.288 155.787 294.333 155.768L296.382 154.913C296.43 154.894 296.473 154.866 296.51 154.829C296.547 154.793 296.575 154.749 296.595 154.701C296.614 154.654 296.623 154.602 296.621 154.551C296.62 154.499 296.608 154.448 296.586 154.401L295.183 151.043C296.528 150.238 297.667 149.13 298.507 147.807L301.801 149.164C301.847 149.186 301.898 149.199 301.949 149.201C302.001 149.203 302.052 149.195 302.101 149.176C302.149 149.157 302.192 149.129 302.229 149.092C302.265 149.056 302.294 149.012 302.313 148.964L303.163 146.916C303.2 146.825 303.2 146.722 303.161 146.631C303.123 146.54 303.05 146.467 302.958 146.43L299.742 145.104C300.183 143.54 300.24 141.892 299.906 140.302L302.943 139.037C302.992 139.019 303.036 138.991 303.073 138.954C303.11 138.918 303.138 138.874 303.157 138.826C303.176 138.777 303.185 138.726 303.182 138.674C303.18 138.622 303.166 138.571 303.143 138.525L302.287 136.477C302.267 136.426 302.236 136.38 302.196 136.342C302.156 136.304 302.108 136.276 302.056 136.258C302.004 136.241 301.948 136.235 301.894 136.241C301.839 136.247 301.786 136.264 301.739 136.293ZM291.321 145.754C290.666 146.021 289.947 146.089 289.254 145.949C288.561 145.808 287.925 145.466 287.426 144.966C286.927 144.465 286.587 143.828 286.449 143.135C286.311 142.441 286.381 141.723 286.651 141.069C286.921 140.416 287.378 139.857 287.965 139.462C288.552 139.068 289.242 138.856 289.949 138.852C290.656 138.849 291.349 139.055 291.939 139.444C292.529 139.833 292.992 140.388 293.267 141.039C293.452 141.476 293.549 141.945 293.551 142.42C293.553 142.894 293.461 143.364 293.28 143.803C293.099 144.242 292.833 144.64 292.496 144.975C292.16 145.31 291.76 145.575 291.321 145.754Z" fill="#CE8196"/>
<path d="M333.742 129.74L327.918 130.303C327.288 127.198 325.878 124.306 323.821 121.896L327.314 117.657C327.371 117.587 327.414 117.506 327.441 117.419C327.467 117.332 327.476 117.241 327.467 117.151C327.458 117.06 327.431 116.973 327.388 116.893C327.345 116.813 327.287 116.742 327.217 116.684L324.031 114.058C323.888 113.941 323.706 113.885 323.522 113.902C323.339 113.919 323.17 114.009 323.052 114.15L319.667 118.246C316.906 116.468 313.727 115.445 310.447 115.282L309.935 110.162C309.926 110.071 309.899 109.984 309.856 109.903C309.813 109.823 309.755 109.752 309.684 109.695C309.614 109.637 309.533 109.594 309.446 109.568C309.358 109.542 309.267 109.533 309.177 109.542L305.079 109.937C304.899 109.957 304.734 110.048 304.62 110.188C304.506 110.329 304.452 110.509 304.469 110.689L304.982 115.809C301.797 116.598 298.875 118.21 296.51 120.483L292.412 117.099C292.342 117.042 292.261 116.998 292.174 116.972C292.087 116.946 291.996 116.937 291.905 116.946C291.815 116.955 291.727 116.982 291.647 117.025C291.567 117.068 291.496 117.126 291.439 117.196L288.811 120.381C288.694 120.523 288.638 120.706 288.655 120.889C288.673 121.072 288.762 121.241 288.903 121.359L293.144 124.845C291.588 127.604 290.759 130.714 290.737 133.881L284.908 134.445C284.725 134.464 284.558 134.554 284.441 134.696C284.324 134.838 284.267 135.019 284.283 135.202L284.683 139.298C284.701 139.481 284.791 139.65 284.933 139.767C285.075 139.884 285.258 139.94 285.441 139.923L291.5 139.334C292.353 142.214 293.885 144.848 295.967 147.014L291.869 151.98C291.753 152.122 291.697 152.305 291.716 152.489C291.734 152.672 291.824 152.841 291.966 152.958L295.152 155.579C295.294 155.696 295.477 155.752 295.66 155.735C295.844 155.717 296.013 155.628 296.131 155.487L300.326 150.393C302.852 151.816 305.675 152.633 308.572 152.778L309.223 159.48C309.241 159.663 309.331 159.832 309.473 159.949C309.615 160.066 309.797 160.122 309.981 160.105L314.078 159.705C314.262 159.687 314.43 159.597 314.547 159.455C314.664 159.313 314.72 159.131 314.703 158.948L314.053 152.246C316.867 151.545 319.481 150.203 321.69 148.324L326.786 152.517C326.928 152.634 327.111 152.69 327.294 152.673C327.478 152.656 327.647 152.567 327.765 152.425L330.387 149.235C330.504 149.093 330.56 148.911 330.543 148.728C330.526 148.544 330.436 148.375 330.295 148.258L325.321 144.162C326.956 141.634 327.954 138.748 328.231 135.75L334.29 135.167C334.473 135.148 334.642 135.059 334.759 134.917C334.876 134.775 334.932 134.592 334.915 134.409L334.515 130.313C334.486 130.136 334.389 129.977 334.245 129.87C334.101 129.763 333.92 129.716 333.742 129.74ZM310.15 140.819C308.84 140.941 307.524 140.672 306.367 140.047C305.21 139.422 304.264 138.469 303.648 137.307C303.032 136.146 302.774 134.828 302.907 133.52C303.04 132.212 303.557 130.973 304.394 129.958C305.23 128.944 306.349 128.2 307.608 127.82C308.867 127.44 310.21 127.442 311.469 127.824C312.727 128.206 313.844 128.953 314.679 129.969C315.513 130.985 316.028 132.225 316.158 133.533C316.245 134.407 316.158 135.288 315.903 136.128C315.647 136.967 315.228 137.748 314.67 138.425C314.112 139.102 313.425 139.662 312.649 140.073C311.873 140.484 311.024 140.737 310.15 140.819Z" fill="#CE8196"/>
</g>
<defs>
<filter id="filter0_d" x="-40" y="-27" width="770" height="509" filterUnits="userSpaceOnUse" color-interpolation-filters="sRGB">
<feFlood flood-opacity="0" result="BackgroundImageFix"/>
<feColorMatrix in="SourceAlpha" type="matrix" values="0 0 0 0 0 0 0 0 0 0 0 0 0 0 0 0 0 0 127 0"/>
<feOffset dy="1"/>
<feGaussianBlur stdDeviation="47"/>
<feColorMatrix type="matrix" values="0 0 0 0 0 0 0 0 0 0 0 0 0 0 0 0 0 0 0.1 0"/>
<feBlend mode="normal" in2="BackgroundImageFix" result="effect1_dropShadow"/>
<feBlend mode="normal" in="SourceGraphic" in2="effect1_dropShadow" result="shape"/>
</filter>
</defs>
</svg>
