<svg width="403" height="395" viewBox="0 0 403 395" fill="none" xmlns="http://www.w3.org/2000/svg">
<path d="M83.5543 316.085C62.8102 309.92 38.5819 302.359 22.8231 279.824C-2.65702 243.397 2.88213 181.837 34.6048 151.104C71.6008 115.248 116.496 148.169 159.79 112.688C205.211 75.4413 182.738 17.0501 215.585 2.85256C262.69 -17.5104 371.413 75.6463 359.11 139.317C351.522 178.613 299.941 196.328 306.538 214.559C313.911 234.922 379.877 212.67 398.089 240.843C415.488 267.759 383.765 332.111 348.237 336.93C333.193 338.974 324.657 329.363 308.355 320.617C238.279 283.009 180.689 344.935 83.5543 316.085Z" fill="#F2DDE3"/>
<path d="M324.873 283.68C324.873 283.68 337.297 276.994 323.411 269.277C323.411 269.277 324.557 277.226 323.411 277.924C322.264 278.622 321.909 268.612 321.921 268.424C321.932 268.236 311.679 264.308 310.759 264.685C309.84 265.062 315.744 273.72 314.11 272.911C312.476 272.102 308.643 263.738 308.643 263.738C308.643 263.738 300.589 262.663 298.933 265.244C297.277 267.826 295.953 272.8 298.933 274.95C301.913 277.099 308.82 274.988 308.217 276.362C307.613 277.736 300.839 278.694 299.792 278.085C299.792 278.085 304.018 287.568 309.374 285.286C314.36 283.165 317.805 283.026 318.015 283.436C318.226 283.846 309.153 285.214 308.638 288.421C308.123 291.629 323.82 289.779 323.671 286.893C323.521 284.006 324.873 283.68 324.873 283.68Z" fill="#E7ABBB"/>
<path d="M324.95 304.115C325.953 302.796 329.133 298.021 327.947 291.839C327.315 288.685 325.711 285.809 323.361 283.613L322.552 284.472C324.718 286.5 326.197 289.152 326.784 292.061C327.892 297.761 324.934 302.181 324.014 303.4L324.95 304.115Z" fill="#E7ABBB"/>
<path d="M332.511 283.032C332.511 283.032 323.51 278.185 333.575 272.601C333.575 272.601 332.744 278.362 333.575 278.866C334.406 279.37 334.683 272.119 334.655 271.986C334.627 271.853 342.072 269.006 342.737 269.272C343.401 269.538 339.092 274.706 340.31 275.232C341.529 275.758 345.534 268.906 345.534 268.906C345.534 268.906 350.104 267.798 351.306 269.682C352.508 271.565 353.46 275.155 351.306 276.711C349.151 278.268 344.144 276.739 344.576 277.736C345.008 278.733 349.926 279.425 350.669 278.982C350.669 278.982 347.317 286.405 343.723 284.195C340.128 281.985 336.677 282.19 336.682 282.533C336.688 282.877 343.883 284.156 344.26 286.472C344.636 288.787 333.259 287.458 333.37 285.364C333.481 283.27 332.511 283.032 332.511 283.032Z" fill="#E7ABBB"/>
<path d="M332.456 297.816C331.507 296.56 330.824 295.123 330.451 293.593C330.077 292.063 330.021 290.473 330.285 288.92C330.746 286.636 331.907 284.553 333.608 282.96L334.195 283.586C332.625 285.053 331.552 286.974 331.126 289.081C330.883 290.515 330.936 291.983 331.282 293.396C331.628 294.809 332.259 296.136 333.137 297.296L332.456 297.816Z" fill="#E7ABBB"/>
<path d="M325.792 269.094C325.792 269.094 342.476 260.115 323.826 249.762C323.826 249.762 325.366 260.436 323.826 261.395C322.286 262.353 321.81 248.898 321.826 248.654C321.843 248.41 308.073 243.114 306.837 243.63C305.602 244.145 313.601 253.7 311.335 254.675C309.07 255.65 301.653 242.948 301.653 242.948C301.653 242.948 293.183 240.915 290.962 244.383C288.741 247.851 286.957 254.526 290.962 257.412C294.967 260.298 304.256 257.467 303.425 259.312C302.594 261.156 293.516 262.442 292.109 261.627C292.109 261.627 298.318 275.387 304.982 271.294C311.645 267.2 318.58 267.892 318.032 268.197C317.484 268.502 303.486 271.703 302.799 276.002C302.113 280.301 324.402 277.32 324.175 273.443C323.948 269.565 325.792 269.094 325.792 269.094Z" fill="#CE8196"/>
<path d="M325.898 296.498C327.244 294.731 331.509 288.311 329.919 280.013C329.066 275.78 326.915 271.919 323.765 268.967L322.657 270.125C325.57 272.838 327.563 276.394 328.357 280.295C329.825 287.945 325.875 293.878 324.629 295.517L325.898 296.498Z" fill="#CE8196"/>
<path d="M327.814 309.97C322.53 309.963 317.465 307.858 313.732 304.119C309.998 300.38 307.901 295.312 307.901 290.028H347.733C347.733 295.313 345.635 300.382 341.9 304.121C338.165 307.86 333.099 309.964 327.814 309.97Z" fill="#CE8196"/>
<path d="M310.682 311.837H344.952C345.313 311.837 345.606 311.544 345.606 311.183V310.618C345.606 310.257 345.313 309.964 344.952 309.964H310.682C310.321 309.964 310.028 310.257 310.028 310.618V311.183C310.028 311.544 310.321 311.837 310.682 311.837Z" fill="#CE8196"/>
<path d="M254.592 176.996H251.307C250.267 176.996 249.424 177.839 249.424 178.879V183.887C249.424 184.927 250.267 185.77 251.307 185.77H254.592C255.632 185.77 256.475 184.927 256.475 183.887V178.879C256.475 177.839 255.632 176.996 254.592 176.996Z" fill="#E7ABBB"/>
<path d="M252.953 140.746C250.105 140.749 247.309 141.505 244.849 142.939C242.389 144.373 240.352 146.432 238.945 148.908C237.539 151.383 236.813 154.188 236.841 157.035C236.869 159.882 237.65 162.671 239.105 165.119C239.161 165.271 239.227 165.419 239.304 165.562L246.505 178.032C246.635 178.296 246.783 178.552 246.948 178.796L246.981 178.846C247.639 179.83 248.53 180.636 249.574 181.194C250.618 181.751 251.783 182.043 252.966 182.043C254.15 182.043 255.315 181.751 256.359 181.194C257.403 180.636 258.293 179.83 258.951 178.846L258.985 178.796C259.149 178.552 259.297 178.296 259.428 178.032L266.629 165.562C266.708 165.421 266.774 165.272 266.828 165.119C268.283 162.671 269.064 159.882 269.092 157.035C269.12 154.188 268.394 151.383 266.987 148.908C265.581 146.432 263.544 144.373 261.084 142.939C258.623 141.505 255.828 140.749 252.98 140.746H252.953Z" fill="#CE8196"/>
<path d="M257.694 155.846C257.579 155.847 257.465 155.821 257.362 155.769C257.26 155.709 257.172 155.628 257.103 155.533C257.033 155.438 256.984 155.33 256.957 155.215C256.835 154.735 256.904 154.226 257.151 153.797C257.304 153.553 257.516 153.351 257.766 153.209C257.271 152.897 256.689 152.749 256.104 152.788C255.966 152.801 255.829 152.823 255.694 152.855C255.957 153.028 256.153 153.286 256.248 153.586C256.303 153.813 256.312 154.048 256.275 154.278C256.238 154.508 256.156 154.729 256.032 154.927C255.965 155.052 255.871 155.161 255.759 155.248C255.646 155.335 255.517 155.397 255.379 155.431C255.211 155.446 255.042 155.423 254.885 155.364C254.727 155.304 254.586 155.21 254.47 155.087C254.289 154.925 254.145 154.725 254.049 154.501C253.953 154.277 253.908 154.035 253.916 153.791C253.946 153.59 254.022 153.398 254.138 153.23C254.255 153.063 254.408 152.925 254.587 152.827C254.106 152.705 253.614 152.636 253.119 152.622C252.655 152.61 252.192 152.655 251.739 152.755C251.939 152.904 252.105 153.094 252.226 153.311C252.348 153.529 252.421 153.77 252.443 154.018C252.424 154.191 252.371 154.359 252.285 154.51C252.199 154.662 252.083 154.794 251.944 154.899C251.824 155.007 251.683 155.089 251.529 155.14C251.376 155.19 251.214 155.208 251.053 155.193C250.898 155.158 250.753 155.09 250.627 154.995C250.501 154.899 250.397 154.778 250.321 154.639C250.203 154.46 250.122 154.258 250.085 154.046C250.048 153.835 250.055 153.618 250.105 153.409C250.162 153.236 250.253 153.077 250.373 152.941C250.493 152.805 250.639 152.695 250.803 152.617C250.044 152.174 248.931 151.841 248.095 152.273H248.05C248.165 152.355 248.267 152.452 248.355 152.561C248.793 153.088 249.059 154.123 248.433 154.694C248.124 154.952 247.726 155.078 247.325 155.043C247.192 155.04 247.061 155.009 246.94 154.951C246.82 154.894 246.713 154.812 246.627 154.711C246.534 154.569 246.474 154.409 246.451 154.241C246.428 154.073 246.443 153.903 246.494 153.741C246.621 153.239 246.868 152.775 247.214 152.39C247.091 152.368 246.967 152.355 246.843 152.351C245.824 152.351 244.71 153.27 244.029 154.766L243.619 154.578C244.395 152.916 245.63 151.869 246.854 151.902C247.11 151.907 247.365 151.952 247.607 152.035C247.7 151.968 247.798 151.908 247.901 151.858C248.959 151.304 250.333 151.753 251.191 152.301C251.234 152.324 251.274 152.349 251.313 152.379C251.899 152.199 252.511 152.119 253.124 152.14C253.824 152.152 254.516 152.279 255.174 152.517C255.472 152.408 255.783 152.339 256.099 152.312C256.879 152.248 257.654 152.486 258.265 152.977C259.029 152.766 259.842 152.817 260.574 153.121C261.338 153.466 261.95 154.076 262.297 154.838L261.893 155.032C261.593 154.367 261.061 153.833 260.397 153.531C259.833 153.306 259.217 153.245 258.619 153.353C258.696 153.458 258.763 153.569 258.819 153.686C258.934 153.889 259 154.117 259.012 154.351C259.023 154.585 258.98 154.818 258.885 155.032C258.71 155.374 258.408 155.635 258.043 155.758C257.932 155.805 257.814 155.835 257.694 155.846ZM258.137 153.531C257.889 153.63 257.678 153.805 257.533 154.029C257.352 154.353 257.3 154.733 257.389 155.093C257.399 155.148 257.42 155.202 257.45 155.249C257.481 155.297 257.52 155.338 257.567 155.37C257.668 155.409 257.781 155.409 257.882 155.37C258.13 155.283 258.337 155.107 258.464 154.877C258.524 154.721 258.548 154.555 258.535 154.389C258.521 154.223 258.471 154.062 258.386 153.918C258.319 153.777 258.231 153.647 258.126 153.531H258.137ZM255.146 153.038C254.731 153.215 254.387 153.486 254.348 153.841C254.348 154.015 254.385 154.187 254.457 154.345C254.529 154.504 254.633 154.646 254.764 154.76C254.829 154.834 254.91 154.892 254.999 154.931C255.089 154.97 255.187 154.989 255.285 154.988C255.362 154.966 255.433 154.929 255.495 154.877C255.556 154.825 255.605 154.761 255.639 154.688C255.821 154.396 255.881 154.044 255.805 153.708C255.748 153.557 255.66 153.419 255.546 153.303C255.433 153.188 255.297 153.097 255.146 153.038ZM251.224 152.916C251.069 152.963 250.926 153.043 250.806 153.151C250.685 153.26 250.59 153.393 250.526 153.542C250.495 153.691 250.494 153.844 250.523 153.993C250.551 154.143 250.609 154.285 250.693 154.411C250.737 154.493 250.797 154.565 250.869 154.623C250.941 154.681 251.024 154.724 251.114 154.749C251.215 154.755 251.316 154.74 251.411 154.706C251.506 154.671 251.593 154.618 251.667 154.55C251.847 154.416 251.966 154.217 252 153.996C251.952 153.772 251.858 153.561 251.725 153.375C251.591 153.189 251.421 153.033 251.224 152.916ZM247.657 152.595C247.29 152.941 247.031 153.385 246.909 153.874C246.878 153.972 246.866 154.076 246.874 154.178C246.883 154.281 246.912 154.381 246.959 154.472C247.061 154.573 247.198 154.631 247.341 154.633C247.621 154.655 247.898 154.569 248.117 154.395C248.521 154.029 248.322 153.287 248.001 152.877C247.903 152.764 247.787 152.669 247.657 152.595Z" fill="#F2DDE3"/>
<path d="M302.373 54.9122H218.028C212.65 54.9122 208.29 59.2722 208.29 64.6506V109.902C208.29 115.281 212.65 119.641 218.028 119.641H302.373C307.751 119.641 312.111 115.281 312.111 109.902V64.6506C312.111 59.2722 307.751 54.9122 302.373 54.9122Z" fill="#CE8196"/>
<path d="M298.495 57.3329H221.911C216.533 57.3329 212.173 61.6929 212.173 67.0712V107.481C212.173 112.86 216.533 117.22 221.911 117.22H298.495C303.873 117.22 308.233 112.86 308.233 107.481V67.0712C308.233 61.6929 303.873 57.3329 298.495 57.3329Z" fill="#F2DDE3"/>
<path d="M228.115 68.5392H225.323V93.2395H228.115V68.5392Z" fill="#CE8196"/>
<path d="M232.724 78.3716H229.932V93.2339H232.724V78.3716Z" fill="#CE8196"/>
<path d="M237.327 72.2341H234.535V93.2341H237.327V72.2341Z" fill="#CE8196"/>
<path d="M241.93 81.8615H239.138V93.234H241.93V81.8615Z" fill="#CE8196"/>
<path d="M246.533 77.6737H243.741V93.234H246.533V77.6737Z" fill="#CE8196"/>
<path d="M251.141 87.5505H248.35V93.234H251.141V87.5505Z" fill="#CE8196"/>
<path d="M255.744 74.6048H252.953V93.2339H255.744V74.6048Z" fill="#CE8196"/>
<path d="M293.577 86.2598C292.788 88.7303 291.284 90.9113 289.256 92.5268C287.227 94.1423 284.765 95.1197 282.181 95.3353C279.597 95.5508 277.007 94.9949 274.739 93.7378C272.471 92.4807 270.626 90.579 269.44 88.2733C268.253 85.9676 267.776 83.3616 268.071 80.7851C268.366 78.2086 269.418 75.7774 271.095 73.7993C272.772 71.8211 274.998 70.3849 277.491 69.6724C279.984 68.9599 282.633 69.0031 285.102 69.7966L280.77 83.2519L292.956 76.9924L293.017 76.9259C294.355 79.8602 294.554 83.1868 293.577 86.2598Z" fill="#CE8196"/>
<path d="M295.072 74.5605L295.011 74.627L282.797 80.8755L287.129 67.4202C288.881 67.9847 290.494 68.9125 291.862 70.1429C293.231 71.3732 294.325 72.8786 295.072 74.5605Z" fill="#CE8196"/>
<path d="M271.763 100.142H225.323C225.093 100.142 224.871 100.05 224.708 99.887C224.545 99.7239 224.454 99.5027 224.454 99.272C224.454 99.0414 224.545 98.8202 224.708 98.6571C224.871 98.494 225.093 98.4023 225.323 98.4023H271.763C271.994 98.4023 272.215 98.494 272.378 98.6571C272.542 98.8202 272.633 99.0414 272.633 99.272C272.633 99.5027 272.542 99.7239 272.378 99.887C272.215 100.05 271.994 100.142 271.763 100.142Z" fill="#CE8196"/>
<path d="M294.191 103.737H225.129C224.982 103.737 224.842 103.678 224.738 103.574C224.634 103.471 224.575 103.33 224.575 103.183C224.575 103.036 224.634 102.895 224.738 102.791C224.842 102.687 224.982 102.629 225.129 102.629H294.191C294.338 102.629 294.479 102.687 294.583 102.791C294.687 102.895 294.745 103.036 294.745 103.183C294.745 103.33 294.687 103.471 294.583 103.574C294.479 103.678 294.338 103.737 294.191 103.737Z" fill="#CE8196"/>
<path d="M294.191 107.659H225.129C224.982 107.659 224.842 107.6 224.738 107.496C224.634 107.393 224.575 107.252 224.575 107.105C224.575 106.958 224.634 106.817 224.738 106.713C224.842 106.609 224.982 106.551 225.129 106.551H294.191C294.338 106.551 294.479 106.609 294.583 106.713C294.687 106.817 294.745 106.958 294.745 107.105C294.745 107.252 294.687 107.393 294.583 107.496C294.479 107.6 294.338 107.659 294.191 107.659Z" fill="#CE8196"/>
<path d="M168.663 250.105L181.193 240.721L206.418 248.698L206.778 247.563L180.966 239.403L168.807 248.51L107.107 182.729L90.8216 208.183L74.3427 145.764L67.1196 201.042L56.7946 183.422L47.2064 196.744L48.1702 197.442L56.6894 185.604L67.8508 204.649L74.7359 151.93L90.3619 211.113L107.284 184.662L168.663 250.105Z" fill="#CE8196"/>
<path d="M74.5366 152.306C76.4455 152.306 77.993 150.759 77.993 148.85C77.993 146.941 76.4455 145.393 74.5366 145.393C72.6276 145.393 71.0801 146.941 71.0801 148.85C71.0801 150.759 72.6276 152.306 74.5366 152.306Z" fill="#CE8196"/>
<path d="M107.195 187.155C109.104 187.155 110.652 185.608 110.652 183.699C110.652 181.79 109.104 180.242 107.195 180.242C105.286 180.242 103.739 181.79 103.739 183.699C103.739 185.608 105.286 187.155 107.195 187.155Z" fill="#CE8196"/>
<path d="M168.735 252.387C170.644 252.387 172.192 250.84 172.192 248.931C172.192 247.022 170.644 245.474 168.735 245.474C166.826 245.474 165.279 247.022 165.279 248.931C165.279 250.84 166.826 252.387 168.735 252.387Z" fill="#CE8196"/>
<path d="M181.68 243.519C183.589 243.519 185.137 241.971 185.137 240.062C185.137 238.153 183.589 236.606 181.68 236.606C179.771 236.606 178.224 238.153 178.224 240.062C178.224 241.971 179.771 243.519 181.68 243.519Z" fill="#CE8196"/>
<path d="M56.7392 187.969C58.6481 187.969 60.1956 186.422 60.1956 184.513C60.1956 182.604 58.6481 181.056 56.7392 181.056C54.8303 181.056 53.2828 182.604 53.2828 184.513C53.2828 186.422 54.8303 187.969 56.7392 187.969Z" fill="#CE8196"/>
<path d="M305.065 154.921L302.882 155.83C302.269 154.702 301.379 153.749 300.296 153.06L301.143 151.005C301.171 150.936 301.17 150.859 301.141 150.79C301.112 150.722 301.057 150.667 300.988 150.639L299.443 150.002C299.409 149.988 299.373 149.98 299.336 149.98C299.299 149.979 299.263 149.986 299.228 150C299.194 150.014 299.164 150.035 299.138 150.061C299.112 150.087 299.091 150.118 299.077 150.152L298.257 152.146C296.979 151.786 295.628 151.768 294.341 152.096L293.538 150.163C293.523 150.128 293.502 150.097 293.476 150.071C293.449 150.045 293.418 150.025 293.383 150.011C293.349 149.997 293.312 149.99 293.275 149.99C293.238 149.991 293.201 149.999 293.167 150.013L291.627 150.672C291.558 150.701 291.503 150.755 291.474 150.823C291.445 150.892 291.444 150.969 291.472 151.038L292.28 152.971C291.142 153.653 290.203 154.624 289.561 155.785L287.567 154.965C287.498 154.937 287.42 154.937 287.351 154.965C287.282 154.993 287.226 155.047 287.196 155.115L286.564 156.66C286.55 156.695 286.542 156.731 286.541 156.769C286.541 156.806 286.548 156.843 286.562 156.877C286.576 156.912 286.596 156.943 286.622 156.969C286.648 156.996 286.679 157.017 286.714 157.032L288.769 157.874C288.496 159.127 288.545 160.428 288.913 161.657L286.697 162.571C286.663 162.585 286.632 162.606 286.606 162.632C286.58 162.658 286.56 162.688 286.546 162.723C286.532 162.757 286.525 162.793 286.525 162.83C286.525 162.867 286.533 162.903 286.547 162.937L287.19 164.482C287.204 164.516 287.225 164.547 287.251 164.573C287.277 164.599 287.307 164.62 287.341 164.634C287.376 164.647 287.412 164.654 287.449 164.654C287.485 164.654 287.522 164.646 287.556 164.632L289.832 163.684C290.502 164.702 291.409 165.542 292.474 166.133L291.483 168.543C291.468 168.576 291.461 168.613 291.46 168.649C291.46 168.686 291.467 168.723 291.481 168.757C291.495 168.791 291.516 168.822 291.542 168.848C291.568 168.874 291.598 168.894 291.632 168.908L293.178 169.545C293.248 169.573 293.326 169.572 293.395 169.543C293.464 169.514 293.52 169.459 293.549 169.39L294.563 166.919C295.709 167.172 296.898 167.153 298.036 166.864L299.088 169.379C299.102 169.414 299.122 169.445 299.147 169.472C299.173 169.498 299.204 169.519 299.238 169.534C299.272 169.548 299.309 169.556 299.346 169.556C299.383 169.556 299.42 169.548 299.454 169.534L300.999 168.892C301.067 168.861 301.121 168.805 301.149 168.736C301.177 168.667 301.177 168.59 301.149 168.52L300.102 166.005C301.107 165.399 301.958 164.569 302.589 163.579L305.059 164.598C305.128 164.626 305.206 164.625 305.274 164.596C305.342 164.567 305.397 164.512 305.425 164.443L306.062 162.898C306.076 162.864 306.084 162.827 306.084 162.79C306.084 162.753 306.076 162.716 306.062 162.682C306.047 162.648 306.026 162.617 305.999 162.592C305.973 162.566 305.941 162.546 305.907 162.532L303.547 161.53C303.881 160.357 303.924 159.122 303.675 157.929L305.946 156.982C306.015 156.952 306.07 156.897 306.099 156.828C306.128 156.758 306.128 156.68 306.101 156.611L305.458 155.071C305.444 155.034 305.422 155 305.394 154.972C305.366 154.944 305.332 154.922 305.295 154.908C305.258 154.894 305.218 154.888 305.178 154.89C305.139 154.892 305.1 154.903 305.065 154.921ZM297.26 162.012C296.767 162.217 296.223 162.272 295.699 162.168C295.174 162.065 294.692 161.808 294.313 161.431C293.935 161.053 293.676 160.572 293.571 160.048C293.466 159.524 293.518 158.98 293.722 158.486C293.926 157.991 294.272 157.569 294.716 157.271C295.16 156.973 295.682 156.814 296.217 156.813C296.751 156.812 297.274 156.969 297.719 157.266C298.164 157.562 298.512 157.984 298.717 158.477C298.854 158.805 298.925 159.157 298.926 159.512C298.927 159.867 298.858 160.219 298.723 160.547C298.587 160.875 298.388 161.174 298.137 161.425C297.886 161.676 297.588 161.876 297.26 162.012Z" fill="#CE8196"/>
<path d="M329.027 150.002L324.662 150.423C324.187 148.097 323.129 145.93 321.588 144.125L324.203 140.945C324.29 140.839 324.333 140.703 324.32 140.566C324.308 140.429 324.242 140.302 324.136 140.214L321.743 138.247C321.637 138.16 321.5 138.119 321.363 138.133C321.226 138.146 321.1 138.213 321.012 138.319L318.503 141.399C316.437 140.067 314.056 139.303 311.601 139.184L311.23 135.306C311.216 135.172 311.15 135.048 311.047 134.961C310.944 134.875 310.811 134.831 310.676 134.841L307.596 135.14C307.46 135.151 307.335 135.216 307.246 135.32C307.158 135.423 307.115 135.558 307.125 135.694L307.502 139.571C305.115 140.162 302.925 141.372 301.154 143.078L298.074 140.535C297.964 140.454 297.828 140.417 297.692 140.43C297.556 140.443 297.43 140.507 297.338 140.607L295.371 143C295.284 143.107 295.243 143.244 295.256 143.381C295.27 143.518 295.337 143.644 295.443 143.732L298.617 146.346C297.453 148.415 296.833 150.747 296.817 153.121L292.447 153.542C292.312 153.556 292.189 153.621 292.102 153.725C292.015 153.828 291.972 153.961 291.981 154.096L292.28 157.176C292.293 157.311 292.358 157.435 292.462 157.522C292.566 157.609 292.699 157.652 292.834 157.641L297.376 157.203C298.007 159.365 299.147 161.345 300.7 162.976L297.648 166.737C297.561 166.843 297.519 166.98 297.533 167.117C297.546 167.254 297.614 167.38 297.72 167.468L300.107 169.44C300.214 169.527 300.351 169.568 300.488 169.555C300.625 169.541 300.751 169.474 300.838 169.368L303.985 165.546C305.888 166.613 308.014 167.22 310.194 167.318L310.682 172.343C310.693 172.478 310.757 172.604 310.861 172.693C310.965 172.781 311.1 172.824 311.235 172.814L314.315 172.514C314.45 172.502 314.575 172.437 314.663 172.333C314.751 172.23 314.795 172.096 314.786 171.96L314.299 166.931C316.406 166.403 318.36 165.387 320.004 163.967L323.826 167.113C323.933 167.201 324.069 167.242 324.206 167.228C324.343 167.215 324.47 167.148 324.557 167.041L326.523 164.654C326.611 164.547 326.652 164.411 326.638 164.273C326.625 164.136 326.558 164.01 326.451 163.923L322.729 160.854C323.95 158.958 324.697 156.796 324.906 154.55L329.448 154.107C329.582 154.093 329.706 154.027 329.793 153.924C329.88 153.821 329.923 153.688 329.913 153.553L329.614 150.473C329.608 150.403 329.588 150.335 329.555 150.273C329.522 150.211 329.476 150.156 329.421 150.112C329.367 150.068 329.303 150.036 329.236 150.017C329.168 149.998 329.097 149.993 329.027 150.002ZM311.346 158.311C310.366 158.402 309.381 158.2 308.516 157.731C307.65 157.262 306.943 156.548 306.482 155.678C306.022 154.808 305.83 153.821 305.93 152.842C306.029 151.862 306.417 150.935 307.043 150.175C307.669 149.416 308.506 148.859 309.448 148.574C310.39 148.29 311.396 148.29 312.338 148.576C313.279 148.862 314.116 149.421 314.74 150.181C315.365 150.942 315.751 151.87 315.85 152.849C315.915 153.503 315.851 154.162 315.662 154.791C315.472 155.419 315.16 156.004 314.743 156.511C314.327 157.019 313.815 157.439 313.235 157.748C312.656 158.057 312.022 158.248 311.368 158.311H311.346Z" fill="#CE8196"/>
<path d="M247.07 274.927L247.125 308.795L56.4845 345.882L51.671 295.102L247.07 274.927Z" fill="#CE8196"/>
<path d="M54.4516 298.143L15.3619 280.805C15.3619 280.805 8.56534 207.208 11.2851 205.59C14.0048 203.973 247.125 207.983 247.125 207.983L247.048 274.927L54.4516 298.143Z" fill="#D78CA0"/>
<path d="M11.285 205.59C11.285 205.59 0.760631 211.174 0.068237 217.943C-0.624157 224.712 4.14505 283.863 5.67386 284.882C7.20266 285.901 11.285 327.452 11.285 327.452L56.5011 345.882L54.4516 298.143L15.3618 280.805L14.1931 207.418L11.285 205.59Z" fill="#CE8196"/>
<path d="M128.349 185.056C96.3165 186.163 70.986 201.552 60.5724 218.143C55.914 225.571 49.0399 241.519 48.6743 258.027C48.6743 258.315 48.6743 258.641 48.6743 259.101C48.6355 264.868 49.2282 286.333 61.9683 293.036C70.3822 297.467 77.0791 291.745 96.9757 287.94C127.153 282.167 141.588 289.601 144.563 284.2C147.587 278.633 195.246 234.617 128.349 185.056Z" fill="#CE8196"/>
<path d="M151.608 193.138C151.608 193.138 141.134 214.791 137.578 225.239L137.157 225.167C137.157 225.167 135.805 216.215 130.482 237.292C125.159 258.37 136.714 262.109 136.714 262.109L139.311 255.185C141.411 254.98 152.051 253.933 151.608 253.8C151.165 253.667 148.495 229.775 151.952 212.099C155.408 194.423 151.608 193.138 151.608 193.138Z" fill="#739AF0"/>
<path d="M137.317 194.5C137.317 194.5 137.356 210.293 132.066 212.858C126.776 215.423 121.758 226.075 121.758 226.075L125.347 199.336L137.317 194.5Z" fill="white"/>
<path d="M151.608 193.138C151.021 192.235 147.892 189.592 147.892 189.592H143.061L129.313 192.916C130.231 195.519 130.89 198.205 131.28 200.937L120.921 230.85L116.014 253.667L119.254 257.755C119.348 258.569 119.459 258.736 119.487 258.049C119.636 254.42 132.476 240.976 144.413 219.976C156.35 198.976 152.201 194.046 151.608 193.138Z" fill="#B0D4FF"/>
<path d="M129.186 204.433L117.476 244.455C117.476 244.455 136.713 205.79 135.932 194.5C135.151 183.211 129.186 204.433 129.186 204.433Z" fill="#6790D6"/>
<path d="M116.014 177.35L117.038 177.793L116.828 178.674L116.113 178.957H115.565L116.014 177.35Z" fill="#739AF0"/>
<path d="M137.317 194.5C137.317 194.5 136.126 196.129 134.614 198.267L134.177 198.888C131.728 202.366 128.687 206.826 128.333 208.022C127.723 210.061 112.768 191.404 116.656 176.785C120.545 162.167 134.974 179.921 134.974 179.921L135.451 182.868L135.484 183.089L137.317 194.5Z" fill="#FFB27D"/>
<path d="M137.317 194.5C137.317 194.5 136.126 196.129 134.614 198.267L134.177 198.888C126.76 196.079 124.029 178.946 123.392 179.167C122.755 179.389 119.376 176.896 119.376 176.896V173.102L125.214 174.492L130.598 178.181L135.451 182.895L135.484 183.117L137.317 194.5Z" fill="#ED7D2B"/>
<path d="M125.308 180.225C125.308 180.225 132.936 198.123 143.815 196.24C154.694 194.356 157.563 158.998 151.104 152.65C144.646 146.302 128.554 152.65 128.554 152.65C128.554 152.65 119.564 173.572 125.308 180.225Z" fill="#FFB27D"/>
<path d="M133.495 167.944C133.628 166.759 133.562 165.496 134.199 164.499C134.836 163.502 136.027 163.014 136.802 162.128C138.464 160.222 137.722 157.264 138.42 154.833C138.473 154.553 138.614 154.299 138.824 154.107C139.069 153.957 139.352 153.882 139.638 153.891C142.807 153.714 146.025 154.157 149.143 153.558C149.69 153.49 150.214 153.301 150.678 153.004C151 152.737 151.255 152.396 151.419 152.011C151.584 151.626 151.654 151.207 151.625 150.789C151.558 149.953 151.286 149.146 150.833 148.44C148.811 145.022 144.928 143.189 141.15 141.959C137.207 140.679 133.019 139.826 128.909 140.391C127.112 140.632 125.368 141.175 123.752 141.998C122.141 142.811 120.718 143.952 119.575 145.349C119.293 145.704 119.021 146.08 118.794 146.457C118.689 146.618 118.528 146.723 118.412 146.878C118.296 147.033 118.124 147.304 117.986 147.515C117.432 148.379 116.944 149.282 116.523 150.218C115.68 152.09 115.111 154.073 114.834 156.107C114.773 156.594 114.723 157.082 114.69 157.569C114.584 158.572 114.684 159.586 114.983 160.549C115.277 161.363 115.798 162.078 116.141 162.876C116.867 164.538 116.756 166.443 116.629 168.26L116.28 173.384C116.18 174.841 116.13 176.47 117.088 177.572C117.2 177.721 117.342 177.845 117.505 177.935C117.669 178.025 117.85 178.079 118.035 178.093C118.247 178.077 118.451 178.012 118.634 177.904C120.196 177.095 121.06 175.411 121.985 173.916C122.976 172.316 124.141 170.829 125.458 169.484C125.807 169.055 126.278 168.742 126.81 168.587C128.504 168.249 129.579 170.869 131.291 170.841C132.543 170.841 133.301 169.418 133.468 168.177C133.495 168.083 133.495 168.011 133.495 167.944Z" fill="#2C3A64"/>
<path d="M127.026 169.196C127.026 169.196 123.403 164.659 121.531 166.87C119.659 169.08 119.437 180.414 127.762 177.239C127.762 177.262 127.779 170.027 127.026 169.196Z" fill="#FFB27D"/>
<path d="M115.41 180.414C115.41 180.414 124.694 206.521 126.665 207.557C128.637 208.593 121.038 233.902 121.038 233.902L114.734 254.636L112.352 195.032L115.41 180.414Z" fill="white"/>
<path d="M110.785 182.563C110.785 182.563 97.7512 177.694 82.5684 190.157L79.4554 234.318L84.5957 255.224L100.759 260.303L117.986 262.109L116.019 209.684L110.785 182.563Z" fill="#B0D4FF"/>
<path d="M87.1049 226.075C87.1049 226.075 83.0835 248.859 90.1846 251.933C97.2858 255.008 76.4365 251.933 76.4365 251.933L73.5672 244.455L76.442 235.98L87.1049 226.075Z" fill="#6790D6"/>
<path d="M116.019 177.35C116.019 177.35 108.159 182.89 107.539 184.718C106.918 186.546 112.242 247.906 114.74 254.631C117.238 261.356 121.763 208.177 121.763 208.177L116.019 177.35Z" fill="#B0D4FF"/>
<path d="M157.574 334.62L157.751 349.71C157.751 349.71 144.862 352.9 144.302 349.632C143.743 346.364 145.288 332.532 145.288 332.532L157.574 334.62Z" fill="#FFB27D"/>
<path d="M139.688 356.955C139.688 356.955 139.372 362.81 140.331 363.281C141.289 363.752 149.78 363.226 149.78 363.226L139.688 356.955Z" fill="#ED7D2B"/>
<path d="M150.888 365.048C150.888 365.048 152.223 370.433 153.868 370.837C155.513 371.242 180.323 370.776 176.252 365.813C172.181 360.85 150.888 365.048 150.888 365.048Z" fill="#ED7D2B"/>
<path d="M157.729 348.258C157.729 348.258 176.474 363.514 176.252 365.813C176.03 368.112 155.203 371.613 149.11 365.625C143.017 359.636 140.696 358.855 139.66 358.85C138.625 358.844 137.954 356.634 138.204 355.698C138.453 354.762 140.325 347.178 142.253 347.422C143.457 347.596 144.599 348.066 145.576 348.79L157.729 348.258Z" fill="#F99746"/>
<path d="M150.877 255.761C150.877 255.761 164.587 256.669 163.905 270.496C163.224 284.322 161.778 337.119 157.402 337.351C153.026 337.584 145.77 336.797 144.418 336.559C143.067 336.321 135.201 308.496 137.622 284.777C137.622 284.777 96.8316 287.796 94.7157 284.627C92.5997 281.458 94.7212 265.893 94.7212 265.893L125.342 258.226L150.877 255.761Z" fill="#1C468A"/>
<path d="M63.857 347.599C63.857 347.599 62.1953 361.481 62.3836 362.445C62.572 363.409 78.0206 364.373 78.0206 364.373C78.0206 364.373 79.0398 348.79 76.3589 346.647C73.6779 344.503 63.857 347.599 63.857 347.599Z" fill="#FFB27D"/>
<path d="M49.7489 387.76C49.7489 387.76 49.3944 391.538 50.0757 392.064C50.757 392.591 57.476 399.016 71.2241 391.006C71.2241 391.006 72.4317 387.156 71.2241 385.19C70.0166 383.223 49.7489 387.76 49.7489 387.76Z" fill="#ED7D2B"/>
<path d="M73.8885 381.113C73.8885 381.113 78.9846 379.451 79.4942 377.235C80.0038 375.02 78.6578 370.15 78.6578 370.15L73.8885 381.113Z" fill="#ED7D2B"/>
<path d="M60.7995 362.7C60.9593 362.362 61.1788 362.056 61.4475 361.797C62.2646 361.145 63.1528 360.587 64.0953 360.135C66.0553 359.02 68.2973 358.498 70.5484 358.634C72.9384 358.891 75.1771 359.929 76.9184 361.586C77.5022 362.115 78.0159 362.717 78.4472 363.376C79.3426 364.913 79.8272 366.654 79.8541 368.433C79.9373 369.35 79.8394 370.274 79.5661 371.153C79.3052 371.794 78.9725 372.404 78.5746 372.97C75.6431 377.582 73.4036 382.598 71.9276 387.86C71.85 388.219 71.7193 388.564 71.5399 388.885C71.1595 389.401 70.6438 389.801 70.0498 390.042C68.164 390.928 66.188 391.608 64.1562 392.07C62.0783 392.653 59.9275 392.935 57.7695 392.906C55.5953 392.87 53.4911 392.131 51.7706 390.801C51.1907 390.36 50.7112 389.8 50.3636 389.159C50.016 388.519 49.8084 387.811 49.7544 387.084C49.804 386.089 50.0666 385.117 50.5243 384.232C53.4878 377.496 57.9357 371.419 60.1957 364.417C60.3535 363.83 60.5554 363.256 60.7995 362.7Z" fill="#F99746"/>
<path d="M95.1699 269.36C95.1699 269.36 73.5672 257.456 62.0845 262.198C50.6019 266.94 59.9686 347.018 62.2341 348.059C64.4996 349.1 76.4365 349.566 77.9487 348.059C79.4609 346.552 85.0443 292.914 83.233 288.078C83.233 288.078 91.3922 290.648 98.7426 282.788C106.093 274.927 95.1699 269.36 95.1699 269.36Z" fill="#1C468A"/>
<path d="M62.2009 277.082C62.2009 277.082 70.7145 270.889 73.9439 264.341C77.1732 257.794 68.6761 256.808 68.6761 256.808L66.4605 258.619L62.2009 277.082Z" fill="#233862"/>
<path d="M135.949 251.003C135.949 251.003 132.825 260.447 137.434 263.189C142.042 265.931 144.457 256.027 144.457 256.027V253.329L140.53 251.917L135.949 251.003Z" fill="#ED7D2B"/>
<path d="M152.461 258.027C152.749 259.051 153.708 261.428 151.952 262.674C150.196 263.921 151.398 265.167 150.988 265.621C150.578 266.075 148.556 268.507 148.157 269.499C147.88 270.175 144.74 272.058 142.098 271.593C142.012 271.582 141.926 271.565 141.843 271.543L141.743 271.515C141.21 271.377 140.714 271.125 140.287 270.777C139.861 270.429 139.515 269.993 139.273 269.499C138.946 268.889 138.658 268.335 138.397 267.837C137.954 266.973 137.611 266.264 137.345 265.682C136.664 264.181 136.525 263.566 136.719 263.494C136.913 263.422 136.354 262.652 136.054 261.804C135.755 260.957 135.705 260.192 136.553 259.838L136.691 259.783C136.691 259.783 133.733 255.905 137.245 256.021C137.511 256.033 137.775 256.061 138.037 256.104C138.037 256.104 137.65 254.476 138.757 253.972C138.998 253.874 139.257 253.826 139.516 253.833C140.12 253.847 140.722 253.907 141.317 254.01L141.51 254.038C142.186 254.143 142.879 254.26 143.538 254.315C144.433 254.466 145.352 254.31 146.147 253.872C147.338 253.047 140.873 253.141 137.589 253.24C136.481 253.24 135.755 253.301 135.755 253.301L135.002 252.398L135.91 250.969L136.464 250.072C136.464 250.072 137.799 248.787 139.45 247.485C141.372 245.967 143.721 244.427 144.851 244.92C146.944 245.823 149.725 246.449 149.382 248.15C149.038 249.85 148.589 250.471 149.382 250.919C150.174 251.368 153.037 254.188 153.037 255.246C153.037 256.304 152.179 257.029 152.461 258.027Z" fill="#FFB27D"/>
<path d="M139.66 264.452C139.66 264.452 138.935 266.995 138.392 267.809C137.949 266.945 137.605 266.236 137.339 265.654L137.406 265.51L139.66 264.452Z" fill="#ED7D2B"/>
<path d="M138.94 260.597C138.655 261.084 138.217 261.463 137.694 261.676C137.172 261.89 136.593 261.925 136.049 261.777C135.777 260.996 135.7 260.165 136.547 259.81L138.94 260.597Z" fill="#ED7D2B"/>
<path d="M142.098 271.57C142.012 271.56 141.926 271.543 141.843 271.521C142.042 271.532 142.114 271.554 142.098 271.57Z" fill="#ED7D2B"/>
<path d="M148.047 254.404C146.55 254.604 145.032 254.563 143.549 254.282L141.522 254.005L141.328 253.977C139.937 253.8 139.295 253.761 138.769 253.939C138.503 254.033 138.076 253.689 137.633 253.202C137.026 252.504 136.471 251.764 135.971 250.986L135.944 250.92L136.498 250.022C138.023 248.614 139.634 247.302 141.322 246.095L142.851 248.914C142.851 248.914 145.161 252.598 147.537 251.612C147.526 251.629 148.949 254.348 148.047 254.404Z" fill="#ED7D2B"/>
<path d="M142.491 248.344C142.491 248.344 145.355 253.839 148.385 251.23C148.385 251.23 145.748 253.44 142.491 248.344Z" fill="#231F20"/>
<path d="M137.965 256.043C137.965 256.043 140.602 258.575 143.549 257.971C143.549 257.971 140.995 258.315 137.965 256.043Z" fill="#231F20"/>
<path d="M136.686 259.755C136.686 259.755 139.289 262.165 142.037 261.544C142.037 261.544 140.508 262.22 136.686 259.755Z" fill="#231F20"/>
<path d="M136.714 263.466C136.714 263.466 139.782 265.809 140.757 265.582C140.757 265.582 140.043 266.225 136.714 263.466Z" fill="#231F20"/>
<path d="M138.248 268.812C137.934 268.471 137.522 268.238 137.069 268.143C136.616 268.049 136.145 268.099 135.722 268.286C134.06 268.878 137.788 269.759 137.788 269.759L138.248 268.812Z" fill="#ED7D2B"/>
<path d="M112.884 271.432C112.884 271.432 115.299 269.155 115.188 267.854C115.078 266.552 110.486 267.117 110.486 267.117V270.291L112.884 271.432Z" fill="#6790D6"/>
<path d="M116.019 256.52C116.019 256.52 124.4 251.834 125.685 250.548C126.97 249.263 134.359 249.269 135.949 251.003C137.539 252.737 137.467 251.989 137.849 251.989C138.231 251.989 139.356 255.312 133.163 254.099C126.97 252.886 127.624 252.892 127.07 252.592C126.516 252.293 138.425 256.592 139.178 258.786C139.932 260.979 137.439 262.713 131.396 259.893C131.396 259.893 140.015 263.522 139.633 264.43C139.25 265.339 138.331 267.981 135.921 267.676C133.512 267.372 131.019 265.034 131.019 265.034C131.019 265.034 136.004 269.261 137.744 268.773C139.483 268.286 136.52 271.792 135.921 271.831C135.323 271.87 130.266 270.092 129.435 269.565C129.435 269.565 134.647 272.064 135.251 272.102C135.855 272.141 134.531 277.088 125.619 273.343C120.859 271.293 115.975 269.545 110.995 268.108L116.019 256.52Z" fill="#FFB27D"/>
<path d="M59.891 254.969C59.891 254.969 44.9353 270.152 55.36 277.176C65.7847 284.2 70.997 257.583 70.997 257.583L59.891 254.969Z" fill="#B0D4FF"/>
<path d="M82.5351 190.157C82.5351 190.157 97.873 192.462 88.2016 222.674C88.2016 222.674 80.3526 245.768 82.9893 246.926C85.6259 248.083 115.781 254.609 116.778 255.235C117.775 255.861 110.884 263.826 113.266 270.285C115.648 276.744 60.4671 264.846 58.3124 257.367C56.1576 249.889 67.0698 192.689 82.5351 190.157Z" fill="#739AF0"/>
<path d="M137.157 256.991C137.157 256.991 139.55 258.049 139.322 259.76C139.322 259.755 139.472 258.226 137.157 256.991Z" fill="#ED7D2B"/>
<path d="M139.66 264.314L138.248 263.206C138.248 263.206 139.638 264.037 139.66 264.314Z" fill="#ED7D2B"/>
<path d="M128.853 253.218C128.853 253.218 126.023 253.423 125.873 253.8C126.838 253.479 127.839 253.284 128.853 253.218Z" fill="#231F20"/>
<path d="M132.526 260.392C132.526 260.392 129.972 259.079 129.718 259.107C129.718 259.107 131.401 259.799 132.526 260.392Z" fill="#231F20"/>
<path d="M132.526 266.225C131.809 265.911 131.125 265.529 130.482 265.084L132.526 266.225Z" fill="#231F20"/>
<path d="M109.721 182.258L109.217 204.698L112.352 210.288L115.033 239.974L113.3 209.684L110.425 204.471L109.721 182.258Z" fill="#6790D6"/>
<path d="M166.852 352.191C166.852 352.191 166.907 355.476 171.671 355.476C176.435 355.476 201.3 346.613 201.92 346.015C202.541 345.417 201.405 343.55 201.234 343.295C201.062 343.04 166.852 352.191 166.852 352.191Z" fill="#ED7D2B"/>
<path d="M256.902 368.699C256.902 368.699 256.143 371.469 255.838 371.563C255.534 371.657 214.655 371.009 215.729 367.259C216.804 363.509 216.533 364.29 216.533 364.29L256.902 368.699Z" fill="#ED7D2B"/>
<path d="M236.352 343.013C236.352 343.013 234.424 354.795 233.294 355.249C232.164 355.704 222.188 355.249 222.077 354.141C221.967 353.034 223.783 339.384 223.783 339.384L236.352 343.013Z" fill="#FFB27D"/>
<path d="M234.491 352.252C234.491 352.252 230.763 351.754 230.763 352.252C230.763 352.751 230.99 356.379 231.516 356.457C232.042 356.534 234.917 356.606 235.067 356.457C235.216 356.307 234.491 352.252 234.491 352.252Z" fill="#F99746"/>
<path d="M235.028 355.011L235.139 355.061C235.685 355.328 236.206 355.646 236.695 356.008L240.6 358.722C242.044 359.792 243.587 360.719 245.209 361.492C246.637 362.062 248.1 362.538 249.59 362.916C252.161 363.664 254.683 364.573 257.14 365.636C257.297 365.66 257.445 365.723 257.572 365.819C257.699 365.915 257.799 366.04 257.865 366.185C257.931 366.329 257.96 366.488 257.95 366.646C257.939 366.805 257.889 366.958 257.805 367.093C257.539 367.851 257.196 368.699 256.442 368.965C256.149 369.051 255.844 369.089 255.539 369.076C247.626 369.105 239.716 368.789 231.81 368.128C227.901 367.867 224.014 367.339 220.177 366.55C219.072 366.34 218.004 365.967 217.009 365.442C216.87 365.383 216.746 365.295 216.645 365.183C216.545 365.071 216.47 364.938 216.427 364.794C216.409 364.604 216.441 364.413 216.522 364.24C217.386 361.821 218.292 359.42 219.241 357.038C219.714 355.846 220.2 354.656 220.698 353.471C221.147 352.396 221.379 351.909 222.659 352.175L233.045 354.391C233.724 354.534 234.388 354.742 235.028 355.011Z" fill="#F99746"/>
<path d="M178.59 328.034C178.59 328.034 183.398 339.611 184.001 339.667C184.605 339.722 194.653 338.387 195.406 337.368C196.16 336.349 193.191 327.43 193.191 327.43L178.59 328.034Z" fill="#FFB27D"/>
<path d="M183.17 337.634C183.17 337.634 185.813 337.8 186.267 338.188C186.721 338.576 186.267 341.135 186.267 341.135C185.236 341.213 184.201 341.213 183.17 341.135C182.339 340.974 183.17 337.634 183.17 337.634Z" fill="#F99746"/>
<path d="M183.17 341.124C183.17 341.124 166.287 351.283 166.852 352.203C167.417 353.122 169.688 353.144 170.591 353.41C171.494 353.676 200.624 344.724 201.189 343.932C201.754 343.14 197.013 335.883 195.528 335.773C194.044 335.662 185.092 339.8 185.092 339.8L183.17 341.124Z" fill="#F99746"/>
<path d="M203.488 262.995C203.488 262.995 190.421 289.302 226.564 287.923C226.564 287.923 221.579 341.91 223.307 342.586C225.035 343.262 236.806 343.999 236.806 343.999C236.806 343.999 255.85 281.841 243.42 264.585C230.99 247.33 203.488 262.995 203.488 262.995Z" fill="#1C468A"/>
<path d="M208.324 280.694C208.324 280.694 188.61 290.438 186.001 288.399C183.392 286.361 195.179 328.738 194.271 329.186C193.362 329.635 180.512 332.898 179.315 329.74C178.119 326.583 160.942 299.855 163.961 279.935C166.979 260.015 173.527 261.849 173.527 261.849L194.902 259.107H204.23L210.163 271.521L208.324 280.694Z" fill="#1C468A"/>
<path d="M212.085 169.645C212.085 169.645 214.328 174.747 216.256 176.447C218.183 178.148 216.876 188.739 216.876 188.739L213.553 193.897L208.794 201.713L203.809 202.566L196.608 202.056L195.246 197.464L192.764 188.739L191.102 183.471L192.122 180.148L194.952 177.932L212.085 169.645Z" fill="#FFB27D"/>
<path d="M212.943 171.44C212.943 171.44 211.608 183.322 204.202 184.945C196.06 186.729 195.489 181.067 195.489 181.067L199.522 175.733L205.776 174.824L212.943 171.44Z" fill="#ED7D2B"/>
<path d="M198.647 210.288H202.735L204.202 215.423L196.841 220.259L192.775 258.22L173.554 259.107L181.581 221.616L182.035 214.897L198.647 210.288Z" fill="white"/>
<path d="M202.607 214.437L193.894 217.389L189.812 255.65L202.607 226.906L204.202 213.44L202.607 214.437Z" fill="#EBF3FF"/>
<path d="M194.348 187.482C194.348 187.482 198.957 196.844 200.469 197.597C201.981 198.35 213.996 185.338 213.996 185.338L216.632 193.138L205.299 206.432L196.841 205.878L193.872 199.907L194.348 187.482Z" fill="white"/>
<path d="M193.988 186.646C193.988 186.646 200.392 201.203 198.181 203.818C195.971 206.432 188.039 205.402 188.039 205.402L186.931 201.098L187.724 195.769L193.988 186.646Z" fill="white"/>
<path d="M221.313 178.785C221.313 178.785 244.577 188.379 243.37 209.534C242.162 230.69 225.24 240.965 225.24 240.965L199.71 251.008L206.208 217.827L217.286 192.467L221.313 178.785Z" fill="#B0D4FF"/>
<path d="M213.004 167.9C213.004 167.9 222.676 177.201 222.748 179.533C222.82 181.865 220.482 191.997 217.879 193.581C217.879 193.581 219.047 194.943 219.125 196.229C219.203 197.514 211.498 210.277 211.498 210.277L200.469 205.441C200.469 205.441 208.778 198.494 210.667 193.354C212.556 188.213 216.948 179.505 216.621 176.935L215.137 175.157L213.946 173.29L212.777 171.074L212.456 168.892L213.004 167.9Z" fill="#739AF0"/>
<path d="M193.872 174.63L185.242 216.104L184.888 217.821C184.888 217.821 184.888 219.821 184.644 223.051C183.807 235.237 180.124 264.823 163.889 270.496C163.889 270.496 175.82 228.717 177.183 226.075C178.545 223.433 178.241 220.109 178.241 220.109C178.241 220.109 162.532 224.868 156.865 218.824C151.198 212.78 173.638 173.955 178.695 174.182C183.752 174.409 193.872 174.63 193.872 174.63Z" fill="#B0D4FF"/>
<path d="M185.264 216.104L184.91 217.821C184.91 217.821 185.048 217.007 184.827 220.237C181.381 220.176 178.257 220.109 178.257 220.109L179.769 215.65L185.264 216.104Z" fill="#6790D6"/>
<path d="M195.689 179.843C195.689 179.843 192.365 201.031 188.61 203.109C184.854 205.186 184.904 204.527 184.904 204.527C184.904 204.527 186.117 184.867 186.909 184.241C187.701 183.615 189.214 182.164 189.214 182.164C189.214 182.164 187.363 179.898 187.74 179.178C188.117 178.458 192.648 173.212 192.648 173.212L196.841 174.42L195.689 179.843Z" fill="#739AF0"/>
<path d="M214.406 209.684L216.621 209.534C216.621 209.534 217.729 207.684 218.244 207.645C218.759 207.607 221.152 209.257 221.041 210.487C220.931 211.717 219.413 214.176 219.413 214.176L211.597 215.384L205.288 215.65L205.67 210.288L207.592 206.814L210.163 205.59L211.448 206.925L214.406 209.684Z" fill="#ED7D2B"/>
<path d="M194.348 201.148C194.348 201.148 213.913 195.858 223.202 207.114C223.202 207.114 222.598 209.762 221.163 209.457C219.729 209.152 215.724 206.964 215.724 206.964C215.724 206.964 219.352 213.008 219.125 213.689C218.898 214.37 215.536 214.027 215.347 213.689C215.159 213.351 210.251 207.906 210.251 207.906L208.778 215.107L205.15 217.411L203.289 215.273C203.289 215.273 201.023 212.215 200.153 212.177C199.284 212.138 192.155 214.946 192.155 214.946L188.521 215.5L188.975 211.157L189.956 207.075L191.39 203.303L194.348 201.148Z" fill="#FFB27D"/>
<path d="M173.554 201.94C173.554 201.94 184.904 203.109 184.904 203.829C184.904 204.549 177.255 206.964 177.255 206.964L173.106 206.41L173.532 202.721L173.554 201.94Z" fill="#6790D6"/>
<path d="M158.172 206.388C158.172 206.388 170.103 202.128 177.199 203.79C184.295 205.452 194.37 201.148 194.37 201.148C194.37 201.148 188.477 214.747 191.8 214.896C195.124 215.046 178.279 220.109 178.279 220.109C178.279 220.109 160.632 225.095 156.405 218.06L158.172 206.388Z" fill="#B0D4FF"/>
<path d="M247.048 274.927C246.167 277.221 242.65 268.252 238.939 262.791C238.181 261.589 237.248 260.507 236.169 259.583C236.058 259.5 235.953 259.423 235.842 259.351C231.2 256.332 240.944 255.65 240.944 255.65C240.944 255.65 241.082 255.96 241.315 256.498C242.788 259.888 248.05 272.396 247.048 274.927Z" fill="#B0D4FF"/>
<path d="M241.32 256.503C241.27 256.669 239.93 261.068 238.961 262.79C238.203 261.589 237.27 260.507 236.191 259.583L237.077 258.331L241.32 256.503Z" fill="#739AF0"/>
<path d="M242.428 253.041C242.428 253.041 241.52 260.242 234.607 262.486C227.694 264.729 223.362 271.399 221.562 271.742C219.762 272.086 214.782 271.061 213.082 265.51C211.381 259.96 224.188 253.041 224.188 253.041L238.008 250.438H245.148L242.428 253.041Z" fill="#B0D4FF"/>
<path d="M213.137 263.3C212.783 266.358 216.804 269.947 220.222 269.477C224.553 268.889 227.096 261.904 225.091 259.334C223.529 257.329 219.108 257.894 216.366 259.5C215.475 260.026 213.375 261.262 213.137 263.3Z" fill="#6790D6"/>
<path d="M188.493 264.558L195.406 217.821L264.635 204.654L255.002 248.964L188.493 264.558Z" fill="white"/>
<path d="M188.798 262.497C188.305 262.497 163.933 261.428 163.933 261.428L164.587 263.644L188.494 264.58L188.798 262.497Z" fill="white"/>
<path d="M163.933 261.428L198.652 253.047L199.256 260.447L188.494 262.486L163.933 261.428Z" fill="#EBF3FF"/>
<path d="M225.999 259.893C225.999 259.893 235.848 255.113 232.496 254.188C229.145 253.263 222.637 256.005 222.637 256.005C222.637 256.005 221.767 250.715 219.995 250.676C218.222 250.637 217.308 252.188 218.178 255.285C219.047 258.381 215.574 258.569 214.633 257.323C213.691 256.077 213.835 254.72 212.478 254.681C211.121 254.642 208.778 255.285 210.966 258.985C210.966 258.985 196.536 261.594 196.824 262.048C197.112 262.502 196.763 263.577 201.256 263.123C205.748 262.669 212.306 263.743 212.7 263.743C213.093 263.743 218.028 265.444 220.687 263.743C223.346 262.043 225.999 259.893 225.999 259.893Z" fill="#FFB27D"/>
<path d="M186.04 160.732C186.04 160.732 192.836 183.771 200.164 183.998C207.493 184.225 215.347 174.858 214.012 158.516C212.677 142.175 204.191 140.308 204.191 140.308L184.926 147.033L186.04 160.732Z" fill="#FFB27D"/>
<path d="M188.532 158.616C188.532 158.616 182.317 158.937 182.439 161.092C182.561 163.247 185.043 168.797 188.843 167.778C192.642 166.759 188.532 158.616 188.532 158.616Z" fill="#FFB27D"/>
<path d="M214.633 154.954C214.633 154.954 217.347 153.182 218.106 154.013C218.865 154.844 218.66 163.64 214.012 164.305C209.365 164.97 214.633 154.954 214.633 154.954Z" fill="#FFB27D"/>
<path d="M188.604 168.105C188.604 168.105 187.496 151.592 186.643 150.08C186.643 150.08 201.372 149.93 205.753 145.698C210.135 141.466 208.7 151.897 209.226 153.027C209.753 154.157 211.043 154.688 211.874 154.234C212.705 153.78 214.145 165.313 214.145 165.313C214.145 165.313 215.951 153.481 215.652 152.124C215.353 150.767 209.791 131.284 201.161 129.307C201.161 129.307 203.565 131.572 203.565 132.63C203.565 133.688 195.257 126.664 192.232 127.645C192.232 127.645 194.952 130.066 194.448 132.254C194.448 132.254 190.443 129.235 186.666 129.534C186.666 129.534 189.69 131.345 188.881 133.162C188.072 134.979 182.76 131.124 182.76 131.124C182.76 131.124 185.779 133.085 184.948 134.747C184.118 136.408 181.176 140.413 181.248 143.51C181.32 146.606 184.539 166.343 188.604 168.105Z" fill="#2C3A64"/>
<path d="M208.778 215.085C207.415 214.237 209.254 213.046 209.254 213.046C207.471 212.31 209.692 210.62 209.692 210.62C208.457 209.784 210.246 207.906 210.246 207.906" fill="#ED7D2B"/>
<path d="M211.115 208.87L209.625 207.097C209.625 207.097 210.933 208.155 211.115 208.87Z" fill="#231F20"/>
<path d="M215.724 206.964C215.724 206.964 214.245 205.823 214.018 205.856C213.791 205.889 215.724 206.964 215.724 206.964Z" fill="#231F20"/>
<path d="M209.692 210.62C209.692 210.62 211.054 211.036 211.354 210.919L209.692 210.62Z" fill="#231F20"/>
<path d="M209.254 213.046C209.254 213.046 210.916 213.534 211.193 213.423L209.254 213.046Z" fill="#231F20"/>
<path d="M184.904 203.851C184.904 203.851 174.934 204.798 173.554 201.962C173.554 201.94 169.76 205.374 184.904 203.851Z" fill="#231F20"/>
</svg>
