<svg width="1368" height="347" viewBox="0 0 1368 347" fill="none" xmlns="http://www.w3.org/2000/svg">
<path opacity="0.5" d="M259.281 280.473L1186.43 339.92C1243.87 343.603 1295.31 304.565 1307.22 248.251C1319.93 188.125 1283.49 128.532 1224.18 112.447L1148.68 91.9719C1116.1 83.1365 1081.8 82.7491 1049.03 90.8462L964.233 111.799C884.273 131.555 800.43 129.038 721.799 104.52L599.681 66.4418C520.119 41.6331 435.238 39.3554 354.459 59.8615L241.517 88.5327C223.002 93.2326 206.275 103.264 193.408 117.382C138.292 177.86 177.623 275.238 259.281 280.473Z" fill="url(#paint0_linear)"/>
<path opacity="0.5" d="M2178.19 260.783L1126.91 231.456C1122.9 231.344 1118.9 232.004 1115.13 233.401C1082.94 245.34 1090.6 292.892 1124.91 294.127L2175.92 331.959C2189.1 332.433 2201.46 325.586 2208.05 314.163C2221.52 290.806 2205.15 261.535 2178.19 260.783Z" fill="url(#paint1_linear)"/>
<path d="M363 131.5C83.286 8.62245 -158.494 132.119 -206.754 159.775C-212.738 163.204 -218.773 166.185 -225.258 168.534C-322.093 203.607 -296.925 347 -193.934 347H2267.13C2289.98 347 2308.5 328.477 2308.5 305.628C2308.5 299.937 2307.33 294.308 2305.05 289.092L2244.34 149.85C2212.76 77.4238 2118.5 58.9393 2061.91 114.074L1915.63 256.58C1877.15 294.067 1817.59 299.281 1773.19 269.051L1467.4 60.8933C1432.72 37.2827 1387.81 34.8337 1350.76 54.5327L1158.68 156.67C1120.36 177.046 1073.76 173.676 1038.77 147.998L916.24 58.0743C857.426 14.9106 770.848 38.6415 717.469 88.3702C648.371 152.743 533.616 206.451 363 131.5Z" fill="white"/>
<defs>
<linearGradient id="paint0_linear" x1="695.327" y1="105.956" x2="689.193" y2="210.402" gradientUnits="userSpaceOnUse">
<stop stop-color="#E3C4CB"/>
<stop offset="1" stop-color="#F1F1F1"/>
</linearGradient>
<linearGradient id="paint1_linear" x1="1603.03" y1="241.504" x2="1601.79" y2="277.612" gradientUnits="userSpaceOnUse">
<stop stop-color="#E3C4CB"/>
<stop offset="1" stop-color="#F1F1F1"/>
</linearGradient>
</defs>
</svg>
